<?xml version="1.0" standalone="no"?>
<!DOCTYPE svg PUBLIC "-//W3C//DTD SVG 20010904//EN"
 "http://www.w3.org/TR/2001/REC-SVG-20010904/DTD/svg10.dtd">
<svg version="1.0" xmlns="http://www.w3.org/2000/svg"
 width="263.000000pt" height="263.000000pt" viewBox="0 0 263.000000 263.000000"
 preserveAspectRatio="xMidYMid meet">
<metadata>
Created by potrace 1.11, written by Peter Selinger 2001-2013
</metadata>
<g transform="translate(0.000000,263.000000) scale(0.100000,-0.100000)"
fill="#000000" stroke="none">
<path d="M250 2592 c-112 -37 -201 -141 -231 -269 -8 -37 -16 -793 -10 -955 1
-17 19 -18 244 -18 202 0 246 -3 265 -15 22 -16 35 -54 157 -450 99 -320 99
-320 123 -323 12 -2 22 0 23 5 0 4 2 16 4 26 2 9 6 65 10 123 3 58 8 113 10
122 1 10 6 67 9 127 4 61 9 126 10 145 2 19 7 78 10 130 4 52 9 118 11 145 7
75 14 170 20 260 3 44 8 98 10 120 2 22 7 83 10 135 3 52 7 113 10 135 2 22 7
85 11 140 3 55 10 110 15 122 17 47 24 47 548 48 l494 0 16 45 c25 72 48 107
106 163 l54 54 -942 0 c-802 0 -949 -3 -987 -15z"/>
<path d="M2333 2510 c-31 -13 -43 -41 -43 -104 0 -30 -5 -58 -11 -62 -6 -3
-31 -6 -56 -6 -57 2 -81 -11 -97 -50 -30 -70 13 -118 104 -118 l58 0 1 -56 c0
-72 26 -104 81 -104 55 0 80 32 80 103 l0 57 56 0 c30 0 64 5 75 10 16 9 49
59 49 75 0 3 -6 19 -15 35 -17 34 -46 52 -78 50 -12 -1 -37 -2 -54 -1 l-33 1
0 64 c0 46 -5 70 -17 85 -21 24 -68 35 -100 21z"/>
<path d="M1153 2182 c-32 -2 -43 -7 -44 -20 0 -9 -2 -24 -3 -32 -2 -8 -7 -60
-10 -115 -4 -55 -9 -122 -11 -150 -3 -27 -7 -84 -10 -125 -6 -95 -14 -199 -20
-270 -3 -30 -7 -89 -10 -130 -3 -41 -7 -100 -9 -130 -3 -30 -7 -91 -11 -135
-3 -44 -8 -100 -10 -125 -4 -43 -9 -104 -20 -275 -3 -44 -8 -100 -10 -125 -4
-50 -16 -201 -20 -270 -12 -172 -18 -236 -22 -242 -2 -5 -1 -8 4 -9 11 -1
1570 -1 1609 0 l31 1 0 934 0 934 -56 -20 c-70 -24 -188 -26 -251 -3 -133 47
-226 142 -269 275 l-11 35 -402 0 c-222 0 -422 -1 -445 -3z"/>
<path d="M9 1168 c-4 -136 0 -1130 5 -1135 6 -7 744 -8 751 -1 2 2 -61 215
-142 473 -80 259 -160 517 -177 575 l-33 105 -201 3 -202 2 -1 -22z"/>
</g>
</svg>
