<?xml version="1.0" standalone="no"?>
<!DOCTYPE svg PUBLIC "-//W3C//DTD SVG 20010904//EN"
 "http://www.w3.org/TR/2001/REC-SVG-20010904/DTD/svg10.dtd">
<svg version="1.0" xmlns="http://www.w3.org/2000/svg"
 width="127.000000pt" height="127.000000pt" viewBox="0 0 127.000000 127.000000"
 preserveAspectRatio="xMidYMid meet">
<metadata>
Created by potrace 1.11, written by Peter Selinger 2001-2013
</metadata>
<g transform="translate(0.000000,127.000000) scale(0.100000,-0.100000)"
fill="#000000" stroke="none">
<path d="M100 1247 c-30 -16 -51 -37 -67 -67 -22 -42 -23 -52 -23 -282 l0
-238 119 0 c89 0 121 -3 130 -14 6 -7 36 -91 65 -186 30 -94 57 -174 60 -178
4 -3 10 -1 15 4 4 5 22 193 39 418 19 249 36 413 43 422 9 11 59 14 254 14
l243 0 6 25 c4 14 23 43 42 65 l36 40 -459 0 -460 0 -43 -23z"/>
<path d="M1126 1224 c-9 -8 -16 -30 -16 -48 0 -27 -5 -33 -32 -41 -52 -16 -46
-75 7 -75 18 0 24 -7 29 -34 12 -61 76 -57 76 5 0 23 5 28 26 31 57 7 57 69 0
76 -23 3 -26 8 -26 42 0 29 -5 42 -19 50 -25 13 -27 13 -45 -6z"/>
<path d="M507 548 c-21 -282 -38 -516 -37 -520 0 -5 178 -8 395 -8 l395 0 0
450 0 450 -27 -7 c-102 -29 -210 21 -249 115 l-14 32 -213 0 -212 0 -38 -512z
m291 226 c19 -13 22 -24 22 -86 0 -84 -15 -108 -67 -108 -65 0 -73 11 -73 102
0 65 3 83 18 94 23 18 73 17 100 -2z m322 -4 c16 -16 20 -33 20 -85 0 -79 -19
-105 -77 -105 -59 0 -73 21 -73 106 0 64 3 75 22 88 31 22 84 20 108 -4z
m-335 -384 l35 -15 0 -79 c0 -91 -10 -107 -70 -107 -62 0 -71 16 -68 109 3 74
5 81 28 93 32 16 34 16 75 -1z m338 -18 c12 -14 17 -38 17 -78 0 -76 -21 -105
-78 -105 -62 0 -72 15 -72 107 l0 79 33 14 c39 18 76 11 100 -17z"/>
<path d="M10 300 l0 -280 181 0 181 0 -7 28 c-3 15 -41 140 -83 277 l-78 250
-97 3 -97 3 0 -281z"/>
</g>
</svg>
