<svg xmlns="http://www.w3.org/2000/svg" viewBox="0 0 48.51 116.23"><defs><style>.cls-1{fill:#3fa6c9;opacity:0.8;}.cls-2,.cls-3{fill:#304454;}.cls-2{stroke:#304454;stroke-miterlimit:10;}</style></defs><title>Asset 1</title><g id="Layer_2" data-name="Layer 2"><g id="Layer_1-2" data-name="Layer 1"><path class="cls-1" d="M48.5,18.87a13,13,0,0,0-23.06-7.63A13,13,0,0,0,2.37,18.87a.55.55,0,0,0,0,.11c0,.06,0,.13,0,.19s0,.12,0,.17a.61.61,0,0,0,0,.1,18.15,18.15,0,0,0,1.44,6.38v0a.67.67,0,0,0,.23.5A27.09,27.09,0,0,0,6,29.93a45.71,45.71,0,0,0,7.81,9A74.62,74.62,0,0,0,25.1,47.37a.67.67,0,0,0,.68,0,74.67,74.67,0,0,0,11.31-8.44,45.6,45.6,0,0,0,7.81-9,20.87,20.87,0,0,0,3.6-10.5.61.61,0,0,0,0-.1V19A.64.64,0,0,0,48.5,18.87Z"/><path class="cls-2" d="M46.64,13A13,13,0,0,0,23.57,5.37,13,13,0,0,0,.51,13a.65.65,0,0,0,0,.11c0,.06,0,.13,0,.19s0,.12,0,.17a.39.39,0,0,0,0,.1,18.09,18.09,0,0,0,1.44,6.38v0a.67.67,0,0,0,.23.5,26.88,26.88,0,0,0,1.93,3.59,45.67,45.67,0,0,0,7.81,9,74.58,74.58,0,0,0,11.31,8.43.67.67,0,0,0,.68,0,74.61,74.61,0,0,0,11.32-8.43,45.67,45.67,0,0,0,7.81-9,20.87,20.87,0,0,0,3.6-10.5s0-.06,0-.1V13.1A.78.78,0,0,0,46.64,13ZM41.9,23.32A44.24,44.24,0,0,1,34.33,32a74.72,74.72,0,0,1-10.76,8.08A74.67,74.67,0,0,1,12.81,32a44.16,44.16,0,0,1-7.57-8.72,27.12,27.12,0,0,1-1.5-2.68h7.13l1.26,2.51a.67.67,0,0,0,.67.37.68.68,0,0,0,.59-.49l2.12-7.43,2.34,11.71a.68.68,0,0,0,1.33,0l1.34-6.68h4.8l1.26,2.51A.68.68,0,0,0,27.84,23l2.29-8.57L33,23.77a.68.68,0,0,0,1.28,0l1.27-3.19H43.4A26.94,26.94,0,0,1,41.9,23.32Zm2.09-4-.19,0H35.13a.68.68,0,0,0-.63.43l-.74,1.84-3-9.74a.68.68,0,0,0-1.3,0L27,20.95l-.65-1.29a.67.67,0,0,0-.61-.37H20a.68.68,0,0,0-.66.54l-.78,3.91L16.29,12.6A.68.68,0,0,0,15,12.55L12.56,21l-.67-1.33a.68.68,0,0,0-.61-.37H3.14a16.61,16.61,0,0,1-1.29-6A11.6,11.6,0,0,1,23,6.88a.68.68,0,0,0,1.11,0,11.6,11.6,0,0,1,21.16,6.4A16.59,16.59,0,0,1,44,19.31Z"/><g id="_Group_" data-name="&lt;Group&gt;"><path id="_Compound_Path_" data-name="&lt;Compound Path&gt;" class="cls-3" d="M24.48,116.23a.24.24,0,0,1-.24-.24v-2.86a.24.24,0,0,1,.48,0V116A.24.24,0,0,1,24.48,116.23Zm0-5.73a.24.24,0,0,1-.24-.24V107.4a.24.24,0,0,1,.48,0v2.86A.24.24,0,0,1,24.48,110.51Zm0-5.73a.24.24,0,0,1-.24-.24v-2.86a.24.24,0,0,1,.48,0v2.86A.24.24,0,0,1,24.48,104.78Zm0-5.73a.24.24,0,0,1-.24-.24V95.95a.24.24,0,1,1,.48,0v2.86A.24.24,0,0,1,24.48,99Zm0-5.73a.24.24,0,0,1-.24-.24V90.22a.24.24,0,0,1,.48,0v2.86A.24.24,0,0,1,24.48,93.32Zm0-5.73a.24.24,0,0,1-.24-.24V84.49a.24.24,0,0,1,.48,0v2.86A.24.24,0,0,1,24.48,87.59Zm0-5.73a.24.24,0,0,1-.24-.24V78.76a.24.24,0,0,1,.48,0v2.86A.24.24,0,0,1,24.48,81.86Zm0-5.73a.24.24,0,0,1-.24-.24V73a.24.24,0,0,1,.48,0V75.9A.24.24,0,0,1,24.48,76.13Zm0-5.73a.24.24,0,0,1-.24-.24V67.3a.24.24,0,0,1,.48,0v2.86A.24.24,0,0,1,24.48,70.41Zm0-5.73a.24.24,0,0,1-.24-.24V61.57a.24.24,0,0,1,.48,0v2.87A.24.24,0,0,1,24.48,64.68Zm0-5.73a.24.24,0,0,1-.24-.24V55.85a.24.24,0,0,1,.48,0v2.86A.24.24,0,0,1,24.48,58.95Zm0-5.73a.24.24,0,0,1-.24-.24V50.12a.24.24,0,0,1,.48,0V53A.24.24,0,0,1,24.48,53.22Zm0-5.73a.24.24,0,0,1-.24-.24V44.39a.24.24,0,1,1,.48,0v2.86A.24.24,0,0,1,24.48,47.49Zm0-5.73a.24.24,0,0,1-.24-.24V38.66a.24.24,0,0,1,.48,0v2.87A.24.24,0,0,1,24.48,41.76Zm0-5.73a.24.24,0,0,1-.24-.24V34.68a.24.24,0,0,1,.48,0v1.12A.24.24,0,0,1,24.48,36Z"/></g></g></g></svg>