<?xml version="1.0" encoding="utf-8"?>
<!-- Generator: Adobe Illustrator 21.0.0, SVG Export Plug-In . SVG Version: 6.00 Build 0)  -->
<svg version="1.1" id="Layer_1" xmlns="http://www.w3.org/2000/svg" xmlns:xlink="http://www.w3.org/1999/xlink" x="0px" y="0px"
   viewBox="0 0 43 31.1" style="enable-background:new 0 0 43 31.1;" xml:space="preserve">
<path fill="#B9CFEB" d="M12.8,12.4c0.7-5,5.4-8.5,10.4-7.7c4.1,0.6,7.3,4,7.8,8.1c4.9-1.5,10.1,1.3,11.6,6.3s-1.3,10.1-6.3,11.6 c-0.9,0.3-1.7,0.4-2.6,0.4H13.2c-5.1,0.1-9.4-4-9.5-9.1C3.6,16.8,7.6,12.5,12.8,12.4L12.8,12.4z"/>
<path fill="#0B2F47" d="M30.9,28.4H10.3C4.7,28.4,0,23.8,0,18.2c0-5.2,3.9-9.7,9.1-10.3c1.3-5.5,6.7-8.9,12.2-7.6
  c3.8,0.9,6.8,3.9,7.6,7.7c5.6-1,11,2.7,12,8.3s-2.7,11-8.3,12C32.1,28.4,31.5,28.4,30.9,28.4z M19,2c-4.1,0-7.5,3-8.1,7l-0.1,0.8H10
  c-4.6,0.3-8.1,4.3-7.8,8.9c0.3,4.3,3.8,7.7,8.1,7.8h20.5c4.6,0,8.3-3.7,8.4-8.3s-3.7-8.3-8.3-8.4c-0.8,0-1.7,0.1-2.5,0.4l-1.1,0.3
  l-0.1-1.2C26.7,5.1,23.2,2,19,2z"/>
</svg>
