<svg id="Layer_1" data-name="Layer 1" xmlns="http://www.w3.org/2000/svg" viewBox="0 0 30.1 30"><defs><style>.cls-1{fill:#3fa6c9;}.cls-2{fill:#fff;}.cls-3{fill:#304454;}</style></defs><title>favicon</title><g id="Layer_2" data-name="Layer 2"><g id="Layer_1-2" data-name="Layer 1-2"><polygon class="cls-1" points="4.68 16.5 0.02 16.5 0.01 16.5 0.01 29.98 8.85 29.98 4.68 16.5"/><path class="cls-1" d="M27.83,8.75A4.74,4.74,0,0,1,23.19,5H12.8L10.91,30H30V8.22a4.71,4.71,0,0,1-2.17.53"/><path class="cls-2" d="M19.39,15.31c0,.64-.74,1.15-1.65,1.15s-1.65-.52-1.65-1.15V12.75c0-.64.74-1.15,1.65-1.15s1.65.52,1.65,1.15Z"/><path class="cls-2" d="M26.9,15.31c0,.64-.74,1.15-1.65,1.15s-1.65-.52-1.65-1.15V12.75c0-.64.74-1.15,1.65-1.15s1.65.52,1.65,1.15Z"/><path class="cls-2" d="M19.39,24.79c0,.64-.74,1.15-1.65,1.15s-1.65-.52-1.65-1.15V22.23c0-.64.74-1.15,1.65-1.15s1.65.52,1.65,1.15Z"/><path class="cls-2" d="M26.9,24.79c0,.64-.74,1.15-1.65,1.15s-1.65-.52-1.65-1.15V22.23c0-.64.74-1.15,1.65-1.15s1.65.52,1.65,1.15Z"/><path d="M29.45,3.5H28V2a.59.59,0,0,0-1.18,0V3.5h-1.4a.59.59,0,0,0,0,1.18h1.4V6A.59.59,0,0,0,28,6V4.68h1.4a.59.59,0,0,0,0-1.18"/><path class="cls-1" d="M27.46,6.95a1,1,0,0,1-1-1v-.9h-1a1,1,0,0,1,0-1.92h1V2a1,1,0,1,1,1.92,0V3.13h1a1,1,0,0,1,0,1.92h-1V6a1,1,0,0,1-1,1h0"/><path class="cls-3" d="M3.88,0A4.15,4.15,0,0,0,0,4.39v10.2H5.39a1,1,0,0,1,.91.67l2.57,8.3h0c.06.13.19.26.31.26a.28.28,0,0,0,.3-.26h0L11,3.93A1,1,0,0,1,12,3H23.2a4.74,4.74,0,0,1,2.14-3Z"/></g></g></svg>