<svg xmlns="http://www.w3.org/2000/svg" viewBox="0 0 187.6 186.63"><defs><style>.cls-1{fill:#1c365e;}</style></defs><title>Asset 1</title><g id="Layer_2" data-name="Layer 2"><g id="Capa_1" data-name="Capa 1"><path class="cls-1" d="M10.06,154.34l-2.19-5.87-2.14,5.87ZM16,160.66h-3.5L11.11,157H4.72l-1.31,3.62H0l6.2-15.92H9.62Z"/><polygon class="cls-1" points="16.85 160.66 16.85 144.87 20.07 144.87 20.07 157.96 28.05 157.96 28.05 160.66 16.85 160.66"/><path class="cls-1" d="M39.62,154.77l3.11,1a7.13,7.13,0,0,1-2.38,3.89,6.83,6.83,0,0,1-4.24,1.26,6.87,6.87,0,0,1-5.22-2.16,8.27,8.27,0,0,1-2-5.93,8.65,8.65,0,0,1,2.05-6.17,7.06,7.06,0,0,1,5.4-2.2,6.62,6.62,0,0,1,4.76,1.73,6.41,6.41,0,0,1,1.63,2.94l-3.19.75a3.24,3.24,0,0,0-1.18-2,3.31,3.31,0,0,0-2.16-.72,3.66,3.66,0,0,0-2.89,1.28,6.19,6.19,0,0,0-1.11,4.1,6.67,6.67,0,0,0,1.09,4.3,3.51,3.51,0,0,0,2.82,1.28,3.21,3.21,0,0,0,2.21-.83,4.83,4.83,0,0,0,1.33-2.58"/><path class="cls-1" d="M53,154.34l-2.19-5.87-2.15,5.87Zm5.93,6.32h-3.5L54,157H47.66l-1.32,3.62H42.93l6.2-15.92h3.41Z"/><polygon class="cls-1" points="59.77 160.66 59.77 144.87 62.99 144.87 62.99 157.96 70.98 157.96 70.98 160.66 59.77 160.66"/><path class="cls-1" d="M75.55,147.44V158H78a7.83,7.83,0,0,0,1.93-.16,2.72,2.72,0,0,0,1.31-.65,3.5,3.5,0,0,0,.84-1.54,10.78,10.78,0,0,0,.33-2.9,10,10,0,0,0-.33-2.84,3.84,3.84,0,0,0-.91-1.54,3.4,3.4,0,0,0-1.49-.75,17.05,17.05,0,0,0-2.65-.13Zm-3.22-2.7H78.2a11.22,11.22,0,0,1,3,.3,5.26,5.26,0,0,1,2.39,1.46,7,7,0,0,1,1.53,2.57,12.05,12.05,0,0,1,.52,3.77,10.48,10.48,0,0,1-.49,3.39,7.05,7.05,0,0,1-1.7,2.81,5.5,5.5,0,0,1-2.26,1.27,10,10,0,0,1-2.84.33H72.33Z"/><path class="cls-1" d="M87.38,144.74H90.6v15.92H87.38Zm.8-1.47L89.68,140H93.1l-3,3.24Z"/><path class="cls-1" d="M101.18,154.34,99,148.47l-2.15,5.87Zm5.91,6.32h-3.5L102.21,157H95.84l-1.32,3.62H91.1l6.21-15.92h3.43Z"/><polygon class="cls-1" points="112.24 160.66 112.24 144.74 117.06 144.74 119.93 155.6 122.79 144.74 127.61 144.74 127.61 160.66 124.64 160.66 124.63 148.13 121.46 160.66 118.36 160.66 115.22 148.13 115.22 160.66 112.24 160.66"/><path class="cls-1" d="M138.34,154.34l-2.21-5.87L134,154.34Zm5.92,6.32h-3.5L139.36,157H133l-1.33,3.62h-3.41l6.19-15.92h3.44Z"/><polygon class="cls-1" points="147.15 160.66 147.15 153.96 141.32 144.74 145.09 144.74 148.85 151.05 152.53 144.74 156.23 144.74 150.38 153.98 150.38 160.66 147.15 160.66"/><path class="cls-1" d="M159.55,152.7a6,6,0,0,0,1.24,4.09,4.09,4.09,0,0,0,3.18,1.39,4,4,0,0,0,3.14-1.39,6,6,0,0,0,1.23-4.15,6,6,0,0,0-1.19-4.08,4.09,4.09,0,0,0-3.18-1.34,4.14,4.14,0,0,0-3.21,1.36,6,6,0,0,0-1.21,4.11m-3.32.1a10.53,10.53,0,0,1,.72-4.09,7.84,7.84,0,0,1,1.48-2.17,6.32,6.32,0,0,1,2.07-1.44,8.72,8.72,0,0,1,3.44-.63,7.53,7.53,0,0,1,5.63,2.18,9.83,9.83,0,0,1,0,12.11,7.42,7.42,0,0,1-5.61,2.17,7.53,7.53,0,0,1-5.66-2.16,8.25,8.25,0,0,1-2.09-6"/><path class="cls-1" d="M176.49,151.48h2.37a13.18,13.18,0,0,0,2.88-.19,1.71,1.71,0,0,0,.91-.69,2,2,0,0,0,.32-1.19,1.84,1.84,0,0,0-.43-1.3,1.82,1.82,0,0,0-1.2-.62c-.24,0-1,0-2.33,0h-2.51Zm-3.23,9.18V144.74H180a11.52,11.52,0,0,1,3.71.43,3.58,3.58,0,0,1,1.85,1.52,4.62,4.62,0,0,1,.7,2.53,4.29,4.29,0,0,1-1,3,5.05,5.05,0,0,1-3.13,1.47,7.31,7.31,0,0,1,1.7,1.34,16.21,16.21,0,0,1,1.83,2.58l2,3.11h-3.87l-2.3-3.46c-.83-1.24-1.41-2-1.69-2.34a2.86,2.86,0,0,0-1-.67,6.32,6.32,0,0,0-1.64-.16h-.65v6.63Z"/><rect class="cls-1" x="154.37" y="183.41" width="3" height="3"/><path class="cls-1" d="M13.37,173.37v10.34h2.37a9,9,0,0,0,1.91-.15,3,3,0,0,0,1.28-.65,3.38,3.38,0,0,0,.82-1.51,10.09,10.09,0,0,0,.33-2.86,9.16,9.16,0,0,0-.33-2.78,3.64,3.64,0,0,0-.9-1.52,3,3,0,0,0-1.46-.73,14.64,14.64,0,0,0-2.6-.15Zm-3.16-2.65H16a11.72,11.72,0,0,1,3,.3,5.44,5.44,0,0,1,2.36,1.44A6.71,6.71,0,0,1,22.81,175a11.21,11.21,0,0,1,.52,3.69,10.53,10.53,0,0,1-.48,3.34,7,7,0,0,1-1.67,2.76A5.48,5.48,0,0,1,19,186a9.12,9.12,0,0,1-2.79.34h-6Z"/><polygon class="cls-1" points="25.1 186.37 25.1 170.71 36.7 170.71 36.7 173.37 28.27 173.37 28.27 176.83 36.1 176.83 36.1 179.49 28.27 179.49 28.27 183.71 37 183.71 37 186.37 25.1 186.37"/><path class="cls-1" d="M47.09,179.53v4.17H50a14.33,14.33,0,0,0,2.18-.09,2,2,0,0,0,1.15-.62,1.94,1.94,0,0,0,.44-1.32,2.08,2.08,0,0,0-.34-1.2,2,2,0,0,0-1-.71,10.85,10.85,0,0,0-2.81-.22Zm0-6.22v3.61h2.07c1.22,0,2,0,2.28,0a2.05,2.05,0,0,0,1.28-.56,1.62,1.62,0,0,0,.47-1.22,1.73,1.73,0,0,0-.4-1.18,1.77,1.77,0,0,0-1.19-.54q-.47-.06-2.7-.06Zm-3.17-2.59h6.27a18.42,18.42,0,0,1,2.76.15,4.2,4.2,0,0,1,1.63.64,4.06,4.06,0,0,1,1.2,1.3,3.8,3.8,0,0,1-.11,3.85,3.65,3.65,0,0,1-1.6,1.38,4.13,4.13,0,0,1,2.18,1.42,3.7,3.7,0,0,1,.78,2.37,4.58,4.58,0,0,1-.5,2.08,4.33,4.33,0,0,1-1.34,1.61,4.54,4.54,0,0,1-2.14.75c-.53.05-1.8.09-3.81.1H43.92Z"/><path class="cls-1" d="M61.4,178.52a5.81,5.81,0,0,0,1.23,4,4.22,4.22,0,0,0,6.22,0,6,6,0,0,0,1.2-4.08,5.84,5.84,0,0,0-1.18-4,4,4,0,0,0-3.13-1.33,4,4,0,0,0-3.15,1.34,5.86,5.86,0,0,0-1.2,4m-3.27.1a10.22,10.22,0,0,1,.71-4,8.15,8.15,0,0,1,1.48-2.15,6,6,0,0,1,2-1.39,8.5,8.5,0,0,1,3.36-.63,7.28,7.28,0,0,1,5.53,2.16,9.59,9.59,0,0,1,0,11.87,7.26,7.26,0,0,1-5.51,2.15,7.37,7.37,0,0,1-5.54-2.12,8.08,8.08,0,0,1-2.07-5.88"/><path class="cls-1" d="M82.16,180.64V178H89v6.22a9,9,0,0,1-2.88,1.69,10.41,10.41,0,0,1-3.82.73,8.4,8.4,0,0,1-4.27-1,6.47,6.47,0,0,1-2.75-2.93,9.67,9.67,0,0,1-.92-4.16,9,9,0,0,1,1-4.34,6.88,6.88,0,0,1,3-2.92,8.11,8.11,0,0,1,3.74-.78,7.59,7.59,0,0,1,4.55,1.22,5.53,5.53,0,0,1,2.1,3.38l-3.13.6a3.33,3.33,0,0,0-1.24-1.82,3.74,3.74,0,0,0-2.28-.67,4.27,4.27,0,0,0-3.28,1.32,5.48,5.48,0,0,0-1.23,3.89,6,6,0,0,0,1.24,4.16,4.11,4.11,0,0,0,3.24,1.4,5.48,5.48,0,0,0,2-.38,6.75,6.75,0,0,0,1.71-.94v-2Z"/><path class="cls-1" d="M93.59,178.52a5.82,5.82,0,0,0,1.22,4,4,4,0,0,0,3.11,1.38,4.05,4.05,0,0,0,3.12-1.36,6,6,0,0,0,1.2-4.08,5.85,5.85,0,0,0-1.16-4,4.38,4.38,0,0,0-6.3,0,5.89,5.89,0,0,0-1.19,4m-3.27.1a10,10,0,0,1,.71-4,7.56,7.56,0,0,1,1.46-2.15,6.3,6.3,0,0,1,2-1.39,8.59,8.59,0,0,1,3.38-.63,7.37,7.37,0,0,1,5.54,2.16,9.61,9.61,0,0,1,0,11.87,7.28,7.28,0,0,1-5.52,2.15,7.37,7.37,0,0,1-5.55-2.12,8.12,8.12,0,0,1-2.06-5.88"/><polygon class="cls-1" points="110.6 186.37 110.6 173.37 105.95 173.37 105.95 170.71 118.39 170.71 118.39 173.37 113.76 173.37 113.76 186.37 110.6 186.37"/><path class="cls-1" d="M124.53,169.28l1.47-3.2h3.35l-2.91,3.2Zm3.26,10.86-2.17-5.79-2.09,5.79Zm5.82,6.22h-3.44l-1.36-3.57h-6.26l-1.29,3.57h-3.36L124,170.71h3.36Z"/><path class="cls-1" d="M142.67,173.37v10.34H145a9,9,0,0,0,1.91-.15,3,3,0,0,0,1.28-.65,3.44,3.44,0,0,0,.83-1.51,10.2,10.2,0,0,0,.31-2.86,9.28,9.28,0,0,0-.31-2.78,3.58,3.58,0,0,0-.92-1.52,3,3,0,0,0-1.44-.73,14.79,14.79,0,0,0-2.59-.15Zm-3.16-2.65h5.79a11.62,11.62,0,0,1,3,.3,5.36,5.36,0,0,1,2.36,1.44,6.79,6.79,0,0,1,1.49,2.54,11.27,11.27,0,0,1,.5,3.69,10.24,10.24,0,0,1-.47,3.34,7.06,7.06,0,0,1-1.68,2.76,5.38,5.38,0,0,1-2.21,1.24,9.34,9.34,0,0,1-2.8.34h-6Z"/><path class="cls-1" d="M169.58,180.58l3.05,1a7,7,0,0,1-2.33,3.83,7.38,7.38,0,0,1-9.28-.88,8.12,8.12,0,0,1-2-5.83,8.49,8.49,0,0,1,2-6.06,6.87,6.87,0,0,1,5.3-2.17,6.55,6.55,0,0,1,4.68,1.71,6.12,6.12,0,0,1,1.6,2.89l-3.13.75a3.26,3.26,0,0,0-3.29-2.64,3.54,3.54,0,0,0-2.84,1.25,6.1,6.1,0,0,0-1.08,4c0,2,.34,3.38,1.07,4.21a3.41,3.41,0,0,0,2.77,1.26,3.17,3.17,0,0,0,2.17-.8,4.7,4.7,0,0,0,1.3-2.54"/><rect class="cls-1" x="174.39" y="183.45" width="3" height="2.99"/><path class="cls-1" d="M62.79,75.06c.29.41,1.85-.54,1.72-1-.42-.69-.15-2.61,1.28-2.75v-.55s-2.14,0-2.57,1.37c0,0-1.7-1.78-2.13-1.64s.43,2.6.43,2.6c-1.43-.27-2.12,1.66-2.12,1.66l.27.27a2.05,2.05,0,0,1,3.13,0"/><path class="cls-1" d="M80.17,89.77a6.78,6.78,0,0,0-1.56,4.8,5.53,5.53,0,0,0,4.27-2.06,5.84,5.84,0,0,0,1.56-4.66,6.38,6.38,0,0,0-4.27,1.92"/><path class="cls-1" d="M125.33,73.13s.86-2.33.43-2.6-2.13,1.64-2.13,1.64c-.44-1.37-2.58-1.37-2.58-1.37v.55c1.44.14,1.72,2.06,1.29,2.75-.13.42,1.42,1.37,1.71,1a2.06,2.06,0,0,1,3.14,0l.29-.27s-.7-1.92-2.14-1.66"/><path class="cls-1" d="M106.66,89.77a6.4,6.4,0,0,0-4.27-1.92A5.74,5.74,0,0,0,104,92.51a5.47,5.47,0,0,0,4.26,2.06,6.73,6.73,0,0,0-1.57-4.8"/><path class="cls-1" d="M122.33,81.11c-1.71,2.47-3.72,3-5,2.19s-1.7-2.74,0-5.08,4-3.71,5.26-3,1.28,3.43-.28,5.91m-31-44.51A1.29,1.29,0,0,1,90,35.37,1.32,1.32,0,0,1,91.37,34a1.28,1.28,0,0,1,1.28,1.38,1.24,1.24,0,0,1-1.28,1.23M69.49,83.31c-1.28.83-3.27.28-5-2.19s-1.57-5.22-.28-5.91,3.69.55,5.27,3,1.28,4.39,0,5.08m53.28-8.37c-3.13-1.93-7-1.51-8.54,1s-.38,5.69,2.55,7.64c-2.11.18-4.84-2.69-4.84-2.69-1.19,2.21,1,3.46,2.7,4.06-.24.16-.45.33-.68.51-1.63-.41-2.2.38-2.2.38-.28-.1-3.85-4-6.5-6.69l2.36-.46c-1.72-3.95-6.33-4.82-9.45-7.21-2.35-1.8.29-2.6.92-2,5.85,4.95,11.12,1.52,11.12,1.52-4.14-1.39-6.12-6.06-6.12-6.06a13.2,13.2,0,0,0,15.08-.68c-5.68,1-10.11-4.4-10.11-4.4A17.09,17.09,0,0,0,124,56c-3.27.27-11.39-3.16-11.39-3.16,13-.4,14.11-9.62,14.25-9.62-3.57,2.34-13.11,1.24-13.11,1.24,13.54-4.8,12.53-15.92,12.53-15.92-2.86,4.25-15.94,8.37-15.94,8.37-3.55,1.09-6.41,4.27-6.41,8a3.17,3.17,0,0,1-3.12,2.75c-3.5,0-3.44-5-3.44-7.42,0-3.57-.14-7.68-2.7-7.68H89.53c-.93,0-2.52-.11-3.18.69-1.32,1.54-1.12,5.61-.52,4.8a6.1,6.1,0,0,1,3.28,0c1.65.48.43,5.61.43,6.74a3.09,3.09,0,0,1-3.14,2.88,3.18,3.18,0,0,1-3.14-2.75c0-3.69-2.84-6.86-6.26-8,0,0-13.4-4.12-16.24-8.37,0,0-1,11.25,12.67,16.2,0,0-9.67.82-13.24-1.52.14,0,1.85,9.62,14.82,10,0,0-8.55,2.88-11.67,2.47,0,0,6.11,7,15.23,5,0,0-5,4.53-10.7,3.57,0,0,6.42,5.76,15.12,1,0,0-1.86,4.39-6,5.77,0,0,5.26,3.43,11.25-1.52.75-.84,3.19.13.75,2-3.25,2.48-7.89,3.09-9.87,7.21l2.4.47c-2.69,2.73-6.3,6.58-6.68,6.68,0,0-.52-.74-2-.42-.21-.16-.4-.32-.62-.46,1.72-.6,3.9-1.85,2.7-4.06,0,0-2.73,2.87-4.83,2.69,2.91-1.95,4.06-5.24,2.55-7.64s-5.42-2.88-8.54-1-4.42,5.5-2.86,8,4.94,2.85,8.1,1.09c-1.28,1.91-3.78,2.52-4.82,2.9,0,0,1.75,3.38,5.65-1.11.22.15.41.32.62.47-1.06.81-1.48,2.24-.62,2.84,0,0-.42,2.2,2.13,2.06a2,2,0,0,0,2.7.63c1.12,3,.71,5.85,1.05,7.47l3.28.14c-.3-1.43-.4-6-3-10.18a1.07,1.07,0,0,0,.24-1.63c-.09-.17,4.64-3.12,8.1-5.25l.45,2.22a9.38,9.38,0,0,1,4.95-3.29,13.67,13.67,0,0,0-2.67,11s.56-1.78,3.43-2.07c0,0-4,4.82,2.41,14.16,6.41-9.34,2.71-14.16,2.71-14.16,2.84.29,3.56,2.07,3.56,2.07a13.9,13.9,0,0,0-2.85-11.08,9.16,9.16,0,0,1,5,3.38l.45-2.28c3.43,2.13,8.18,5.13,8.1,5.3-.54.58-.21,1.22.32,1.65-2.58,4.15-2.69,8.72-3,10.15l3.28-.14c.34-1.61,0-4.41,1-7.42a2.06,2.06,0,0,0,2.63-.68c2.56.14,2.15-2.06,2.15-2.06.83-.58.45-1.93-.62-2.76.22-.19.45-.37.72-.55,3.87,4.49,5.64,1.11,5.64,1.11-1-.38-3.53-1-4.81-2.9,3.16,1.75,6.59,1.26,8.1-1.09s.28-6-2.85-8"/><polygon class="cls-1" points="96.51 31.25 99.36 26.85 94.94 28.51 93.36 24.53 91.66 28.51 87.1 26.85 90.09 31.25 96.51 31.25"/><path class="cls-1" d="M51,63.8c-.14-2.75-1.72-4.8-3.14-4.67s-2.28,2.34-2.13,5.08,1.57,4,2.84,3.85C50,67.93,51.11,66.42,51,63.8"/><path class="cls-1" d="M139.31,98.85c-1.13-.68-3.41.41-5,2.61s-1.28,4.13,0,4.81c1.13.69,3,.14,4.55-2.06s1.58-4.67.43-5.36"/><path class="cls-1" d="M110.89,15.2c0-1.24-1.43-2.61-4.14-2.75s-5.12,1.38-5.12,2.61,2.27,2.47,5,2.61c2.86.14,4.43-1.09,4.29-2.47"/><path class="cls-1" d="M53.2,101.46c-1.57-2.2-3.84-3.29-5-2.61s-1.14,3.16.42,5.36,3.43,2.75,4.56,2.06,1.43-2.6,0-4.81"/><path class="cls-1" d="M87.6,114.92c-2.85-.41-5.27.27-5.56,1.52s1.57,3,4.28,3.56,4.56-.41,4.84-1.77-.85-2.74-3.56-3.31"/><path class="cls-1" d="M145.62,75.76a5.71,5.71,0,0,1-4.05,1.52,13.58,13.58,0,0,1-.65,8.23l-2.26-1.78c3.4-6.82-1.37-9.23-1.07-13.52-4.85,1-4.34-2.14-4.34-2.14,1,.25,3.18,1.1,5.18.25-3.24-.28-5.62-2.54-5.47-5.05s3.27-4.54,6.71-4.41c3.4.28,6,2.62,5.83,5.23s-3,4.37-6.27,4.29c1.54,1.26,5.26.66,5.26.66-.43,2.66-3.53,1.89-5.09,1.33-.13.93.1,1.87,1.26,4.31a11.73,11.73,0,0,1,.56,1.3,4.18,4.18,0,0,1,1.43-2.39,5.5,5.5,0,0,1,4.4-1.52,4.44,4.44,0,0,1-1.42,3.71m-2.16,22.67c-.71-1.24-2.42-.68-2.85,0-.15.29-1.73-.68-1.58-1a1.79,1.79,0,0,0-1.13-2.62l.14-.4s1.84,0,2.28,1.24c0,0,1.57-1.64,2-1.37s-.58,2.33-.58,2.33c1.42-.28,2.15,1.51,2.15,1.51ZM142,105.85c-1.49,2.09-4.66,2.56-7.55,1,1.15,1.77,3.38,2.39,4.4,2.76,0,0-1.62,2.79-4.89-.76-1.49,2.15-3.89,2.76-6,4.34a5.56,5.56,0,0,1,1.9-.14,6.15,6.15,0,0,1,4.27,1.91,5.24,5.24,0,0,1-4.12,1.52,6.67,6.67,0,0,1-3.78-1.49,10.48,10.48,0,0,0-1.63,4l-3,.14a15,15,0,0,1,7.11-8.52c2.43-1.22,3.21-1.84,3.7-2.68-1.57-.45-4.55-1.64-3.26-3.91,0,0,2.56,2.48,4.53,2.4-2.6-1.82-3.61-5-2.1-7.06s5-2.48,7.84-.69,4,5.09,2.55,7.28M93.31,110c-7.16-4.49-13.94-5.38-22.2-5.38A14.35,14.35,0,0,1,56.53,90.06l-.07-67.45c9,4.8,28.7,1.58,37.32-2.91,8.7,4.53,28.2,7.64,37.31,2.91L131,90.06c0,8-7.17,14.57-15.62,14.57-8.2,0-14.94.94-22.06,5.38m13.94,10.68a11.11,11.11,0,0,0-4.11-1.67,5.43,5.43,0,0,1-1.58,3.6,5.37,5.37,0,0,1-4,1.79A7.26,7.26,0,0,1,99.15,120a5.44,5.44,0,0,1,1.49-1c-2.62.29-4.79,1.49-7.37,1,.29,4.71-3,3.75-3,3.75.38-1,1.59-2.9,1.07-4.89-.7,3-3.3,5-5.92,4.47-2.7-.68-4.26-3.71-3.69-6.86s3.42-5.5,6.13-4.95,4.1,3.39,3.65,6.46c1.44-1.26,1.33-4.67,1.33-4.67,2.68.72,1.49,3.53.73,4.89,1,.24,2,.21,4.54-.48,4-1.24,9.23-.28,11.39,1.09ZM80.9,117c-.85-.15-2.41.69-2.13,2.06h-.41s-.72-1.64.41-2.46c0,0-2.27-1-2.14-1.39s2.43-.27,2.43-.27c-.7-1.23.71-2.47.71-2.47l.43.28c-.85,1.1.29,2.46,1,2.6.42.15,0,1.79-.3,1.65m-18,1.92a10.7,10.7,0,0,0-1.64-4,7.15,7.15,0,0,1-3.76,1.5,5.06,5.06,0,0,1-4.14-1.52A5.93,5.93,0,0,1,57.62,113a5.47,5.47,0,0,1,1.87.14c-2-1.58-4.47-2.18-5.93-4.34-3.28,3.55-4.92.76-4.92.76,1.07-.38,3.38-1,4.49-2.89-2.81,1.76-6.09,1.32-7.62-.83s-.29-5.5,2.56-7.28,6.4-1.51,7.84.69.5,5.23-2.24,7.06c2,.18,4.65-2.39,4.65-2.39,1.29,2.28-1.7,3.46-3.25,3.91.47.84,1.26,1.46,3.68,2.68A14.89,14.89,0,0,1,65.88,119Zm-19-20.47-.28-.27s.71-1.79,2.14-1.51c0,0-1-2.05-.57-2.33s2,1.37,2,1.37c.43-1.24,2.29-1.24,2.29-1.24l.15.4a1.87,1.87,0,0,0-1.29,2.62c.28.27-1.28,1.24-1.42,1a1.92,1.92,0,0,0-3,0M40.57,72.05a5.37,5.37,0,0,1,4.27,1.52A3.67,3.67,0,0,1,46.33,76a8.55,8.55,0,0,1,.53-1.32c1.14-2.44,1.37-3.38,1.24-4.31-1.56.56-4.67,1.33-5.1-1.33,0,0,3.73.6,5.27-.66-3.24.08-6-1.78-6.28-4.29s2.42-4.95,5.85-5.23c3.42-.13,6.41,1.79,6.69,4.41S52.28,68,49.06,68.32c2,.85,4.16,0,5.34-.25,0,0,.38,3.17-4.46,2.15.41,4.28-4.36,6.7-1.08,13.52l-2.29,1.78c-.87-1.69-1.24-5.11-.59-8.23a5.8,5.8,0,0,1-4.11-1.52,4,4,0,0,1-1.28-3.71M51.12,56.11l-.13.42A1.71,1.71,0,0,0,48.68,58c0,.42-1.69.55-1.83.14a2,2,0,0,0-2.57-1.38l-.14-.41s1.42-1.1,2.55-.28c0,0,.29-2.19.72-2.19S48.56,56,48.56,56c.85-.82,2.56.14,2.56.14M47.94,18.62c3.42.14,6,2.48,5.85,5.08-.27,2.45-2.94,4.31-6.1,4.4,1.61,1.1,5.1.54,5.1.54-.42,2.67-3.54,1.89-5.09,1.33-.14.92.09,1.87,1.25,4.31,1.71,3.57,1.43,8.65.28,10.85l-2.29-1.78a10.55,10.55,0,0,0,1.15-4.18,6.31,6.31,0,0,1-4-1,4.55,4.55,0,0,1-2.28-3.44,7.11,7.11,0,0,1,4.69.82,6.3,6.3,0,0,1,1.29,1.16c-.68-2.47-2.2-4.34-2-6.84-4.83,1-4.46-2.15-4.46-2.15,1.13.25,3.16,1,5.09.35-3.11-.48-5.38-2.69-5.24-5.15.29-2.6,3.29-4.53,6.69-4.26m-.71-3s.71-2.2,1.13-2.07.71,2.2.71,2.2c1.15-.83,2.57.42,2.57.42l-.14.27a2,2,0,0,0-2.55,1.37c-.14.42-1.87.28-1.87-.13,0-.68-1-2.06-2.27-1.51l-.14-.42s1.7-1,2.56-.13m12.94.68a11.57,11.57,0,0,0,4.42.78,5.83,5.83,0,0,1,.71-3.95,4.78,4.78,0,0,1,3.42-2.47,5.58,5.58,0,0,1-.57,4.53A4.61,4.61,0,0,1,67,16.66c2.49-.79,4.27-2.43,6.84-2.53-1.27-4.56,2-4.44,2-4.44-.13,1-.87,3.19.13,5,.07-3.09,2.13-5.58,4.71-5.58,2.85,0,5.14,2.61,5.14,5.91s-2,6-4.7,6-5-2.45-5.13-5.6c-1.15,1.57-.28,5-.28,5-2.62-.1-2.15-3.25-1.79-4.74-.88,0-1.93.36-4.2,1.58a15.9,15.9,0,0,1-11.24,1.25Zm26.5-2.07c.72,0,2.13-1.1,1.42-2.33l.43-.14s1.15,1.51.28,2.47c0,0,2.43.41,2.43.83s-2.27.82-2.27.82c.85,1-.16,2.48-.16,2.48h-.41a2,2,0,0,0-1.71-2.48c-.42,0-.42-1.65,0-1.65m11.83,0c-.85-1,.27-2.47.27-2.47l.44.14c-.71,1.23.71,2.33,1.43,2.33.41,0,.41,1.65,0,1.65a2,2,0,0,0-1.72,2.48H98.5s-1-1.52-.14-2.48c0,0-2.29-.4-2.29-.82s2.43-.83,2.43-.83m8.11-5.08c2.6,0,4.66,2.5,4.71,5.58,1-1.84.28-4,.14-5,0,0,3.29-.12,2,4.44,2.55.1,4.34,1.74,6.83,2.53a5,5,0,0,1-1.15-1.47,5.52,5.52,0,0,1-.56-4.53A4.83,4.83,0,0,1,122,13.13a5.8,5.8,0,0,1,.7,3.95,11.51,11.51,0,0,0,4.42-.78l1.72,2.34a15.94,15.94,0,0,1-11.25-1.25c-2.27-1.22-3.31-1.54-4.2-1.58.35,1.49.83,4.64-1.79,4.74,0,0,.87-3.48-.29-5-.14,3.15-2.35,5.6-5.11,5.6s-4.83-2.75-4.69-6,2.27-5.91,5.11-5.91m36.76,47.25-.17.41a1.94,1.94,0,0,0-2.55,1.38c0,.41-1.86.27-1.86-.14a1.7,1.7,0,0,0-2.28-1.51l-.14-.42s1.72-1,2.55-.14c0,0,.74-2.2,1.15-2.05s.72,2.19.72,2.19c1.14-.83,2.58.28,2.58.28m-3.78-37.77c3.42-.27,6.42,1.65,6.69,4.26S144.15,27.56,141,28c1.93.68,4-.1,5.1-.35,0,0,.39,3.18-4.51,2.15.2,2.57-1.43,4.47-2.05,7A6.16,6.16,0,0,1,141,35.52a7.12,7.12,0,0,1,4.71-.82,5.1,5.1,0,0,1-2.28,3.44,6.42,6.42,0,0,1-4.07,1,10.64,10.64,0,0,0,1.22,4.18l-2.29,1.78a13.76,13.76,0,0,1,.29-10.85c1.16-2.44,1.37-3.38,1.24-4.31-1.55.56-4.66,1.32-5.08-1.33,0,0,3.48.56,5.09-.54-3.16-.08-5.82-1.95-6.11-4.4-.14-2.61,2.42-4.94,5.85-5.08m-1.15-2.88s.31-2.2.74-2.2,1.13,2.07,1.13,2.07c.84-.82,2.56.13,2.56.13l-.14.42a1.71,1.71,0,0,0-2.29,1.51c0,.41-1.84.55-1.84.13A2,2,0,0,0,136,16.43l-.15-.27s1.43-1.24,2.55-.42M93.41.13a60.49,60.49,0,0,1-56-.13V100.31c0,12.28,10.11,22,22.64,22,12.13,0,22.92,1.69,33.33,8.35,10.42-6.56,21.1-8.35,33.21-8.35,12.51,0,22.77-9.74,22.77-22V0a60.62,60.62,0,0,1-56,.13"/><path class="cls-1" d="M47.23,27.69c1.28.15,2.71-1.23,2.85-3.84s-.85-4.94-2.14-5.08-3,1.92-3.13,4.67,1,4.13,2.42,4.26"/><path class="cls-1" d="M140.3,27.69c1.27-.13,2.56-1.64,2.42-4.26s-1.71-4.81-3.14-4.67-2.41,2.33-2.27,5.08,1.56,4,3,3.84"/><path class="cls-1" d="M80.69,17.66c2.7-.14,4.85-1.23,5-2.61s-2.3-2.61-5.13-2.61S76.42,14,76.42,15.2c-.16,1.37,1.42,2.61,4.27,2.47"/><path class="cls-1" d="M141.92,64.22c.15-2.74-1-4.94-2.27-5.08-1.44-.14-3,1.92-3.14,4.67s1.14,4.12,2.41,4.26c1.44.14,2.86-1.25,3-3.85"/></g></g></svg>