<?xml version="1.0" encoding="UTF-8"?>
<svg width="1463px" height="295px" viewBox="0 0 1463 295" version="1.1" xmlns="http://www.w3.org/2000/svg" xmlns:xlink="http://www.w3.org/1999/xlink">
    <!-- Generator: Sketch 51.1 (57501) - http://www.bohemiancoding.com/sketch -->
    <title>asivamosensalud</title>
    <desc>Created with Sketch.</desc>
    <defs></defs>
    <g id="Page-1" stroke="none" stroke-width="1" fill="none" fill-rule="evenodd">
        <g id="asivamosensalud" transform="translate(0.407237, -0.511023)" fill-rule="nonzero">
            <g id="Group" transform="translate(731.700000, 147.500000) scale(-1, 1) rotate(-180.000000) translate(-731.700000, -147.500000) translate(0.200000, 0.000000)">
                <path d="M848.1,284.3 C845.4,278.4 843.1,274.5 842.7,275.2 C842.3,275.8 842.1,275.1 842.1,273.7 L842.3,271 L855.1,271 C862.2,271 867.8,271.4 867.8,271.9 C867.8,272.4 868.4,273.5 869.1,274.2 C869.7,274.9 872.3,278.2 874.7,281.5 C877.1,284.8 880.2,288.7 881.6,290.2 C883,291.7 884,293.2 883.7,293.4 C883.5,293.7 876.4,294 868.1,294.2 L852.8,294.5 L848.1,284.3 Z" id="Shape" fill="#3FA6C9"></path>
                <path d="M108.6,291 C107,290.5 105.8,290.4 105.8,290.6 C105.8,290.8 104.2,290.1 102.2,289 C100.3,287.9 98.3,287.2 97.8,287.5 C97.4,287.8 96.8,287.7 96.6,287.3 C96.5,286.8 94.3,284.9 91.8,282.9 C84.4,276.9 78,270.2 72.3,262.5 C70.6,260.3 69.1,258.3 68.8,258 C67.4,256.8 61.9,248 61.3,246.1 C61,245 60.1,243.4 59.5,242.8 C58.8,242.1 55.3,235.6 51.6,228.4 C46.4,218 44.7,215.5 43.7,216.4 C42.6,217.3 42.6,217.2 43.6,215.9 C44.6,214.6 44.1,212.8 41,206.1 C38.9,201.7 36.8,198.3 36.4,198.7 C36,199.1 36,198.7 36.3,197.8 C36.7,196.8 35.8,193.6 34.2,190.3 C32.7,187.1 31.4,184.1 31.2,183.5 C30.2,179.9 24.8,165.9 23.4,163.3 C22.5,161.5 21.8,159.9 21.9,159.8 C21.9,159.6 21.7,157.8 21.3,155.8 C20.9,153.5 20.2,152.3 19.5,152.7 C19,153 18.8,152.8 19.2,152.2 C19.5,151.6 18.5,147.4 16.9,142.8 C10.7,125 -0.7,86.1 0.1,85.4 C0.6,84.8 1.6,87.4 7.8,105.5 C33.6,180.4 55.5,230.3 75.2,259 C85.7,274.3 102.8,288.7 111.6,289.6 C113.6,289.8 116.7,290.4 118.3,290.9 C121,291.7 120.9,291.8 116.3,291.8 C113.6,291.8 110.1,291.5 108.6,291 Z" id="Shape" fill="#3FA6C9"></path>
                <path d="M993,289.2 C992.9,287.7 991.5,281.3 989.9,275 C981.6,242.6 974.6,215.5 974.3,215.2 C974.2,215 973.7,216.6 973.4,218.7 C973,220.8 971.6,227 970.2,232.4 C968.8,237.9 967.9,242.9 968.2,243.6 C968.5,244.3 968.3,245 967.8,245.2 C967.4,245.4 965.3,252.9 963.3,262 C961.2,271.1 958.8,281.1 957.9,284.3 L956.3,290.2 L937.8,290.1 C926.1,290.1 919.2,289.7 919,289 C918.8,288.5 920.5,282.5 922.7,275.8 C924.9,269 933.1,244.4 940.9,221 C948.6,197.6 955.3,178.1 955.8,177.5 C956.3,176.9 963.2,176.7 974.8,177 L993,177.5 L998.2,192 C1001,200 1004.9,211.1 1006.7,216.7 C1008.6,222.3 1010.6,226.6 1011.1,226.3 C1011.7,226 1011.8,226.2 1011.4,226.9 C1010.8,227.9 1015,242.2 1017.8,248.5 C1018.3,249.6 1019.9,254.3 1021.4,259 C1022.9,263.7 1024.5,268.4 1025.1,269.5 C1025.7,270.6 1026.3,272.4 1026.5,273.5 C1026.9,276.3 1030.9,287.2 1032.1,288.8 C1033.2,290.3 1034.6,290.2 1014,290 C1000.7,289.9 997.8,290.1 998.4,291.2 C999,292.2 998.8,292.2 997.5,291.1 C996.3,290.1 995.4,290.1 994.5,290.8 C993.5,291.7 993.2,291.3 993,289.2 Z" id="Shape" fill="#05377E"></path>
                <path d="M695.2,290.3 L677.1,290 L664.3,251.2 C657.3,229.9 649.1,205.3 646.2,196.4 C643.2,187.5 640.8,179.6 640.8,178.6 C640.8,177.2 642.8,177 659.2,177 L677.6,177 L678.8,181.8 C679.4,184.4 680.6,189.7 681.4,193.5 C682.2,197.4 683.6,201 684.3,201.6 C686.3,203.1 707.1,202.9 708.9,201.3 C709.7,200.7 711,197.3 711.7,193.8 C712.4,190.3 713.7,185.1 714.5,182.3 L715.9,177 L734.4,177 C749.8,177 752.8,177.2 752.8,178.5 C752.8,179.2 751.3,184.2 749.4,189.4 C747.5,194.6 743.7,205.6 741,213.7 C738.2,221.8 733.2,236.4 729.8,246 C726.5,255.6 721.6,269.7 719.1,277.3 C716.6,284.8 714.2,290.9 713.9,290.8 C713.6,290.6 705.2,290.4 695.2,290.3 Z M700.1,241.9 C702.3,233.3 703.1,228.3 702.4,228.2 C696.5,227.6 689.8,227.8 689.7,228.6 C689.5,231.5 692.3,241.8 693.1,241.3 C693.7,241 693.8,241.2 693.4,241.9 C692.7,242.9 694.1,252.4 695.5,256 C696.2,257.9 696,258.3 700.1,241.9 Z" id="Shape" fill="#00AEED"></path>
                <path d="M116,288.9 C110.4,287.8 100.2,282.7 95.8,278.9 C93.9,277.2 91.4,275 90.2,274.1 C88.2,272.5 79.9,262.3 76.5,257.2 C75.6,255.7 74.3,254.6 73.8,254.8 C73.2,254.9 72.9,254.7 73,254.3 C73.1,253.8 72.1,251.5 70.8,249.2 C69.4,246.8 67.6,243.5 66.7,241.9 C65.8,240.3 64.6,238.5 64.1,237.8 C62.7,236.1 53.7,218.2 49.8,209.5 C41.1,190.2 35.6,176 24.8,145.5 C21.1,134.8 9.8,97.8 9.8,96.2 C9.8,95.5 9.4,95.1 8.9,95.4 C8.4,95.8 8.2,95 8.6,93.8 C8.9,92.7 8.7,91.9 8.2,92.2 C7.7,92.5 7.2,90.5 7.1,87.6 C7,84.8 7.2,83.2 7.5,84 C7.8,84.8 11.1,94.3 14.8,105 C24.4,132.8 41.5,178.4 46.3,188.5 C47,190.2 49.6,196 51.9,201.5 C57.6,214.9 69.9,238.6 76.2,248.5 C92.8,274.7 107.2,286.8 122.7,287.9 C127.3,288.1 128.7,288.5 127.3,289.1 C124.8,290.1 121.5,290 116,288.9 Z" id="Shape" fill="#00AEED"></path>
                <path d="M117.3,285.3 C110.6,283.2 106.8,280.8 97.3,272.3 C88.3,264.3 74.1,243.4 63.8,222.9 C60,215.4 54.9,204.4 52.3,198.4 C49.8,192.4 47.3,186.6 46.8,185.5 C43.4,178.1 33.1,149.2 27.3,131 C24.7,123 22,114.5 21.2,112 C17.4,100 12.8,83.1 12.9,81.4 C12.9,80.4 16,88.5 19.9,99.5 C39.5,156 58,201.4 72.3,228.4 C83.4,249.4 90.9,260.2 102.7,271.8 C112.4,281.3 118.4,284.4 130.3,286 L136.3,286.7 L129.3,286.8 C125.5,286.8 120.1,286.1 117.3,285.3 Z" id="Shape" fill="#00AEED"></path>
                <path d="M124.4,283.4 C103.9,277.1 80,245.9 60.3,200 C58.8,196.4 56.7,191.7 55.8,189.5 C54.8,187.3 52.1,180.6 49.8,174.5 C47.4,168.5 45.1,162.6 44.7,161.5 C44.2,160.4 41.3,151.9 38.2,142.5 C35.1,133.2 32.1,124.7 31.6,123.7 C31.1,122.7 30.4,120.7 30.2,119.3 C29.3,114.3 19.6,82.5 18.6,81.3 C17.8,80.4 18,80 19,80 C19.8,80 21.1,82 22,84.8 C24.6,92.5 36.4,125.9 39.6,134.5 C46.6,153.3 49,159.4 55.3,175 C67.8,205.8 79.4,229.4 90.6,246.5 C100.7,262 105.4,267.3 115.8,275.4 C122.7,280.7 125.6,281.9 134.3,283.5 L141.3,284.8 L135.3,284.8 C132,284.9 127.1,284.2 124.4,283.4 Z" id="Shape" fill="#00AEED"></path>
                <path d="M130.6,280.7 C118.1,276.4 107.7,267.3 94,248.7 C91.7,245.6 89.8,242.7 89.8,242.2 C89.8,241.7 89,240.2 87.9,238.9 C84.1,234.1 71.6,209.6 64.5,193 C53.3,167 40.7,131.2 31.6,99.5 C30.3,95.1 29,91.3 28.5,91.2 C28.1,91 28,90.5 28.3,90 C28.5,89.6 28.1,86.9 27.2,84.1 C26.4,81.2 25.9,78.3 26.2,77.7 C26.4,77 26.7,77.3 26.7,78.3 C26.8,79.3 27.2,79.8 27.8,79.5 C28.3,79.2 28.6,79.5 28.3,80.2 C27.6,82 34.2,100.2 35.3,99.3 C35.7,98.8 35.8,99.1 35.4,99.7 C35,100.4 36,104.7 37.7,109.2 C62.7,177.8 75.2,207.4 90.2,233.3 C95.8,243.1 103.2,253.8 105.2,255.2 C105.8,255.6 106,256 105.6,256 C104.6,256 108,260.1 114.3,266.4 C120.5,272.7 124.6,275.9 127.6,276.6 C128.8,277 129.8,277.6 129.8,278.2 C129.8,278.7 130.8,278.8 131.9,278.5 C133.2,278 133.8,278.2 133.4,278.8 C132.6,280.1 136.2,281 141.8,280.9 L146.3,280.8 L141.8,279.9 C137,279 126.9,274.3 123,271.3 C112.8,263.4 100.3,247.9 90.7,231 C81.3,214.4 64.9,179 59.6,163.5 C59,161.9 57.9,158.9 57.1,157 C56.2,155.1 55.4,152.6 55.2,151.5 C55,150.4 53.8,146.7 52.5,143.4 C51.1,140 49.5,135 48.8,132.2 C48,129.4 47,127.4 46.5,127.7 C45.9,128 45.8,127.8 46.2,127.1 C46.8,126.1 41.5,107.8 38.8,101.5 C38.3,100.4 37.6,97.9 37.3,96 C36.9,94.1 35.8,89.8 34.8,86.5 C33,80.6 31.3,72.3 32.4,74.8 C32.7,75.4 33.4,75.8 33.9,75.5 C34.4,75.1 34.5,75.5 34.3,76.3 C34,77 35.9,83.9 38.7,91.6 C41.4,99.2 45.9,112 48.7,120 C51.5,128 54.3,135.4 54.8,136.5 C55.3,137.6 56.7,141.2 57.9,144.5 C59,147.8 60.6,152 61.4,153.7 C62.2,155.5 63.9,159.8 65.3,163.2 C76.2,191.9 97.5,236.5 100.9,237.8 C101.4,238 101.8,238.6 101.8,239.1 C101.8,241.6 110,252.8 118.3,261.7 C129.1,273.2 139.5,278.9 150.1,279.1 C155.3,279.2 155.3,279.2 151.8,280.2 C149.9,280.7 147.9,281.6 147.4,282.1 C145.7,283.7 137.5,283 130.6,280.7 Z" id="Shape" fill="#00AEED"></path>
                <path d="M140.6,275.5 C138.2,274.3 135.6,273.6 134.9,273.8 C134.1,274.1 133.8,273.8 134.2,273.2 C134.5,272.7 132.3,270.5 129.3,268.5 C126.2,266.5 123.2,264 122.5,262.9 C121.9,261.9 120.7,261 120,261 C119.3,261 118.9,260.6 119.2,260.1 C119.6,259.6 119.5,259 119.1,258.8 C117.1,257.9 101.8,238.3 101.8,236.7 C101.8,236.4 100.2,233.8 98.3,230.9 C93.7,223.9 81.5,199 74.3,182 C68.3,167.8 60.7,147.4 60.5,145.3 C60.5,144.6 60.1,144 59.7,144 C59.2,144 58.6,142.3 58.2,140.3 C57.8,138.2 56.3,132.9 54.8,128.5 C52.1,120.9 49.4,112.1 43.3,91.5 C41.8,86.6 40.3,82.3 39.9,82 C39.6,81.7 39.3,80.4 39.2,79 C39.2,77.6 38.8,75.4 38.4,74 C37.9,72.4 37.9,71.9 38.5,72.5 C39.1,73.1 41,77.9 42.8,83.3 C44.6,88.6 46.5,93 47,93 C47.5,93 47.7,93.4 47.4,93.8 C46.9,94.6 48.1,98.1 58.1,126 C68.7,155.8 84,192.4 95.4,215 C101.7,227.7 114.4,248.3 118.8,253 C120.3,254.7 121.4,256 121.1,256 C120.3,256 129,264.3 133.5,267.8 C139.5,272.5 148.3,276.2 155.3,277.1 C161.2,277.8 161.2,277.8 153.1,277.7 C147,277.6 143.8,277.1 140.6,275.5 Z" id="Shape" fill="#00AEED"></path>
                <path d="M157,275.8 C141.4,273.6 125.8,260.9 110,237.3 C107.7,233.9 105.8,230.8 105.8,230.4 C105.8,230 105.2,228.9 104.4,228.1 C102.4,225.8 92.7,206.9 87.3,194.9 C81.3,181.7 67.8,148.1 67.8,146.5 C67.8,145.8 67,143.5 66.1,141.4 C64.3,137.1 64.1,136.7 63.9,134.6 C63.9,133.8 63.2,132.5 62.6,131.8 C61.9,131.1 61.2,129.2 61.1,127.6 C61,126 60.4,124.3 59.7,123.9 C59.1,123.5 58.8,122.8 59.1,122.3 C59.4,121.8 58.4,117.6 56.8,112.9 C55.3,108.3 52.3,98.7 50.2,91.5 C48.1,84.4 46.1,78.2 45.6,77.9 C45.1,77.6 45,76.6 45.3,75.8 C45.6,75 45.2,73.6 44.4,72.8 C43.3,71.6 43.2,71 44.1,70.1 C44.9,69.3 46.4,72.5 49.9,82.7 C62.6,119.6 78.9,163.2 86.3,179.5 C87.5,182.3 89.6,187 90.9,190 C98.9,209.1 113.5,235.4 123.1,248 C128.8,255.5 136.3,263.1 137.2,262.3 C137.5,261.9 137.8,262.2 137.8,262.8 C137.8,264.8 147,271 152.2,272.5 C158.7,274.3 165.5,275.5 164.7,274.6 C164.4,274.3 161.4,273.3 158.2,272.4 C155,271.6 150.8,270 149,268.9 C147.1,267.9 145.2,267.3 144.6,267.6 C144,268 143.8,267.8 144.1,267.3 C144.5,266.7 143.3,265.1 141.5,263.7 C120.1,247.1 99.2,211.2 77.7,153.7 C71.2,136.5 70.6,134.8 63.3,111.5 C60.7,103.3 57.4,92.9 56,88.5 C54.6,84.1 53.4,79.8 53.3,79 C53.2,78.2 52.6,75.8 51.9,73.8 C51.2,71.7 50.8,69.1 51,67.9 C51.2,66.7 52.9,70.3 55,76.7 C62.5,98.6 67.6,112.8 68.9,115.1 C69.6,116.4 70.2,118.2 70.3,119 C70.4,120.6 73.4,128.7 80,146 C102.2,203.5 122,240.6 138.8,256.5 C146.4,263.7 148.6,265.3 155.3,268.6 C160.8,271.3 163.5,272 168.3,272 C172.5,272 173.9,272.3 172.8,273 C172,273.5 170.5,274 169.5,274 C168.5,274 167,274.7 166.2,275.5 C165.3,276.3 164.4,276.9 164,276.9 C163.6,276.8 160.4,276.3 157,275.8 Z" id="Shape" fill="#00AEED"></path>
                <path d="M164.3,270.3 C161.6,269.6 151.4,265 150.8,264.1 C150.5,263.7 148.5,262.1 146.3,260.4 C144.1,258.8 141.4,256.4 140.4,255.2 C139.4,253.9 137.5,251.8 136.3,250.7 C132.6,247.1 120.4,230 115.9,222 C112.3,215.5 100.9,192.9 98.9,188 C97.6,185 95.2,179.7 93.7,176.2 C92.1,172.8 90.8,169.7 90.8,169.4 C90.8,169.1 88.8,163.8 86.4,157.7 C84,151.5 81.1,143.6 79.9,140 C78.7,136.4 77.3,132.6 76.8,131.5 C76.4,130.4 74.5,124.8 72.7,119 C71,113.2 69.1,108.1 68.7,107.6 C68.2,107 67.8,105.7 67.8,104.6 C67.8,103.4 66.8,99.8 65.7,96.5 C64.6,93.2 62.5,86.2 61.1,81 C59.8,75.8 58.3,70.9 57.8,70 C57.3,69.1 57.3,67.9 57.6,67.2 C58,66.6 59.3,68.8 60.5,72.3 C61.7,75.7 63.9,82 65.4,86.3 C67.3,91.8 68.4,93.7 69,92.8 C69.7,91.9 69.8,92.1 69.4,93.5 C68.9,95.3 73.4,110.4 76.6,118 C77.2,119.4 79.4,125 81.4,130.5 C87.1,146.1 97.2,171.5 102.3,183 C111.7,204.1 125.8,230.6 130.8,236.5 C131.8,237.6 132.7,239 132.9,239.6 C134,242.9 147.3,257.4 152.8,261.5 C158.3,265.5 166.6,269 171.7,269.6 C176.2,270 176.1,270 169.3,267.6 C165.5,266.3 162,265.4 161.6,265.7 C161.1,265.9 160.8,265.5 160.8,264.8 C160.8,264.1 158.6,262 156,260.3 C139.2,248.8 119.6,219.6 103.8,182.6 C101.5,177.1 99.2,172 98.8,171.1 C97.8,169.2 90.9,151.5 89.8,148 C89.3,146.6 87.6,141.7 85.8,137 C82.3,127.6 78.8,116.9 76.8,110 C76.1,107.5 75.2,104.6 74.8,103.5 C74.3,102.4 72.5,96.5 70.6,90.3 C68.8,84.2 67,79.4 66.6,79.6 C66.3,79.8 66.2,79.2 66.5,78.2 C66.7,77.2 66,73.5 64.8,70.1 C63.7,66.6 62.9,63.5 63.3,63.2 C64.1,62.3 64.4,62.9 68.6,75 C75.6,94.9 76.4,97 77.3,96.2 C76.8,97.8 78.6,104.7 80.8,109.5 C81.3,110.6 82.4,113.5 83.2,116 C84.9045654,121.213965 89.8514759,134.244746 94.9282897,147.19153 C99.9779084,160.068962 105.156042,172.863293 107.4,177.8 C108.7,180.7 109.8,183.3 109.8,183.5 C109.8,183.8 113.3,191.1 117.6,199.8 C126,216.6 136.4,234.1 143.1,242.8 C148.2,249.5 158.6,259.1 164.3,262.5 C169,265.2 178.7,268.1 182.8,267.9 C184.8,267.8 184.9,267.7 183.3,267.3 C171.9,264.5 161.8,259.2 155.9,252.8 C154,250.8 152.1,249.3 151.7,249.6 C151.3,249.8 150.6,249.1 150.3,247.9 C149.9,246.6 149.1,246.1 148.2,246.4 C147.4,246.7 146.9,246.6 147.3,246.1 C147.6,245.6 144.4,240.7 140.3,235.1 C136.2,229.6 132.8,224.9 132.8,224.6 C132.8,224.4 130.5,220.2 127.7,215.3 C119.3,200.9 113.2,187.9 102.1,161.5 C97.3,150.2 80,100.1 79.4,96 C79.3,95.2 78.9,93.8 78.6,93 C74.5,81.4 68.6,58.7 70.2,60.1 C70.5,60.4 73,67.2 75.8,75.1 C80.8,89.6 86.6,106.1 89.4,113.5 C90.3,115.7 91.2,118.4 91.5,119.5 C91.8,120.6 92.8,123.3 93.8,125.5 C94.7,127.7 97,133.8 98.9,139 C100.7,144.2 102.6,148.7 103,148.8 C103.4,149 103.8,149.8 103.8,150.6 C103.8,152.1 109.4,166.1 114,176 C115.7,179.6 117.1,183.1 117.1,183.8 C117.1,184.4 117.5,185 118,185 C118.4,185 118.8,185.6 118.8,186.3 C118.8,189.8 136.5,222.2 145.8,235.8 C151.2,243.6 164.7,257.2 166.5,256.6 C167.2,256.3 167.7,256.6 167.5,257.3 C167.1,259.7 178.3,264.2 185.5,264.6 C191.6,264.9 191.8,264.8 187.8,264.1 C170.3,260.8 156.2,248.6 139.2,222 C133.8,213.6 113.8,174.3 113.8,172.1 C113.8,171.4 112.9,169.2 111.8,167 C107.5,158.5 88.2,104.3 86.3,95.3 C86,93.5 85.2,91.8 84.7,91.5 C84.2,91.1 83.8,89.8 83.8,88.5 C83.8,87.2 83.4,85.1 82.9,83.8 C82.4,82.5 81.4,79.5 80.7,77 C80.1,74.5 78.7,69.9 77.6,66.8 C76.6,63.6 75.8,60.3 75.8,59.3 C75.9,57.6 76,57.7 77.3,59.4 C78.1,60.5 78.8,62 78.8,62.7 C78.8,63.5 79.5,65.7 80.4,67.8 C81.2,69.8 81.9,71.5 81.9,71.5 C81.5,71.5 87.2,87.8 100.1,123 C106.3,140 116.8,166.3 120.3,173.7 C122.2,177.6 123.8,181.2 123.8,181.5 C123.8,181.8 127.4,189.4 131.9,198.2 C140.2,215.1 146.5,226 147.8,226 C148.2,226 148.8,227 149.2,228.3 C149.5,229.6 150.9,231.9 152.3,233.4 C153.7,234.9 154.8,236.4 154.8,236.8 C154.8,238.4 165.2,249.1 166.3,248.6 C167,248.4 167.5,248.9 167.4,249.7 C167.2,251.9 178.8,259.6 185,261.5 C187.8,262.3 192.2,262.9 194.7,262.9 L199.3,262.8 L194.3,262 C166.3,257.7 140.1,221.6 111.5,148 C98.7,115.3 80.3,56 82.9,56 C83.3,56 84.8,59.5 86.2,63.8 C90.1,75.7 96.8,95.2 98.3,98.5 C99,100.2 99.8,102.4 100.1,103.5 C100.4,104.6 101.6,108 102.8,111 C104,114 105.4,118.1 106,120 C106.5,121.9 107.4,124 107.8,124.5 C108.2,125.1 109.1,127.3 109.8,129.5 C111.1,133.6 119.9,156.2 122.3,161.5 C123.1,163.2 126,169.9 128.8,176.5 C141.8,206.6 156.5,230.8 170.2,244.6 C180.9,255.3 188.7,259.7 198.3,260.5 C203.9,260.9 204,260.9 199.8,260 C195,259.1 184.4,254.3 180.6,251.3 C159,234.3 137.7,198.3 117.1,144 C115.7,140.4 114,135.7 113.1,133.5 C110,125.4 105.9,113.2 102.3,101.5 C100.3,94.9 97.6,86.4 96.3,82.5 C95.1,78.7 93.5,73 92.7,70 C92,67 91.1,64.1 90.7,63.5 C90.3,63 89.7,60.5 89.3,58 C88.1,50.3 90.2,54.6 95.8,71 C100.6,85.3 102.7,91.4 104.8,96.5 C105.2,97.6 107.9,105 110.8,113 C113.6,121 117.7,131.8 119.8,137 C121.8,142.2 124.8,149.8 126.3,153.8 C127.9,158.2 129.4,160.7 130,160.3 C130.7,159.9 130.8,160.2 130.4,160.9 C129.4,162.5 131.7,168.2 133.1,167.3 C133.7,166.9 133.9,167.3 133.5,168.2 C133,169.8 135.8,176.3 145.7,196.2 C155.6,215.9 169.1,236.8 171.7,236.2 C172.4,236.1 172.6,236.4 172.2,237.1 C171.4,238.5 182.4,249 188.3,252.5 C194.1,256 200.4,258 205.9,258.2 C208.6,258.3 210.8,258.8 210.8,259.2 C210.8,259.6 210,260 209,260 C208,260 205.5,260.9 203.3,262 C201.1,263.1 197.9,264 196.1,264 C194.3,264 192.8,264.3 192.8,264.8 C192.8,265.9 183.5,269 179.7,269.1 C176.5,269.2 176.5,269.3 178.8,270 C181.6,270.9 167.9,271.1 164.3,270.3 Z" id="Shape" fill="#00AEED"></path>
                <path d="M1062.8,264.5 C1051.8,262.6 1039.9,257.3 1038.5,253.6 C1038.2,252.9 1038.6,249 1039.4,244.9 C1040.2,240.8 1040.8,236.3 1040.8,234.8 C1040.8,233.2 1041.2,232 1041.7,232 C1042.1,232 1045.9,233.8 1050.1,236 C1066.9,244.7 1082.5,245.3 1088.7,237.4 C1091.6,233.7 1091.5,230.6 1088.6,231.4 C1080.3,233.7 1072.5,234.2 1065.6,233.1 C1043.6,229.5 1029.8,214.1 1032.8,196.5 C1033.3,193.8 1033.7,190.9 1033.7,190.2 C1033.8,189.4 1036,186.7 1038.6,184.1 C1048,174.8 1065,171.8 1080.3,176.8 C1083.1,177.7 1085.8,178.3 1086.5,178.2 C1087.2,178 1088.2,178.9 1088.8,180 C1089.4,181.1 1090.4,182 1091,182 C1091.6,182 1091.9,181.7 1091.5,181.4 C1091.2,181.1 1091.7,180 1092.6,178.9 C1094.1,177.4 1096.1,177.1 1106.5,176.9 C1113.2,176.8 1119,177 1119.5,177.3 C1119.9,177.6 1120,192.1 1119.6,209.7 C1118.7,248.4 1118.8,246.6 1117.8,245.1 C1117.3,244.2 1116.9,244.6 1116.5,246.2 C1115.4,250.3 1107.9,257.9 1101.9,261 C1091.9,266 1078.6,267.2 1062.8,264.5 Z M1089.6,213.4 C1091.3,212.9 1091.1,206.5 1089.3,202.9 C1086.2,197 1076.8,194.2 1069.5,196.9 C1066,198.3 1064.2,203.1 1066,206.6 C1068.9,212.7 1080.9,216.1 1089.6,213.4 Z" id="Shape" fill="#05377E"></path>
                <path d="M1177.7,264.5 C1175.1,263.8 1171.6,262.6 1169.9,261.7 C1167.5,260.5 1166.8,260.4 1166.8,261.5 C1166.8,263.3 1165.1,263.5 1150.3,263.5 L1137.3,263.5 L1137,222 C1136.9,199.2 1137,179.6 1137.2,178.5 C1137.7,176.6 1138.4,176.5 1151.9,176.7 C1159.7,176.8 1166.3,177.1 1166.5,177.4 C1166.7,177.6 1166.9,191.7 1166.8,208.8 L1166.7,239.7 L1169.5,240.8 C1177.3,243.8 1183.6,242.6 1187.7,237.4 C1189.7,234.8 1189.8,233.6 1189.8,205.9 L1189.8,177.1 L1204.3,176.8 C1215.7,176.6 1218.9,176.8 1219.3,177.8 C1219.6,178.6 1219.8,192.8 1219.8,209.5 L1219.8,239.8 L1224.7,241.5 C1231,243.6 1236.5,242.3 1240.2,237.9 L1242.7,234.9 L1242.7,206.2 C1242.7,183.5 1243,177.5 1244,177.3 C1244.7,177.2 1251.3,176.9 1258.5,176.8 C1268.8,176.6 1271.9,176.8 1272.3,177.8 C1273.3,180.3 1272.7,239.5 1271.7,244 C1271.1,246.5 1270.6,249.3 1270.5,250.2 C1270.4,251.1 1270.1,251.7 1269.7,251.4 C1269.3,251.2 1268.6,251.9 1268.3,253 C1266.3,259.2 1255.5,264.6 1243.2,265.7 C1235.2,266.3 1224.3,263.7 1219.6,260 C1218.1,258.9 1216.5,258 1216,258 C1215.4,258 1214.7,257.4 1214.4,256.8 C1214.1,255.9 1213.6,256 1212.8,257.3 C1212.2,258.2 1209.9,260 1207.6,261.1 C1198.8,265.6 1186.8,266.9 1177.7,264.5 Z" id="Shape" fill="#05377E"></path>
                <path d="M1324.3,265.3 C1307.2,261.6 1296.9,254.1 1290.2,240.5 C1286.8,233.6 1286.3,231.8 1286,223.6 C1285.2,205.2 1290.6,193.5 1304.9,182.8 C1306.2,181.8 1307.6,181 1308.1,181 C1308.5,181 1308.6,180.5 1308.2,179.8 C1307.8,179.2 1307.9,179 1308.5,179.3 C1309.1,179.7 1311.2,179.3 1313.1,178.5 C1318.6,176.2 1325.7,174.7 1332.3,174.5 C1339,174.3 1350.9,177 1356.2,179.9 C1358.1,181 1359.8,181.7 1360,181.4 C1360.5,180.9 1372.3,192.1 1372.6,193.3 C1372.9,194.9 1376.3,200 1377,200 C1377.4,200 1377.4,200.7 1377.1,201.7 C1376.7,202.6 1376.9,203.1 1377.4,202.8 C1377.9,202.4 1378.4,203.2 1378.4,204.3 C1378.5,205.5 1379.1,209.7 1379.7,213.5 C1382,228 1377.3,242.9 1367.4,252.6 C1364.5,255.4 1361.2,258.1 1360,258.4 C1358.8,258.8 1357.8,259.6 1357.8,260.1 C1357.8,260.6 1357.3,261 1356.7,261 C1356.1,261 1354.2,261.6 1352.5,262.4 C1345.5,265.4 1331.4,266.9 1324.3,265.3 Z M1340.9,236.7 C1346.9,233.5 1349.8,228.3 1349.8,220.7 C1349.8,212.9 1347.2,207.9 1341.2,204.4 C1337.5,202.2 1335.9,201.8 1332.2,202.4 C1322.3,203.7 1317.6,208.8 1317,218.8 C1316.4,228.4 1318.7,232.6 1327.3,237.6 C1330.6,239.6 1336.2,239.2 1340.9,236.7 Z" id="Shape" fill="#05377E"></path>
                <path d="M1418.3,264.6 C1412.1,263.1 1404,258.1 1401,254 C1394,244.6 1394.1,228.1 1401.2,220.1 C1404.7,216.2 1410.9,212.4 1418.1,209.9 C1421.8,208.6 1424.8,207.2 1424.8,206.8 C1424.8,206.3 1425.7,206 1426.7,206 C1429.3,206 1431.9,203.3 1431.2,201.5 C1430.8,200.7 1430.2,200.3 1429.7,200.6 C1429.2,200.9 1428.8,200.6 1428.8,199.9 C1428.8,198.1 1416.7,199.4 1412.7,201.6 C1410.8,202.6 1407.4,205 1405,206.9 C1402.6,208.7 1400.3,209.9 1399.8,209.4 C1398.3,207.7 1389.8,190.3 1389.8,188.9 C1389.8,188.1 1391.8,186.3 1394.3,185 C1397.1,183.5 1398.6,182 1398.3,181.2 C1398,180.5 1398.2,180.2 1398.8,180.5 C1400.1,181.3 1404.9,180 1404.3,179 C1403.7,178 1406.7,176.8 1407.9,177.6 C1408.4,177.9 1408.8,177.8 1408.8,177.3 C1408.8,176.9 1409.8,176.5 1411.1,176.4 C1412.3,176.3 1416,175.8 1419.2,175.3 C1435.9,172.4 1455.3,180.2 1460.5,192 C1462.7,196.8 1462.6,207.6 1460.5,211.7 C1456.7,218.9 1448.8,224.5 1436.8,228.6 C1431.7,230.3 1422.8,235.4 1422.8,236.6 C1422.8,238.6 1425.3,240.9 1427.9,241.5 C1431.5,242.3 1439.2,240.5 1443,237.8 C1444.4,236.8 1446.2,236 1447,236 C1447.8,236 1450.7,240.4 1453.5,245.8 L1458.6,255.6 L1454.9,258 C1444.6,264.9 1430.1,267.5 1418.3,264.6 Z" id="Shape" fill="#05377E"></path>
                <path d="M783.3,263.8 C781.7,263.3 779.2,262.3 777.8,261.7 C774.1,260 764.8,250.3 764.8,248.1 C764.8,247 764.4,245.8 763.8,245.5 C763.3,245.2 762.8,241.7 762.8,237.8 C762.8,232.5 763.4,229.5 765,226.1 C768.8,218.1 772.6,215.3 787.1,209.5 C797.7,205.3 800.1,203.3 797.9,200.6 C796.9,199.4 794.8,199 790.4,199 C785.4,199.1 783.3,199.6 778.6,202.3 C775.5,204.1 771.8,206.5 770.5,207.6 C769.1,208.8 767.7,209.5 767.2,209.1 C766.7,208.8 764.5,204.9 762.4,200.5 C760.2,196.1 758,192.2 757.5,191.9 C756,190.8 757.3,188.4 761,185.7 C772.9,176.7 788.6,173.2 803.9,176 C812.3,177.6 817.6,180.1 822.5,185.1 C827,189.6 828.6,193.7 828.7,200.9 C828.9,214.8 823.3,220.8 802.3,229 C793.5,232.4 790.6,234.7 791,237.8 C791.2,239.8 792.1,240.6 794.7,241.3 C798.8,242.3 807.1,240.6 811,237.9 C812.4,236.8 814,236 814.5,236 C814.9,236.1 817.6,240.6 820.3,246.1 C824.6,254.6 825.1,256.2 823.8,257.1 C816.2,262.2 806,265 795.4,264.9 C790.4,264.9 785,264.4 783.3,263.8 Z" id="Shape" fill="#00AEED"></path>
                <path d="M853.3,263.2 L841.3,262.9 L841.5,220.2 L841.8,177.5 L856.2,177 C866.9,176.6 870.8,176.8 871.7,177.8 C872.4,178.5 872.5,179 871.8,179 C871.1,179 870.8,192.7 870.8,221.4 L870.8,263.7 L868.1,263.6 C866.5,263.5 859.9,263.4 853.3,263.2 Z" id="Shape" fill="#00AEED"></path>
                <path d="M482.5,258.9 C480.3,256.5 478,254.6 477.6,254.7 C477.2,254.9 476.9,254.2 477,253.2 C477.1,252.3 476.4,248.8 475.4,245.6 C474,241.2 473.7,237.6 474,231.6 C474.5,221.6 477.9,214 486.7,203 C493.5,194.6 497.8,186.8 499.8,179.7 C500.8,175.9 501.3,175.2 502.4,176.1 C503.6,177 503.8,176.2 503.8,171.4 C503.8,161.3 506.3,156.8 507.1,165.3 C507.4,167.6 507.4,165.6 507.1,160.9 C506.7,151.6 507.4,149.4 509.5,153.7 L510.8,156.5 L510.3,153.6 C510,152.1 509.4,149.5 509.1,147.9 C508.8,146.3 509,145 509.5,145 C512.4,145 515.3,160.1 514.5,170.9 C514.1,176.7 514.2,177.9 515,176 C515.6,174.6 516,169.7 516,165 C516,158.3 515.4,155 513.4,149.5 C511.9,145.7 510.6,142.2 510.5,141.8 C510.4,141.5 510.8,141.1 511.3,141 C514.1,140.3 519.9,158.8 519.1,165.9 C519,166.7 518.7,169.6 518.4,172.4 C517.4,179.8 518.8,177.3 519.9,169.5 C521.3,159.3 519,148.9 513.5,140.7 C512.5,139.2 511.8,137.5 512,136.9 C512.7,134.9 516.8,139.7 519.5,145.6 C521.9,150.8 522.2,152.8 522.2,162 C522.3,167.8 522,173.9 521.6,175.5 C520.9,178.4 520.9,178.4 522.4,175.1 C523.4,172.9 523.9,168.6 523.9,162.5 C523.9,151.5 521.6,144.5 516.2,138.1 C514.2,135.8 512.8,133.6 513.1,133.3 C514.3,132.2 516.8,134 520.1,138.6 C524.2,144.3 526.8,153.8 526.9,164.1 C527,171.4 527,171.4 528,167 C529.4,160.1 527.4,147.9 523.9,142 C523.1,140.6 520.6,137.6 518.4,135.3 C516.2,132.9 514.7,130.8 515.1,130.4 C516.2,129.3 523.8,136.1 525.7,139.9 C530,148.4 531.1,153.9 530.6,164.4 L530.1,174.5 L531.5,169 C533.1,162.3 532.4,152.7 529.6,145 C528.1,141 526,137.9 521.6,133.8 C518.3,130.6 516.1,128 516.6,128 C517.2,128 517.9,126.6 518.3,125 C518.7,123.3 519.3,122.2 519.8,122.5 C520.2,122.8 521.1,122.3 521.7,121.6 C523.5,119.4 529.6,118.8 535.8,120.1 C538.8,120.7 542.1,121.3 543,121.3 C543.9,121.4 544.5,121.6 544.3,121.9 C544,122.1 545.4,123.4 547.3,124.7 C549.2,126 550.8,127.4 550.8,127.8 C550.8,128.2 551.9,129.7 553.1,131 C556.4,134.5 559.3,146.7 559.1,156 C559,165.1 556,174.2 550.8,182 C548.8,185 544.9,190.7 542.3,194.5 C536.2,203.5 532.7,211.5 532.6,216.5 C532.4,226.6 536.3,240.6 539.1,240.4 C540,240.3 540.4,240.9 540.1,241.9 C539.7,243.4 542.9,245.6 548.3,247.5 C550.2,248.2 550.2,248.3 547.8,249.2 C546.4,249.7 544.3,249.9 543.1,249.7 C541.8,249.5 540.8,249.6 540.8,250.1 C540.8,250.5 539.3,251.2 537.6,251.5 C535.8,251.9 533.9,252.5 533.3,252.9 C532.8,253.2 529.2,254.2 525.3,255.1 C509.7,258.8 504.9,260.3 505.5,261.4 C505.9,262 505.4,261.9 504.5,261.1 C503.2,260.1 502.5,260 501.4,261 C500.6,261.6 496.9,262.4 493.3,262.7 L486.7,263.2 L482.5,258.9 Z" id="Shape" fill="#00AEED"></path>
                <path d="M198.3,253.3 C195.6,252.4 190.9,249.9 188,247.9 C184.8,245.7 182,244.3 181,244.7 C179.9,245 179.7,244.9 180.5,244.3 C181.3,243.7 180.1,241.9 176.6,238 L171.5,232.6 L173.3,229.6 C179.8,218.4 190.8,195.8 190.2,194.9 C189.8,194.2 189.9,194 190.5,194.3 C191.5,194.9 198.8,179.7 198.8,177.1 C198.8,176.5 199.2,176 199.6,176 C200.8,176 202.9,168.9 202.1,167.7 C201.8,167.1 201.9,167 202.5,167.3 C203.1,167.7 204.3,166 205.3,163.7 C206.3,161.4 207.9,157.7 208.9,155.5 C211.6,149.5 218.2,133.3 220.8,126.5 C222,123.2 223.6,119.4 224.3,118 C225,116.6 227,111.9 228.8,107.5 C230.6,103.1 232.5,99 233,98.3 C233.6,97.6 233.6,96.5 233.2,95.8 C232.8,95.1 232.8,94.8 233.3,95.2 C233.7,95.6 237,90.2 240.5,83.2 C244.1,76.2 249.6,66.8 252.9,62.3 C256.3,57.6 258.6,53.5 258.2,52.8 C257.8,52.1 257.9,52 258.6,52.4 C259.9,53.2 266.5,46.2 266,44.6 C265.8,44 266,43.8 266.4,44.2 C266.8,44.6 268.7,43.7 270.7,42.1 C275.2,38.7 278.6,36.9 286.3,34 C289.6,32.8 293.2,31.5 294.3,31 C295.4,30.6 305.3,26.9 316.3,22.9 C327.3,18.9 342.5,13.3 350.1,10.3 C357.7,7.4 364.3,5 364.8,5 C365.4,5 365.8,4.5 365.8,3.9 C365.8,3.3 366.4,3 367.1,3.3 C367.7,3.5 370.5,2.9 373.1,1.9 C378.2,-0.1 381.8,-0.6 378.1,1.2 C376.8,1.8 375.8,2.6 375.8,3 C375.8,3.5 374.6,4.1 373.2,4.4 C371.7,4.8 370.8,5.4 371.1,5.7 C371.5,6 370.3,7.3 368.5,8.5 C366.7,9.7 365.4,11.2 365.6,11.9 C365.7,12.6 365.5,12.9 365,12.6 C364.5,12.3 362.8,13.5 361.1,15.3 C349.2,28.1 336.1,52.3 320.8,89.5 C317.5,97.8 314.1,105.9 313.4,107.5 C304.6,127.1 299.8,139.2 300.4,140.2 C300.9,140.9 300.7,141 299.8,140.5 C298.8,139.9 298.6,140.1 299.2,141.6 C299.6,142.6 299.6,143.1 299.2,142.7 C298.6,142.1 291,156.6 290.5,159.4 C290.4,159.9 288.9,162.9 287.1,166.1 C285.4,169.3 283.6,172.9 283.2,174.2 C282.8,175.5 281.5,178.2 280.2,180.2 C278.9,182.2 278.1,184.6 278.4,185.5 C278.8,186.4 278.6,187 277.9,186.8 C277.3,186.6 275.4,189 273.7,192 C272,195 269.5,199.4 268.2,201.8 C266.8,204.1 266,206.5 266.3,207 C266.7,207.6 266.5,207.9 266,207.8 C265.4,207.6 263.8,209.2 262.4,211.3 C260.9,213.4 260.3,214.8 261,214.5 C261.7,214.1 261.6,214.4 260.7,215.2 C259.9,215.9 257.2,219.2 254.7,222.5 C246.2,234 239.6,240.8 230.3,247.5 C220.3,254.7 209,256.7 198.3,253.3 Z" id="Shape" fill="#05377E"></path>
                <path d="M384.5,236.4 C376.8,232.2 371.4,224.2 364.4,206.5 C361.7,199.6 357.8,182.9 356.7,173.5 C354.3,152.2 353.7,147.9 351.7,137 C350.6,130.7 349.3,124.6 348.8,123.5 C348.4,122.4 347.3,117.7 346.4,113 C344.7,103.8 342.3,95.4 337.7,82 C335.9,77.1 334.9,72.6 335.3,71.3 C335.9,68.6 337.4,68.3 338.1,70.8 C338.4,71.7 340.4,77.7 342.6,84 C350.7,107.4 357.4,139.2 360.4,168.5 C361.2,177 363.6,191.8 364.9,196.5 C368.6,210 374.9,225 376.9,225 C377.4,225 377.7,225.4 377.4,225.8 C376.7,227 383.7,233.5 387.6,235.1 C389.3,235.9 390.8,236.8 390.8,237.2 C390.8,238.5 387.5,238 384.5,236.4 Z" id="Shape" fill="#00AEED"></path>
                <path d="M391.8,235.3 C391,235 388.4,233.2 386.2,231.4 C383.9,229.6 381.7,228.4 381.3,228.8 C380.8,229.2 380.8,229 381.2,228.3 C381.5,227.7 380.5,225.2 378.8,222.8 C371.4,212.1 364.1,188 361.7,165.8 C359.9,148.2 359.4,145 356.2,129 C352,108 343.2,76.7 339.1,68.7 C337.7,66 338.1,62 339.7,62 C340.2,62 341.9,65.4 343.7,69.5 C353.4,92.6 361.7,127.7 365.4,161 C366.2,168.4 367.3,177.2 367.8,180.6 C369.2,189.4 373.6,206.3 374.7,206.9 C375.2,207.3 375.8,208.9 376,210.5 C376.2,212.2 376.8,213.4 377.5,213.3 C378.2,213.1 378.5,213.6 378.2,214.4 C377.9,215.2 379.5,218.7 381.8,222.2 C386.1,228.7 392.2,234 395.5,234 C397,234 397.1,234.2 395.8,235 C394.1,236.1 394,236.1 391.8,235.3 Z" id="Shape" fill="#00AEED"></path>
                <path d="M396.3,232.3 C389.1,228.6 381.1,217.8 377.8,207.5 C377.1,205.3 376.2,203.1 375.8,202.5 C373.8,200 368.7,177.6 367.3,165 C365.4,147.7 364.7,142.9 362.8,132.2 C358.5,108.5 351.1,82.4 343.9,65.2 C341.4,59.2 341,57.4 341.9,55.8 C342.9,53.9 343.3,54.3 346,60 C349.1,66.7 353.9,79.1 355.7,85 C362.2,106.4 365.4,119.9 368.2,138 C369,143.2 370.2,151.8 370.8,157 C373.3,178.3 374,182.9 376.4,192.9 C380.9,211.1 390.2,228.9 394.4,227.3 C395.3,227 395.6,227.3 395.3,228.2 C394.7,229.7 398.5,232 401.6,232 C403.1,232 403.1,232.2 401.8,233 C399.9,234.2 399.9,234.2 396.3,232.3 Z" id="Shape" fill="#00AEED"></path>
                <path d="M399.3,228.5 C386.5,219.5 376.3,193.5 372.8,161 C371,144.5 367.7,126.3 362.1,101 C359.2,87.8 347.5,55.8 344.2,52 C343.1,50.7 343.2,50.2 344.8,49.3 C346.5,48.2 347,48.8 350.7,56 C360.5,74.9 371.9,116.7 374.8,144 C375.9,154.3 376.4,157.8 379.3,177.3 C380.7,187.2 387.4,210.2 389,210.8 C389.4,211 389.8,211.8 389.8,212.6 C389.8,213.4 390.3,214 390.9,214 C391.4,214 391.7,214.4 391.4,214.9 C390,217.1 400.8,228.5 405.4,229.6 C406.7,229.9 407.8,230.6 407.8,231.1 C407.8,233 403.9,231.8 399.3,228.5 Z" id="Shape" fill="#00AEED"></path>
                <path d="M405,227 C398.8,222.5 393.9,215.5 388.8,203.5 C384.9,194.6 381.4,179.2 378.7,159.5 C374.6,129.1 371.1,111.8 363.5,83.9 C361.2,75.9 357.5,66.2 352.2,55 C349.1,48.4 347.8,44.5 348.3,43.3 C349,41.6 349.1,41.6 350.1,43.4 C350.8,44.4 352.2,46.7 353.4,48.4 C359.1,57.1 370.2,88 373.3,104.2 C373.5,105.1 374.3,108.5 375.2,111.7 C377.1,118.9 380.2,138.4 382.8,159.5 C383.9,168.3 385,177.1 385.3,179 C385.5,181 386.4,184.5 387.3,186.9 C388.1,189.3 388.8,191.9 388.8,192.8 C388.8,195.8 393.1,206 394.1,205.3 C394.7,204.9 394.8,205.2 394.4,205.9 C393.4,207.5 395.7,213.2 397.1,212.3 C397.6,212 397.8,212.1 397.5,212.7 C396,215 406.1,227 409.5,227 C410,227 411.3,227.7 412.4,228.5 C414.2,229.9 414.2,229.9 411.7,230 C410.3,230 407.2,228.7 405,227 Z" id="Shape" fill="#00AEED"></path>
                <path d="M413.3,226.6 C407.1,223.7 401.4,216.6 396,204.8 C389.7,191.2 387.1,179.9 382.8,147 C378.3,113.3 371,83.7 361.5,61 C356.8,49.8 353.9,43.9 352.2,42.2 C350.6,40.7 350.3,37 351.7,37 C352.6,37 358.8,45.5 358.8,46.6 C358.8,46.9 359.7,48.4 360.7,49.9 C362.5,52.4 369.8,69.6 372,76.5 C375.2,86.6 383.5,120.5 384.2,126.3 C387.7,156 392.4,185 395.1,193.5 C399,205.9 400.8,209.6 402,207.9 C402.7,206.9 402.8,207.1 402.3,208.8 C401.6,211.2 405.3,217.4 406.9,216.5 C407.4,216.1 407.5,216.5 407.2,217.3 C406.5,219.2 413.1,224.9 416.9,225.7 C418.5,226 419.5,226.6 419.2,227.1 C418.5,228.3 416.8,228.2 413.3,226.6 Z" id="Shape" fill="#00AEED"></path>
                <path d="M419.1,224.5 C414,222.3 408.3,215.6 403.5,206.2 C395.6,190.7 393,180.7 388.8,147.8 C386.9,132.9 381.6,104.7 378.3,92.2 C376.5,85 370.2,65.8 368,60.5 C365.4,54.2 358.1,40.4 355.8,37.1 C353.7,34.4 353.7,32 355.8,32 C357.1,32 365.6,45.4 368.8,52.5 C372.5,60.5 377,72.8 379.8,82 C381,86.1 382.2,90.2 382.5,91 C382.7,91.8 383.3,94.3 383.8,96.5 C384.3,98.7 385.3,103.2 386.2,106.5 C388.4,115.5 391.8,137.2 393.7,155.5 C395.8,174.7 401.3,198.1 404.7,202.4 C405.2,203 405.9,204.6 406.3,206 C408.2,212.3 416.1,221.3 421.6,223.2 C423.3,223.9 424.8,224.8 424.8,225.2 C424.8,226.4 422.8,226.1 419.1,224.5 Z" id="Shape" fill="#00AEED"></path>
                <path d="M423.7,222 C421.7,221 418.7,218.4 416.9,216.3 C415.2,214.2 412.9,211.5 411.8,210.3 C410.6,209 409.9,208 410.2,208 C410.5,208 409.2,204.7 407.4,200.8 C404.1,193.5 401,184.5 399,176 C398,171.8 397.4,167.3 394.7,146.8 C393.2,134.4 389.8,113.9 388.8,110.5 C388.3,108.9 386.9,103.2 385.7,98 C380.1,73.4 371.2,50.3 361.6,35.7 C357.9,30 356.9,27 358.7,27 C359.6,27 367.8,37.4 367.8,38.6 C367.8,39 368.4,40.1 369.2,40.9 C372.6,44.7 379.8,62 385,79 C387.7,87.8 392.8,107.7 393.3,111.9 C393.6,113.7 394,115.5 394.2,115.9 C394.5,116.2 394.9,118.6 395.3,121 C395.6,123.5 396.1,126.2 396.3,127 C396.7,128.6 398.6,145.1 399.3,154 C399.8,159.3 400.3,162.8 401.3,168 C401.6,169.4 402.3,173.2 402.8,176.5 C404.9,188.3 411.7,205.9 416.3,211.5 C417.2,212.6 417.6,212.9 417.2,212.1 C416.7,211.2 416.9,210.9 417.7,211.4 C418.3,211.8 418.6,212.6 418.2,213.1 C417.4,214.4 421.9,218.5 426.9,221 C429,222.1 430.8,223.3 430.8,223.5 C430.8,224.6 427.1,223.8 423.7,222 Z" id="Shape" fill="#00AEED"></path>
                <path d="M430.3,220.6 C428.7,219.8 426.3,218.3 425.2,217.2 C424,216 422.7,215.4 422.2,215.8 C422.5,214.8 421.8,213.2 420.5,211.8 C419.3,210.5 417.7,208.1 417,206.5 C416,204.5 415.4,204 414.9,204.9 C414.3,205.9 413.9,205.8 413.5,204.5 C413.1,203.6 413.2,203.2 413.8,203.5 C415.3,204.4 415,203.2 412.9,199.1 C408.4,190.7 403.5,171 401.4,153 C396.8,113.9 388.8,79.7 378.3,54.5 C375,46.4 368.4,34.5 366.5,32.8 C365.4,31.8 364.8,31 365.2,31 C365.6,31 364.7,29.8 363.3,28.3 C360.7,25.4 360,23 361.9,23 C363.2,23 364.3,24.1 368.8,30 C370.7,32.5 372.8,35.1 373.5,35.8 C374.2,36.5 374.8,37.6 374.8,38.1 C374.8,38.6 375.8,40.7 377.1,42.8 C383,52.3 389,69.2 395.4,95 C399.8,112.1 400.3,115.3 406.2,161.4 C407.1,167.9 408.2,173.8 408.8,174.5 C409.3,175.1 409.5,175.9 409.2,176.3 C408.7,176.8 410.9,186.1 412.5,190 C412.8,190.8 413.2,192 413.3,192.6 C414,195.7 419.3,205.8 420,205.4 C420.4,205.1 420.5,205.5 420.3,206.3 C419.5,208.1 426.7,216.1 431.2,218.5 C436.7,221.5 436,223.1 430.3,220.6 Z" id="Shape" fill="#00AEED"></path>
                <path d="M435.8,218.7 C434.4,218.1 432.7,216.7 431.9,215.7 C431.2,214.7 429.9,214.1 429.1,214.4 C428.3,214.7 428,214.5 428.3,214 C428.7,213.4 427.6,211.3 426,209.2 C424.4,207.2 422.3,204 421.4,202.2 C420.5,200.4 419.3,199.2 418.8,199.5 C418.2,199.8 418.1,199.4 418.4,198.6 C418.7,197.8 418.3,195.8 417.4,194.3 C413.1,186.3 409.6,171 406.3,145.1 C401.4,107.1 391.9,68.6 382.8,49.9 C374.3,32.6 373.8,31.7 367.1,24.1 C365.3,22.1 363.8,20.2 363.8,19.8 C363.8,17.7 367,19.4 370.5,23.3 C374.8,27.9 383.8,41.1 383.8,42.6 C383.8,43.1 385.1,46.1 386.7,49.2 C392,59.3 401.8,92.1 404.9,110 C407.4,123.9 409.7,140.4 410.7,150.5 C412.4,167.6 417.6,190.5 420.8,194.5 C421.2,195.1 421.8,196.6 422.1,198 C423,201.8 428.8,210.1 430,209.3 C430.7,209 430.8,209.2 430.4,209.8 C429.6,211.1 434.1,215.5 438,217.1 C440.8,218.3 441.8,220.1 439.6,219.9 C438.9,219.9 437.2,219.3 435.8,218.7 Z" id="Shape" fill="#00AEED"></path>
                <path d="M438,214.4 C434.8,211.9 426.6,201.7 426.9,200.5 C426.9,200.2 426.3,198.9 425.5,197.7 C421.1,191 414.8,167.4 412.9,150.5 C409.1,117.4 401.8,83.5 393.9,62 C392.8,59 391.2,54.5 390.3,52.2 C388.6,47.4 381.3,33.4 379.3,31 C378.6,30.2 377.9,28.9 377.7,28.3 C377.5,27.6 374.9,24.6 371.9,21.5 C367.5,17 366.9,15.9 368.3,15.4 C371.6,14.1 384.6,30.1 390.2,42.5 C391.7,45.8 393.5,49.6 394.2,51 C395,52.4 397.2,58.7 399.2,65 C401.2,71.3 403.1,77.2 403.5,78 C403.8,78.8 404.2,80.2 404.3,81 C404.5,81.8 405.9,88.1 407.6,95 C410.7,107.7 414.5,130.8 417.2,154.5 C418.8,167.6 423,186.6 424.8,188.4 C425.4,189 425.8,190 425.8,190.7 C425.8,192.9 432.1,205.2 433.5,205.7 C434.2,206 434.6,206.6 434.3,207 C433.6,208.2 442.5,215.8 445.1,216.3 C446.7,216.6 446.5,216.8 444.3,216.9 C442.4,216.9 440,216 438,214.4 Z" id="Shape" fill="#00AEED"></path>
                <path d="M447.5,214.9 C446.6,214.3 445.3,214.2 444.6,214.6 C444,215 443.8,214.9 444.2,214.2 C444.5,213.6 444,212.5 443,211.8 C442,211.1 439.9,208.8 438.4,206.8 C436.8,204.7 435.2,203.2 434.8,203.5 C434.4,203.8 434.1,203.4 434.1,202.7 C434.2,202.1 432.5,197.9 430.4,193.5 C425.3,183 421.2,168.4 419.3,154.1 C415.3,124 414.4,118.4 411.2,103 C407.5,85.6 402.8,68.5 398.3,56 C395,47.1 387.6,31.9 385.3,29.6 C384.4,28.7 383.9,28 384.3,28 C385,28 384.4,27.2 379.1,21.1 C377,18.7 374,15.9 372.4,14.9 C369.9,13.4 369.7,13 371.1,12.4 C373.3,11.6 377.2,14.1 382.6,19.9 C399.8,38.5 416.9,91.8 421.3,141 C422.3,151.9 425.5,170.4 427.8,178.9 C430.5,188.4 436.8,202.1 438.1,201.3 C438.7,201 438.8,201.2 438.4,201.9 C438,202.5 438.2,203.8 438.9,204.6 C439.9,205.8 440.3,205.8 441.1,204.8 C441.8,203.8 441.9,203.9 441.5,205.1 C440.9,207.1 446.6,213 449.1,213 C450,213 450.8,213.4 450.8,213.9 C450.8,215.5 449.4,215.9 447.5,214.9 Z" id="Shape" fill="#00AEED"></path>
                <path d="M452.3,212.4 C449.2,210.8 441.8,203.3 441.8,201.7 C441.8,201.3 441.4,201.2 440.8,201.5 C440.3,201.8 439.8,201.6 439.8,200.9 C439.8,200.2 438.2,196.4 436.3,192.3 C434.4,188.2 432.8,184.5 432.8,183.9 C432.8,183.3 432.5,183.1 432.1,183.3 C431.6,183.6 431.2,182.8 431.1,181.7 C431.1,180.5 429.9,175.2 428.5,170 C427.2,164.8 425.5,156.7 424.9,152 C424.3,147.3 422.9,136.8 421.7,128.7 C416.5,90.5 401.4,39.9 391.9,29.1 C390.7,27.8 389.8,26.2 389.8,25.5 C389.8,23.8 379.2,13.1 376.4,12 C373.4,10.9 372.9,9 375.6,9 C377.7,9 384.1,13.4 387.7,17.3 C389,18.8 390.5,19.7 390.9,19.4 C391.4,19.1 391.5,19.5 391.3,20.3 C391,21 392.1,23.3 393.8,25.4 C395.4,27.5 398.5,32.7 400.5,36.9 C402.6,41.1 404.6,44.7 404.9,45 C405.2,45.3 405.7,46.6 406.1,48 C406.4,49.4 407.9,54.1 409.5,58.5 C412.3,66.1 415.9,78.4 419.2,91.5 C421.4,100.2 425.5,125.3 427.3,141.5 C428.9,156.4 431,168.1 433.5,177 C438.1,193.5 447.6,208.6 455,211.2 C456.6,211.8 457.5,212.6 457.2,213.1 C456.5,214.3 455.8,214.2 452.3,212.4 Z" id="Shape" fill="#00AEED"></path>
                <path d="M452.6,206.2 C450.1,203.6 447.5,200.4 446.8,199.1 C446,197.5 445.4,197.1 444.8,197.9 C444.3,198.8 443.9,198.7 443.5,197.5 C443.1,196.6 443.2,196.2 443.8,196.5 C445.1,197.3 445.1,196.7 443.7,193.6 C443,192.2 442.1,191.3 441.5,191.7 C440.9,192 440.8,191.8 441.2,191.2 C441.8,190.3 440.1,185.3 438.8,184 C438.5,183.7 438.2,183.1 438.2,182.5 C438.1,182 437.1,178.6 436,175 C433.5,166.9 431.2,155.2 429.8,143.5 C426.4,115.1 420,84.1 413.2,63 C410.8,55.6 408.4,48.6 407.9,47.5 C396.8,23.1 390.6,14.5 380.3,9.1 L376.3,7 L379.6,7 C387.6,7 397.9,18.3 407.7,37.8 C410.8,43.8 417.1,61.5 420.8,74.3 C426.6,94.5 429.7,111.6 434.3,149.8 C437.9,179.4 447.1,200.9 459.8,209.2 L462.3,210.9 L459.8,210.9 C458.1,210.9 455.7,209.3 452.6,206.2 Z" id="Shape" fill="#00AEED"></path>
                <path d="M461.6,207.1 C459.5,205.7 456.9,203.3 455.8,201.7 C454.6,200.2 453.3,199.2 452.8,199.5 C452.3,199.8 451.6,199.5 451.2,198.9 C450.8,198.1 450.9,198 451.6,198.4 C453.5,199.6 453,197.7 450.3,193.8 C448.9,191.8 447.8,189.6 447.8,189 C447.8,188.4 447.3,188.2 446.6,188.6 C445.9,189 445.8,188.9 446.2,188.2 C446.6,187.6 446,184.9 444.9,182.3 C441.4,174.2 437.1,155.2 435.4,141 C433.3,123.8 430.3,105.4 427.2,92 C422.8,72.4 414.5,45.7 411.7,42.3 C411.1,41.6 410.8,41 411.2,41 C411.5,41 409.4,36.4 406.5,30.9 C400.8,19.8 393.1,10.8 386.3,7.2 C382.3,5.1 382.3,5.1 385.2,5 C387.9,5 397.8,10.4 397.8,11.9 C397.8,12.2 399.4,14.2 401.3,16.3 C403.2,18.4 405.5,21.6 406.4,23.3 C407.3,25.1 408.8,27.4 409.7,28.6 C411.1,30.3 417.9,45.8 420.8,53.5 C422.8,59.1 428.9,80.8 431.2,90.8 C433.5,100.7 437.8,126.8 437.8,130.6 C437.8,132.3 438.1,133.9 438.4,134.2 C438.7,134.5 439.1,138.1 439.3,142.1 C440.2,157.5 448.3,189.1 450.9,187.4 C451.4,187.1 451.5,187.6 451.2,188.4 C450.1,191.4 458.7,202.4 465.8,207.1 C467.6,208.3 467.8,208.8 466.7,209.2 C465.9,209.5 463.6,208.6 461.6,207.1 Z" id="Shape" fill="#00AEED"></path>
                <path d="M470.8,204.9 C469.4,204.3 466.4,202 464,199.7 C461.6,197.4 460,196.2 460.3,197.1 C460.7,198.1 460.5,199 460,199.4 C459.5,199.7 459.2,198.9 459.3,197.8 C459.4,196.6 458.8,194.3 458,192.8 C456.8,190.3 456.4,190.1 455,191.2 C453.7,192.3 453.6,192.3 454.5,190.7 C455.3,189.2 454.5,186.5 451.2,178.4 C448.8,172.7 447.1,168 447.3,168 C447.4,168 447,165.6 446.2,162.6 C444.8,157.4 444.7,147 445.9,147 C446.3,147 446.9,146.3 447.2,145.4 C447.6,144.4 447.4,144.1 446.5,144.6 C445.9,145 446.2,144.3 447.3,143.1 C448.9,141.2 449,140.7 447.8,139.8 C446.5,139 446.6,138.9 447.9,139.3 C448.9,139.6 450.7,138.7 452.3,137 C454.2,135 457.9,133.3 465.2,131 C470.7,129.3 476.4,127.4 477.8,126.8 C479.2,126.3 481.2,125.6 482.3,125.4 C483.4,125.2 487.5,124.1 491.3,122.9 C502.5,119.5 518.9,115.1 523.9,114.2 C527.3,113.5 528.5,113.6 528.5,114.6 C528.5,115.3 528,115.6 527.3,115.4 C525.7,114.7 517.5,121.2 515.8,124.6 C515,126.2 514.1,127.7 513.8,128 C512,129.7 507.3,142.7 504.3,154.6 C502.3,162.2 500.1,170.5 499.4,173 C497.6,179 490.8,195.4 489.8,196 C489.4,196.3 487.9,198.3 486.4,200.4 C485,202.5 483.8,204 483.8,203.6 C483.8,203.2 482.8,203.6 481.6,204.4 C479.1,206.2 474.6,206.4 470.8,204.9 Z" id="Shape" fill="#05377E"></path>
                <path d="M1423.2,147.1 C1423,146.9 1422.8,136.4 1422.8,123.8 C1422.8,104.3 1422.6,101.1 1421.4,102.2 C1405.5,117.3 1378,116.4 1362.7,100.3 C1352.2,89.2 1347.8,77 1347.8,58.7 C1347.8,46.3 1349.3,39 1353.4,30.9 C1360.1,17.5 1371.9,9.2 1388.5,6.3 C1397,4.8 1398,4.8 1404.9,6.5 C1409,7.4 1413.2,8.6 1414.3,9 C1415.4,9.4 1416.7,9.8 1417.2,9.8 C1417.7,9.8 1418.4,10.2 1418.7,10.7 C1419.5,11.9 1424.1,15 1425,15 C1425.5,15 1425.8,14.1 1425.8,13.1 C1425.8,8.1 1426,8 1442.4,8 L1457.8,8 L1457.8,77.8 L1457.8,147.5 L1440.7,147.5 C1431.3,147.5 1423.4,147.3 1423.2,147.1 Z M1413.8,82.4 C1415.8,81.1 1418.1,78.8 1419,77.2 C1421,73.8 1422.8,63.8 1422.8,55.9 C1422.8,49.8 1420.1,39.7 1418.7,40.6 C1418.2,40.9 1417.8,40.7 1417.8,40.2 C1417.8,38.9 1414.8,35.8 1411.8,33.9 C1405.8,30 1396,30.8 1390.6,35.5 C1379.8,44.9 1379.7,72.2 1390.5,81 C1397.2,86.4 1406.8,87 1413.8,82.4 Z" id="Shape" fill="#00AEED"></path>
                <path d="M1168.6,95.3 C1168.4,31.4 1168.5,29.9 1170.9,22.3 C1173.2,15.2 1177.1,10.8 1183.8,7.7 C1189.4,5.2 1205.6,4.7 1213.1,6.9 L1217.9,8.3 L1217.6,20.4 L1217.3,32.5 L1212.4,33 C1208.5,33.4 1207.1,34.1 1205.4,36.3 C1203.3,39.1 1203.3,39.9 1203.3,93.1 L1203.3,147 L1186.1,147 L1168.8,147 L1168.6,95.3 Z" id="Shape" fill="#00AEED"></path>
                <path d="M965.3,143.6 C945.9,139.4 935.8,129.9 932.8,113.2 C930.8,102.1 934.3,87.6 940.5,81.1 C946.6,74.8 964.7,64.3 980.3,58.2 C986.1,56 992.6,51.3 993.3,48.9 C996.9,37.6 979.6,35.8 951.8,44.5 C947.1,46 941.9,47.4 940.3,47.7 C937.4,48.1 937.2,48 937,44.4 C936.8,42.4 936.5,40.3 936.2,39.8 C935.9,39.3 935,35.2 934.3,30.7 C933.5,26.2 932.6,20.9 932.2,18.9 C931.6,15.5 931.7,15.3 935.7,14 C937.9,13.3 939.6,12.4 939.4,12.1 C939.2,11.8 940,11.5 941.1,11.4 C942.3,11.3 946.9,10.4 951.3,9.2 C962.2,6.4 977.5,4.7 985.6,5.5 C999.1,6.8 1012.1,10.7 1016.9,15 C1017.8,15.8 1019.5,17.2 1020.6,18 C1021.8,18.9 1024.3,22.2 1026.2,25.4 C1033.1,36.8 1033.5,53.8 1027.1,65.8 C1025.2,69.4 1022.5,73.2 1021.2,74.2 C1019.9,75.3 1018.2,76.7 1017.5,77.4 C1013.3,81.4 995.9,91 992.7,91 C991.7,91 990.7,91.4 990.4,91.9 C990.1,92.3 986.9,93.6 983.3,94.6 C979.7,95.6 976.8,96.8 976.8,97.1 C976.8,97.5 975.6,98.1 974.2,98.4 C972.8,98.8 970.5,100.1 969.1,101.4 C965.5,104.7 966.5,108.3 971.8,111 C979,114.7 991,113.7 1007.3,108.1 C1010.6,107 1013.8,106 1014.4,106 C1015.1,106 1016,109.6 1016.7,114.8 C1017.3,119.6 1018,124.4 1018.2,125.5 C1018.4,126.6 1018.9,129.9 1019.3,132.8 L1020,138 L1016.9,138.6 C1015.2,139 1014,139.6 1014.3,140 C1014.5,140.3 1013.5,140.7 1012,140.7 C1010.5,140.8 1006.2,141.6 1002.3,142.5 C993,144.7 973.1,145.3 965.3,143.6 Z" id="Shape" fill="#00AEED"></path>
                <path d="M691.8,112.4 C687.1,111.7 682.7,111.1 682,111 C681.3,111 681,110.6 681.3,110 C681.6,109.5 681.2,109 680.3,109 C678.4,109 671,105.4 668.6,103.3 C667.7,102.5 666.4,102.1 665.6,102.6 C664.9,103 664.6,103 665,102.5 C665.5,102 663.3,99.1 660.3,96 C655.4,90.8 652.6,86.1 648.6,76 C646.4,70.6 646.3,51.8 648.4,44.5 C649.3,41.2 650.1,37.4 650,36.1 C650,34.7 650.3,34.2 650.7,34.9 C651.2,35.6 652.1,34.7 653.2,32.3 C657.1,23.5 667.6,14.7 680.4,9.4 C689.1,5.8 689.5,5.7 703.3,5.6 C713.5,5.6 719.3,6 724.8,7.4 C733.5,9.4 744.1,13.5 748.1,16.2 L750.8,18.1 L750.8,30.6 L750.8,43.1 L748.6,42.4 C747.3,42 746.1,41.4 745.8,40.9 C744.7,39.3 727,34.9 717.8,34 C701.2,32.4 689.4,36.1 685.3,44.1 C684.4,45.7 684.1,47 684.5,47 C685,47 701.3,47 720.9,47 L756.6,47 L757.2,49.2 C758.2,53.3 757.8,66.3 756.4,73.1 C753.6,86 745.5,98 735,104.7 C728.4,109 723.5,110.7 713.3,112.5 C703.9,114.2 702.9,114.2 691.8,112.4 Z M712.6,82.5 C717,80.7 720.6,76.5 721.4,72 L722.1,69 L703,69 L683.9,69 L684.8,72 C687.7,82.1 701,87.1 712.6,82.5 Z" id="Shape" fill="#05377E"></path>
                <path d="M824.7,112.6 C821.6,111.9 817.2,110.3 814.9,109.1 C810.6,106.9 808.8,107 808.8,109.5 C808.8,110.6 805.3,110.9 791.3,111 L773.8,111.1 L773.8,108.8 C773.7,107.5 773.7,84.5 773.7,57.5 L773.6,8.5 L791,8.5 L808.3,8.5 L808.6,45.3 L808.8,82.1 L813.1,84 C821.5,87.9 830.9,85.7 834.6,79.1 C836.7,75.3 836.8,74.2 836.8,41.6 L836.8,8 L854.3,8.2 L871.9,8.5 L871.8,45.7 C871.8,66.2 871.3,85.1 870.8,87.8 C868.7,99.1 860.5,108.1 849.6,111.2 C841.1,113.6 831.5,114.2 824.7,112.6 Z" id="Shape" fill="#05377E"></path>
                <path d="M1079.8,112 C1078.4,111.6 1074.6,110.7 1071.3,110 C1064.9,108.6 1053,103 1050.4,100.1 C1048.9,98.5 1049,97.3 1050.9,85.9 C1052,79.1 1053.1,73.4 1053.3,73.2 C1053.4,73 1055.5,74.2 1057.9,75.8 C1075,87.3 1099.5,90.1 1107.7,81.5 C1110.9,78.1 1112.6,74 1110.8,74 C1110.1,74 1109.8,73.4 1110.1,72.6 C1110.6,71.4 1109.9,71.4 1105.8,72.5 C1085.4,77.9 1063.8,72.6 1050.9,59 C1038.1,45.5 1039.5,21.8 1053.5,12.6 C1062.5,6.8 1079.5,3.8 1091.8,5.9 C1099.8,7.3 1103.1,8.6 1108.4,12.1 L1112.5,14.9 L1113.5,11.7 L1114.4,8.5 L1129.6,8.2 C1141.4,8 1144.8,8.2 1144.9,9.2 C1144.9,9.9 1144.9,26.7 1144.8,46.4 C1144.7,79.4 1144.5,82.7 1142.7,87.6 C1138.6,98.4 1130,106.2 1118.3,109.8 C1108.2,112.8 1086.2,114.1 1079.8,112 Z M1110.6,51.2 C1111.2,50.3 1111.4,43.4 1110.9,39.8 C1110.8,39.4 1109.4,37.5 1107.8,35.6 C1105.7,33.3 1102.9,31.6 1099.2,30.4 C1094,28.8 1093.3,28.8 1088.3,30.4 C1083.9,31.7 1082.7,32.7 1081.3,35.6 C1077.9,42.7 1082.1,48.3 1093.3,51.7 C1098.1,53.2 1109.7,52.9 1110.6,51.2 Z" id="Shape" fill="#00AEED"></path>
                <path d="M1233.3,110 C1233.1,109.7 1233,91.7 1233.1,70 C1233.3,34.9 1233.5,30 1235.1,25.9 C1238.7,16.6 1246.9,9.9 1257.8,7.2 C1269.7,4.3 1282.3,4.9 1289.7,8.6 C1291.4,9.4 1293.3,9.8 1293.9,9.4 C1294.6,9 1294.8,9.1 1294.5,9.7 C1294.1,10.3 1294.5,11 1295.3,11.4 C1296.3,11.8 1296.8,11.3 1296.8,9.9 C1296.8,8 1297.4,8 1313.8,8.2 L1330.8,8.5 L1331,59.5 L1331.1,110.5 L1313.7,110.5 L1296.3,110.5 L1296.5,73.2 L1296.6,35.8 L1292.1,33.8 C1283.1,29.8 1272.4,33 1269.2,40.6 C1267.3,45.2 1267.1,108 1269.1,108 C1269.8,108 1269.6,108.5 1268.6,109 C1266.9,110 1233.9,110.9 1233.3,110 Z" id="Shape" fill="#00AEED"></path>
            </g>
        </g>
    </g>
</svg>