<?xml version="1.0" encoding="utf-8"?>
<!-- Generator: Adobe Illustrator 21.0.0, SVG Export Plug-In . SVG Version: 6.00 Build 0)  -->
<svg version="1.1" id="Capa_1" xmlns="http://www.w3.org/2000/svg" xmlns:xlink="http://www.w3.org/1999/xlink" x="0px" y="0px"
	 viewBox="0 0 860 210" style="enable-background:new 0 0 860 210;" xml:space="preserve">
<style type="text/css">
	.st0{fill:#FFFFFF;}
	.st1{fill:#002D43;}
	.st2{fill:#007F32;}
</style>
<g>
	<g>
		<path class="st0" d="M293.9,93.1l20.2,53.1h-13.2l-3.8-10.9h-17l-3.7,10.9h-13.2l20.2-53.1H293.9z M283.6,125.3h10l-5-14.4
			L283.6,125.3z"/>
		<path class="st0" d="M334.6,146.2h-12.3v-41H308v-11h40.9v11h-14.3V146.2z"/>
		<path class="st0" d="M384.7,126.8V94.1H397V127c0,11.5-4.7,20.2-22.1,20.2s-22.1-8.7-22.1-20.2V94.1h12.3v32.6
			c0,5.2,1,9.5,9.7,9.5S384.7,132,384.7,126.8z"/>
		<path class="st0" d="M433.9,130.2c-0.1-3.5-2.3-4.9-10.1-5.3c-10.6-0.5-20.6-2.1-20.9-14.4c-0.3-12.1,9.5-17.4,20.4-17.4
			c15.3,0,22.6,6.5,22.8,17.4l-12.5,1.5c-0.1-5.9-3.7-8.1-10.2-7.9c-3.6,0.1-8.1,1.4-8.1,6.1c0.1,3,1.8,3.5,9.1,4
			c14.2,0.8,21.6,2.9,21.8,15.7c0.2,12.5-10.7,17.3-21.8,17.3c-16.8,0-22.6-6.5-22.8-17.4l12.5-1.5c0.1,5.9,3.7,8.1,10.2,7.9
			C429.1,136.1,434,134.9,433.9,130.2z"/>
		<path class="st0" d="M489.2,94.1v11h-25.4v8.9h21.8v11h-21.8v10.1h26.8v11h-39.1V94.1H489.2z"/>
		<path class="st0" d="M508.4,146.2H496V94.1h23c9.4,0,19.6,2.7,19.6,17c0,9.1-4,13.5-9.3,15.5l11.9,19.5h-14.8l-10.1-17.9h-7.9
			V146.2z M520,117.2c2.6,0,6.1-0.5,6.1-6c0-5.5-3.5-6-6.1-6h-11.6v12H520z"/>
		<path class="st0" d="M560.2,147.3l-20.2-53.1h13.2l12.3,35.3l12.3-35.3h13.2l-20.2,53.1H560.2z"/>
		<path class="st0" d="M606.5,146.2h-12.3V94.1h12.3V146.2z"/>
		<path class="st0" d="M637,93.1c14.3,0,21.6,6.5,21.8,17.4l-12.5,1.5c-0.1-5.9-3.1-7.9-9.2-7.9c-9.6,0-11.1,7.7-11.1,16.1
			c0,8.4,1.5,16.1,11.1,16.1c6.1,0,9.1-2,9.2-7.9l12.5,1.5c-0.1,10.9-7.5,17.4-21.8,17.4c-17.2,0-23.6-10.9-23.6-27.1
			C613.4,103.9,619.8,93.1,637,93.1z"/>
		<path class="st0" d="M676.8,146.2h-12.3V94.1h12.3V146.2z"/>
		<path class="st0" d="M683.8,120.2c0-16.2,7-27.1,24.6-27.1c17.5,0,24.6,10.9,24.6,27.1c0,16.2-7,27.1-24.6,27.1
			C690.9,147.3,683.8,136.4,683.8,120.2z M696.3,120.2c0,8.4,2.2,16.1,12.1,16.1c9.9,0,12.1-7.7,12.1-16.1c0-8.4-2.2-16.1-12.1-16.1
			C698.5,104.1,696.3,111.8,696.3,120.2z"/>
	</g>
	<g>
		<path class="st0" d="M747.5,146.2H740v-7.4h7.5V146.2z"/>
		<path class="st0" d="M756.5,127.4V94.1h6.8v33.3c0,7.5,2.4,13.5,14.1,13.5c11.7,0,14.1-6,14.1-13.5V94.1h6.8v33.2
			c0,11.1-5,19.6-21,19.6C761.5,147,756.5,138.5,756.5,127.4z"/>
		<path class="st0" d="M827.6,118.8l5.9-9.4l9.9-15.3h7.7l-20.2,30.4v21.6h-6.7v-21.6L804,94.1h7.7l9.9,15.3L827.6,118.8z"/>
	</g>
	<polygon class="st0" points="48.3,115.6 18,115.6 17.9,115.6 17.9,203.5 75.5,203.5 	"/>
	<path class="st0" d="M199.2,65.1c-14.9,0-27.4-10.6-30.2-24.7h-67.7L89,203.5h124.4V61.6C209.1,63.8,204.3,65.1,199.2,65.1"/>
	<path class="st1" d="M144.2,107.9c0,4.2-4.8,7.5-10.7,7.5c-5.9,0-10.7-3.4-10.7-7.5V91.2c0-4.2,4.8-7.5,10.7-7.5
		c5.9,0,10.7,3.4,10.7,7.5V107.9z"/>
	<path class="st1" d="M193.2,107.9c0,4.2-4.8,7.5-10.7,7.5c-5.9,0-10.7-3.4-10.7-7.5V91.2c0-4.2,4.8-7.5,10.7-7.5
		c5.9,0,10.7,3.4,10.7,7.5V107.9z"/>
	<path class="st1" d="M144.2,169.7c0,4.1-4.8,7.5-10.7,7.5c-5.9,0-10.7-3.4-10.7-7.5V153c0-4.2,4.8-7.5,10.7-7.5
		c5.9,0,10.7,3.4,10.7,7.5V169.7z"/>
	<path class="st1" d="M193.2,169.7c0,4.1-4.8,7.5-10.7,7.5c-5.9,0-10.7-3.4-10.7-7.5V153c0-4.2,4.8-7.5,10.7-7.5
		c5.9,0,10.7,3.4,10.7,7.5V169.7z"/>
	<path class="st2" d="M211.4,29.7h-9.1V20c0-2.1-1.7-3.9-3.9-3.9c-2.1,0-3.9,1.7-3.9,3.9v9.7h-9.1c-2.1,0-3.9,1.7-3.9,3.9
		c0,2.1,1.7,3.9,3.9,3.9h9.1v8.5c0,2.1,1.7,3.9,3.9,3.9c2.1,0,3.9-1.7,3.9-3.9v-8.5h9.1c2.1,0,3.9-1.7,3.9-3.9
		C215.3,31.4,213.6,29.7,211.4,29.7"/>
	<path class="st2" d="M198.4,51.9c-3.3,0-6-2.7-6-6v-6.4h-7c-3.3,0-6-2.7-6-6c0-3.3,2.7-6,6-6h7V20c0-3.3,2.7-6,6-6s6,2.7,6,6v7.6h7
		c3.3,0,6,2.7,6,6c0,3.3-2.7,6-6,6h-7v6.4C204.4,49.2,201.7,51.9,198.4,51.9 M185.5,31.8c-1,0-1.7,0.8-1.7,1.7c0,1,0.8,1.7,1.7,1.7
		h11.2v10.6c0,1,0.8,1.7,1.7,1.7c1,0,1.7-0.8,1.7-1.7V35.3h11.2c1,0,1.7-0.8,1.7-1.7c0-1-0.8-1.7-1.7-1.7h-11.2V20
		c0-1-0.8-1.7-1.7-1.7c-1,0-1.7,0.8-1.7,1.7v11.8H185.5z"/>
	<path class="st2" d="M43.1,8.1c-13.9,0-25.2,12.8-25.2,28.6v66.5l0.1,0h35c2.7,0,5.1,1.8,6,4.4l16.7,54.1h0c0.4,0.8,1.2,1.7,2,1.7
		c1.1,0,1.9-0.8,1.9-1.7l0-0.1l9.7-127.9c0.2-3.3,3-5.8,6.2-5.8H169c1.8-8.3,6.9-15.4,13.9-19.8H43.1z"/>
</g>
</svg>
