<svg id="Capa_1" data-name="Capa 1" xmlns="http://www.w3.org/2000/svg" viewBox="0 0 1276.5 261.45"><defs><style>.cls-1{fill:#f9ca07;}.cls-2{fill:#fff;}.cls-3{fill:#007f32;}.cls-4,.cls-5{fill:#002a4c;}.cls-5{stroke:#002a4c;stroke-miterlimit:10;}</style></defs><title>fondo claro vertical</title><polygon class="cls-1" points="40.14 141.89 0.08 141.89 0 141.88 0 257.79 76.03 257.79 40.14 141.89"/><path class="cls-1" d="M239.17,75.21A40.76,40.76,0,0,1,199.3,42.6H110L93.75,257.79H257.8V70.65a40.5,40.5,0,0,1-18.63,4.55"/><path class="cls-2" d="M166.67,131.63c0,5.48-6.34,9.92-14.17,9.92s-14.17-4.44-14.17-9.92v-22c0-5.48,6.35-9.92,14.17-9.92s14.17,4.44,14.17,9.92Z"/><path class="cls-2" d="M231.24,131.63c0,5.48-6.35,9.92-14.18,9.92s-14.17-4.44-14.17-9.92v-22c0-5.48,6.35-9.92,14.17-9.92s14.18,4.44,14.18,9.92Z"/><path class="cls-2" d="M166.67,213.17c0,5.47-6.34,9.91-14.17,9.91s-14.17-4.44-14.17-9.91v-22c0-5.47,6.35-9.91,14.17-9.91s14.17,4.44,14.17,9.91Z"/><path class="cls-2" d="M231.24,213.17c0,5.47-6.35,9.91-14.18,9.91s-14.17-4.44-14.17-9.91v-22c0-5.47,6.35-9.91,14.17-9.91s14.18,4.44,14.18,9.91Z"/><path class="cls-3" d="M253.16,30.09H241.11V17.25a5.08,5.08,0,1,0-10.17,0V30.09h-12a5.08,5.08,0,1,0,0,10.17h12V51.5a5.08,5.08,0,1,0,10.17,0V40.26h12.05a5.08,5.08,0,0,0,0-10.17"/><path class="cls-4" d="M236,59.75a8.26,8.26,0,0,1-8.25-8.25V43.43H218.9a8.25,8.25,0,1,1,0-16.5h8.87V17.25a8.25,8.25,0,1,1,16.5,0v9.68h8.89a8.25,8.25,0,0,1,0,16.5h-8.89V51.5A8.26,8.26,0,0,1,236,59.75"/><path class="cls-4" d="M33.27,0C14.89,0,0,16.9,0,37.74v87.7H46.22a8.2,8.2,0,0,1,7.84,5.79l22.09,71.33h0c.5,1.09,1.64,2.25,2.7,2.25a2.41,2.41,0,0,0,2.56-2.21l0-.11L94.17,33.75a8.22,8.22,0,0,1,8.2-7.61h97A40.8,40.8,0,0,1,217.73,0Z"/><path class="cls-4" d="M1086.57,249.65h-12.49V237.27h12.49Z"/><path class="cls-4" d="M328.45,160.9l33.79,88.75H340.16l-6.36-18.17H305.37l-6.24,18.17H277.05l33.79-88.75Zm-17.17,53.85H328l-8.36-24.08Z"/><path class="cls-4" d="M396.69,249.65H376.07V181.08H352.21V162.69h68.35v18.39H396.69Z"/><path class="cls-4" d="M480.34,217.21V162.69H501v55c0,19.29-7.91,33.79-36.91,33.79s-36.9-14.49-36.9-33.79v-55h20.62v54.52c0,8.69,1.67,15.94,16.28,15.94S480.34,225.9,480.34,217.21Z"/><path class="cls-4" d="M562.63,223c-.11-5.91-3.9-8.25-16.94-8.91-17.73-.79-34.46-3.46-34.9-24.09-.44-20.18,15.84-29.1,34.12-29.1,25.53,0,37.79,10.93,38,29.1l-21,2.56c-.22-9.92-6.14-13.49-17.06-13.27-6,.11-13.61,2.34-13.49,10.26.11,5,3,5.91,15.16,6.69,23.74,1.34,36.12,4.91,36.46,26.31.34,20.85-18,28.88-36.46,28.88-28.1,0-37.8-10.93-38-29.1l21-2.56c.23,9.92,6.14,13.6,17.06,13.26C554.61,232.82,562.75,230.81,562.63,223Z"/><path class="cls-4" d="M655.08,162.69v18.39H612.6V196h36.46v18.39H612.6v16.84h44.71v18.4H592v-87Z"/><path class="cls-4" d="M687.1,249.65H666.48v-87h38.46c15.72,0,32.78,4.46,32.78,28.43,0,15.28-6.69,22.64-15.61,26L742,249.65H717.21l-16.95-30H687.1Zm19.4-48.5c4.35,0,10.26-.78,10.26-10s-5.91-10-10.26-10H687.1v20.07Z"/><path class="cls-4" d="M773.64,251.44l-33.79-88.75h22.08l20.51,59,20.51-59H825l-33.78,88.75Z"/><path class="cls-4" d="M851,249.65H830.4v-87H851Z"/><path class="cls-4" d="M902,160.9c23.86,0,36.13,10.93,36.35,29.1l-21,2.56c-.22-9.92-5.13-13.27-15.39-13.27-16.06,0-18.51,12.83-18.51,26.87S885.94,233,902,233c10.26,0,15.17-3.34,15.39-13.26l21,2.56c-.22,18.17-12.49,29.1-36.35,29.1-28.66,0-39.36-18.18-39.36-45.27S873.34,160.9,902,160.9Z"/><path class="cls-4" d="M968.57,249.65H947.94v-87h20.63Z"/><path class="cls-4" d="M980.29,206.17c0-27.09,11.71-45.26,41-45.26s41,18.17,41,45.26-11.71,45.27-41,45.27S980.29,233.26,980.29,206.17Zm20.85,0c0,14.05,3.68,26.87,20.18,26.87s20.18-12.82,20.18-26.87-3.68-26.87-20.18-26.87S1001.14,192.12,1001.14,206.17Z"/><path class="cls-5" d="M1172.34,249.24c-4.4,2.2-13.21,4.4-24.49,4.4-26.14,0-45.82-16.51-45.82-46.92,0-29,19.67-48.71,48.43-48.71,11.56,0,18.85,2.48,22,4.13l-2.89,9.77a43.59,43.59,0,0,0-18.71-3.85c-21.74,0-36.19,13.9-36.19,38.25,0,22.7,13.07,37.29,35.64,37.29,7.29,0,14.72-1.51,19.54-3.85Z"/><path class="cls-5" d="M1263.7,204.94c0,31.92-19.4,48.84-43.07,48.84-24.49,0-41.69-19-41.69-47.06,0-29.44,18.3-48.71,43.07-48.71C1247.32,158,1263.7,177.42,1263.7,204.94Zm-72,1.51c0,19.81,10.73,37.56,29.58,37.56S1251,226.54,1251,205.49c0-18.44-9.63-37.7-29.58-37.7S1191.74,186.09,1191.74,206.45Z"/></svg>