<svg xmlns="http://www.w3.org/2000/svg" viewBox="0 0 146.97 29.98"><defs><style>.cls-1{fill:#3fa6c9;}.cls-2{fill:#fff;}.cls-3{fill:#304454;}</style></defs><title>Asset 2</title><g id="Layer_2" data-name="Layer 2"><g id="Layer_1-2" data-name="Layer 1"><polygon class="cls-1" points="4.67 16.5 0.01 16.5 0 16.5 0 29.98 8.84 29.98 4.67 16.5"/><path class="cls-1" d="M27.82,8.75A4.74,4.74,0,0,1,23.18,5H12.79L10.9,30H30V8.22a4.71,4.71,0,0,1-2.17.53"/><path class="cls-2" d="M19.38,15.31c0,.64-.74,1.15-1.65,1.15s-1.65-.52-1.65-1.15V12.75c0-.64.74-1.15,1.65-1.15s1.65.52,1.65,1.15Z"/><path class="cls-2" d="M26.89,15.31c0,.64-.74,1.15-1.65,1.15s-1.65-.52-1.65-1.15V12.75c0-.64.74-1.15,1.65-1.15s1.65.52,1.65,1.15Z"/><path class="cls-2" d="M19.38,24.79c0,.64-.74,1.15-1.65,1.15s-1.65-.52-1.65-1.15V22.23c0-.64.74-1.15,1.65-1.15s1.65.52,1.65,1.15Z"/><path class="cls-2" d="M26.89,24.79c0,.64-.74,1.15-1.65,1.15s-1.65-.52-1.65-1.15V22.23c0-.64.74-1.15,1.65-1.15s1.65.52,1.65,1.15Z"/><path d="M29.44,3.5H28V2a.59.59,0,0,0-1.18,0V3.5h-1.4a.59.59,0,1,0,0,1.18h1.4V6A.59.59,0,0,0,28,6V4.68h1.4a.59.59,0,0,0,0-1.18"/><path class="cls-1" d="M27.45,6.95a1,1,0,0,1-1-1V5.05h-1a1,1,0,0,1,0-1.92h1V2a1,1,0,1,1,1.92,0V3.13h1a1,1,0,0,1,0,1.92h-1V6a1,1,0,0,1-1,1h0"/><path class="cls-3" d="M3.87,0A4.15,4.15,0,0,0,0,4.39v10.2H5.38a1,1,0,0,1,.91.67l2.57,8.3h0c.06.13.19.26.31.26a.28.28,0,0,0,.3-.26h0L11,3.93a1,1,0,0,1,1-.89H23.19a4.74,4.74,0,0,1,2.14-3Z"/><path class="cls-3" d="M126.37,29h-1.45V27.6h1.45Z"/><path class="cls-3" d="M38.2,18.71,42.13,29H39.56l-.74-2.11H35.52L34.79,29H32.22l3.93-10.32ZM36.2,25h1.94l-1-2.8Z"/><path class="cls-3" d="M46.14,29h-2.4v-8H41V18.92h7.95v2.14H46.14Z"/><path class="cls-3" d="M55.87,25.26V18.92h2.4v6.4c0,2.24-.92,3.93-4.29,3.93s-4.29-1.69-4.29-3.93v-6.4h2.4v6.34c0,1,.19,1.85,1.89,1.85S55.87,26.27,55.87,25.26Z"/><path class="cls-3" d="M65.44,25.94c0-.69-.45-1-2-1-2.06-.09-4-.4-4.06-2.8s1.84-3.38,4-3.38c3,0,4.39,1.27,4.42,3.38l-2.44.3c0-1.15-.71-1.57-2-1.54-.7,0-1.58.27-1.57,1.19,0,.58.35.69,1.76.78,2.76.16,4.2.57,4.24,3.06s-2.09,3.36-4.24,3.36c-3.27,0-4.4-1.27-4.42-3.38l2.44-.3c0,1.15.71,1.58,2,1.54C64.5,27.08,65.45,26.84,65.44,25.94Z"/><path class="cls-3" d="M76.19,18.92v2.14H71.25V22.8h4.24v2.14H71.25v2h5.2V29h-7.6V18.92Z"/><path class="cls-3" d="M79.91,29h-2.4V18.92H82c1.83,0,3.81.52,3.81,3.31a2.85,2.85,0,0,1-1.81,3L86.3,29H83.42l-2-3.49H79.91Zm2.26-5.64c.51,0,1.19-.09,1.19-1.16s-.69-1.16-1.19-1.16H79.91V23.4Z"/><path class="cls-3" d="M90,29.24,86,18.92h2.57L91,25.78l2.39-6.86H96L92,29.24Z"/><path class="cls-3" d="M99,29h-2.4V18.92H99Z"/><path class="cls-3" d="M104.91,18.71c2.78,0,4.2,1.27,4.23,3.38l-2.44.3c0-1.15-.6-1.54-1.79-1.54-1.87,0-2.15,1.49-2.15,3.13s.29,3.12,2.16,3.12c1.19,0,1.76-.39,1.79-1.54l2.44.3c0,2.11-1.45,3.38-4.23,3.38-3.33,0-4.58-2.12-4.58-5.26S101.57,18.71,104.91,18.71Z"/><path class="cls-3" d="M112.65,29h-2.4V18.92h2.4Z"/><path class="cls-3" d="M114,24c0-3.15,1.36-5.27,4.77-5.27s4.77,2.11,4.77,5.27-1.36,5.26-4.77,5.26S114,27.13,114,24Zm2.42,0c0,1.63.43,3.12,2.35,3.12s2.35-1.49,2.35-3.12-.43-3.13-2.35-3.13S116.44,22.34,116.44,24Z"/><path class="cls-3" d="M136.35,29a6.9,6.9,0,0,1-2.85.51c-3,0-5.33-1.92-5.33-5.46a5.37,5.37,0,0,1,5.63-5.66,5.77,5.77,0,0,1,2.56.48L136,20a5,5,0,0,0-2.18-.45c-2.53,0-4.21,1.62-4.21,4.45,0,2.64,1.52,4.34,4.14,4.34a5.57,5.57,0,0,0,2.27-.45Z"/><path class="cls-3" d="M147,23.84c0,3.71-2.26,5.68-5,5.68s-4.85-2.21-4.85-5.47c0-3.42,2.13-5.66,5-5.66S147,20.63,147,23.84ZM138.6,24c0,2.3,1.25,4.37,3.44,4.37s3.46-2,3.46-4.48c0-2.14-1.12-4.38-3.44-4.38s-3.45,2.13-3.45,4.5Z"/></g></g></svg>