<svg id="Capa_1" data-name="Capa 1" xmlns="http://www.w3.org/2000/svg" viewBox="0 0 402.78 339.66"><defs><style>.cls-1{fill:#f9ca07;}.cls-2{fill:#fff;}.cls-3{fill:#007f32;}.cls-4,.cls-5{fill:#002a4c;}.cls-5{font-size:56px;stroke:#002a4c;stroke-miterlimit:10;font-family:MyriadPro-Regular, Myriad Pro;}.cls-6{letter-spacing:-0.02em;}</style></defs><title>fondo claro vertical</title><polygon class="cls-1" points="103.08 141.89 63.02 141.89 62.95 141.88 62.95 257.79 138.98 257.79 103.08 141.89"/><path class="cls-1" d="M302.12,75.21A40.76,40.76,0,0,1,262.24,42.6H173L156.7,257.79H320.75V70.65a40.5,40.5,0,0,1-18.63,4.55"/><path class="cls-2" d="M229.61,131.63c0,5.48-6.34,9.92-14.17,9.92s-14.17-4.44-14.17-9.92v-22c0-5.48,6.35-9.92,14.17-9.92s14.17,4.44,14.17,9.92Z"/><path class="cls-2" d="M294.19,131.63c0,5.48-6.35,9.92-14.18,9.92s-14.17-4.44-14.17-9.92v-22c0-5.48,6.35-9.92,14.17-9.92s14.18,4.44,14.18,9.92Z"/><path class="cls-2" d="M229.61,213.17c0,5.47-6.34,9.91-14.17,9.91s-14.17-4.44-14.17-9.91v-22c0-5.47,6.35-9.91,14.17-9.91s14.17,4.44,14.17,9.91Z"/><path class="cls-2" d="M294.19,213.17c0,5.47-6.35,9.91-14.18,9.91s-14.17-4.44-14.17-9.91v-22c0-5.47,6.35-9.91,14.17-9.91s14.18,4.44,14.18,9.91Z"/><path class="cls-3" d="M316.11,30.09H304.06V17.25a5.08,5.08,0,1,0-10.17,0V30.09h-12a5.08,5.08,0,1,0,0,10.17h12V51.5a5.08,5.08,0,1,0,10.17,0V40.26h12.05a5.08,5.08,0,0,0,0-10.17"/><path class="cls-4" d="M299,59.75a8.26,8.26,0,0,1-8.25-8.25V43.43h-8.87a8.25,8.25,0,1,1,0-16.5h8.87V17.25a8.25,8.25,0,1,1,16.5,0v9.68h8.89a8.25,8.25,0,0,1,0,16.5h-8.89V51.5A8.26,8.26,0,0,1,299,59.75"/><path class="cls-4" d="M96.22,0C77.84,0,62.95,16.9,62.95,37.74v87.7h46.22a8.2,8.2,0,0,1,7.84,5.79l22.09,71.33h0c.5,1.09,1.64,2.25,2.7,2.25a2.41,2.41,0,0,0,2.56-2.21l0-.11L157.12,33.75a8.22,8.22,0,0,1,8.2-7.61h97A40.8,40.8,0,0,1,280.68,0Z"/><path class="cls-4" d="M329.49,336.65h-5.08v-5h5.08Z"/><path class="cls-4" d="M20.92,300.53l13.75,36.12h-9l-2.59-7.4H11.53L9,336.65H0l13.75-36.12Zm-7,21.92h6.81l-3.4-9.8Z"/><path class="cls-4" d="M48.7,336.65H40.3V308.74H30.59v-7.49H58.41v7.49H48.7Z"/><path class="cls-4" d="M82.74,323.45V301.25h8.4v22.37c0,7.85-3.22,13.75-15,13.75s-15-5.9-15-13.75V301.25h8.39v22.19c0,3.54.68,6.49,6.63,6.49S82.74,327,82.74,323.45Z"/><path class="cls-4" d="M116.24,325.8c0-2.4-1.59-3.36-6.9-3.63-7.22-.32-14-1.41-14.21-9.8-.18-8.21,6.45-11.84,13.89-11.84,10.39,0,15.38,4.45,15.47,11.84l-8.53,1c-.09-4-2.5-5.49-6.94-5.4-2.45,0-5.54,1-5.49,4.18,0,2,1.22,2.4,6.17,2.72,9.66.54,14.7,2,14.84,10.71.14,8.49-7.31,11.75-14.84,11.75-11.44,0-15.39-4.45-15.48-11.84l8.53-1c.09,4,2.5,5.54,6.95,5.4C113,329.8,116.28,329,116.24,325.8Z"/><path class="cls-4" d="M153.87,301.25v7.49H136.57v6.08h14.84v7.49H136.57v6.85h18.2v7.49H128.18v-35.4Z"/><path class="cls-4" d="M166.9,336.65H158.5v-35.4h15.66c6.4,0,13.34,1.81,13.34,11.57,0,6.22-2.72,9.21-6.35,10.57l8.08,13.25H179.15l-6.9-12.21H166.9Zm7.9-19.74c1.77,0,4.18-.32,4.18-4.08s-2.41-4.08-4.18-4.08h-7.9v8.17Z"/><path class="cls-4" d="M202.12,337.38l-13.75-36.12h9l8.35,24,8.35-24h9l-13.75,36.12Z"/><path class="cls-4" d="M233.62,336.65h-8.4v-35.4h8.4Z"/><path class="cls-4" d="M254.36,300.53c9.71,0,14.71,4.45,14.8,11.84l-8.53,1c-.09-4-2.09-5.4-6.26-5.4-6.54,0-7.53,5.22-7.53,10.94s1,10.94,7.53,10.94c4.18,0,6.17-1.36,6.26-5.4l8.53,1c-.09,7.4-5.08,11.84-14.8,11.84-11.66,0-16-7.4-16-18.43S242.7,300.53,254.36,300.53Z"/><path class="cls-4" d="M281.46,336.65h-8.4v-35.4h8.4Z"/><path class="cls-4" d="M286.23,319c0-11,4.77-18.42,16.7-18.42s16.7,7.4,16.7,18.42-4.77,18.43-16.7,18.43S286.23,330,286.23,319Zm8.49,0c0,5.72,1.5,10.94,8.21,10.94s8.21-5.22,8.21-10.94S309.65,308,302.93,308,294.72,313.23,294.72,319Z"/><text class="cls-5" transform="translate(333.77 337.71)"><tspan class="cls-6">C</tspan><tspan x="31.3" y="0">O</tspan></text></svg>