<?xml version="1.0" encoding="UTF-8"?>
<svg width="213px" height="69px" viewBox="0 0 213 69" version="1.1" xmlns="http://www.w3.org/2000/svg" xmlns:xlink="http://www.w3.org/1999/xlink">
    <!-- Generator: Sketch 51.1 (57501) - http://www.bohemiancoding.com/sketch -->
    <title>Group 53</title>
    <desc>Created with Sketch.</desc>
    <defs>
        <polygon id="path-1" points="0.000372156491 0.324 43.5845 0.324 43.5845 41.2990786 0.000372156491 41.2990786"></polygon>
        <polygon id="path-3" points="0 69 212.521 69 212.521 0.324 0 0.324"></polygon>
    </defs>
    <g id="Page-1" stroke="none" stroke-width="1" fill="none" fill-rule="evenodd">
        <g id="Group-53" transform="translate(0.000000, -1.000000)">
            <polygon id="Fill-1" fill="#3FA6C9" points="0.0297 29.3825 0.0137 29.3825 0.0137 52.5705 15.2187 52.5705 8.0467 29.3825"></polygon>
            <g id="Group-52" transform="translate(0.000000, 0.676400)">
                <path d="M47.8678,15.375 C44.0178,15.379 40.6898,12.689 39.8868,8.924 L22.0138,8.924 L18.7638,51.929 L51.6178,51.929 L51.6178,14.463 C50.4648,15.062 49.1838,15.375 47.8858,15.375" id="Fill-2" fill="#3FA6C9"></path>
                <path d="M33.3502,26.6592 C33.3502,27.7602 32.0772,28.6372 30.5112,28.6372 C28.9462,28.6372 27.6732,27.7432 27.6732,26.6592 L27.6732,22.2562 C27.6732,21.1552 28.9462,20.2772 30.5112,20.2772 C32.0772,20.2772 33.3502,21.1722 33.3502,22.2562 L33.3502,26.6592 Z" id="Fill-4" fill="#FFFFFF"></path>
                <path d="M46.2682,26.6592 C46.2682,27.7602 44.9952,28.6372 43.4302,28.6372 C41.8652,28.6372 40.5912,27.7432 40.5912,26.6592 L40.5912,22.2562 C40.5912,21.1552 41.8652,20.2772 43.4302,20.2772 C44.9952,20.2772 46.2682,21.1722 46.2682,22.2562 L46.2682,26.6592 Z" id="Fill-6" fill="#FFFFFF"></path>
                <path d="M33.3502,42.9668 C33.3502,44.0678 32.0772,44.9448 30.5112,44.9448 C28.9462,44.9448 27.6732,44.0498 27.6732,42.9668 L27.6732,38.5628 C27.6732,37.4618 28.9462,36.5848 30.5112,36.5848 C32.0772,36.5848 33.3502,37.4788 33.3502,38.5628 L33.3502,42.9668 Z" id="Fill-8" fill="#FFFFFF"></path>
                <path d="M46.2682,42.9668 C46.2682,44.0678 44.9952,44.9448 43.4302,44.9448 C41.8652,44.9448 40.5912,44.0498 40.5912,42.9668 L40.5912,38.5628 C40.5912,37.4618 41.8652,36.5848 43.4302,36.5848 C44.9952,36.5848 46.2682,37.4788 46.2682,38.5628 L46.2682,42.9668 Z" id="Fill-10" fill="#FFFFFF"></path>
                <path d="M50.6549,6.3442 L48.1769,6.3442 L48.1769,3.7642 C48.1769,3.2032 47.7229,2.7492 47.1629,2.7492 C46.6019,2.7492 46.1479,3.2032 46.1479,3.7642 L46.1479,6.3442 L43.7399,6.3442 C43.1789,6.3442 42.7239,6.7982 42.7239,7.3582 C42.7239,7.9192 43.1779,8.3732 43.7389,8.3742 L46.1479,8.3742 L46.1479,10.6442 C46.1479,11.2052 46.6019,11.6592 47.1629,11.6592 C47.7229,11.6592 48.1769,11.2052 48.1769,10.6442 L48.1769,8.3742 L50.5859,8.3742 C51.1459,8.3732 51.5999,7.9192 51.5999,7.3582 C51.5999,6.7982 51.1459,6.3442 50.5859,6.3442" id="Fill-12" fill="#000000"></path>
                <path d="M47.231,12.2788 C46.282,12.2788 45.511,11.5088 45.511,10.5588 L45.511,9.0098 L43.791,9.0098 C42.879,8.7448 42.355,7.7898 42.622,6.8778 C42.786,6.3138 43.227,5.8718 43.791,5.7078 L45.511,5.7078 L45.511,3.7638 C45.246,2.8518 45.769,1.8968 46.681,1.6308 C47.593,1.3648 48.548,1.8888 48.814,2.8008 C48.906,3.1148 48.906,3.4488 48.814,3.7638 L48.814,5.7078 L50.534,5.7078 C51.446,5.9738 51.97,6.9288 51.704,7.8408 C51.54,8.4048 51.098,8.8458 50.534,9.0098 L48.814,9.0098 L48.814,10.6448 C48.814,11.5948 48.043,12.3648 47.093,12.3648" id="Fill-14" fill="#3FA6C9"></path>
                <g id="Group-18">

                    <path d="M6.6705,0.3237 C2.7515,0.5817 -0.2225,3.9557 0.0135,7.8747 L0.0135,25.4207 L9.2675,25.4207 C9.9775,25.4447 10.5995,25.9027 10.8325,26.5737 L15.2535,40.8507 C15.3575,41.0737 15.5805,41.2977 15.7865,41.2977 C16.0525,41.3177 16.2825,41.1177 16.3025,40.8527 C16.3035,40.8527 16.3035,40.8517 16.3035,40.8507 L18.9355,7.0837 C19.0315,6.2087 19.7745,5.5477 20.6545,5.5527 L39.9035,5.5527 C40.3845,3.4067 41.7115,1.5457 43.5845,0.3927 L6.6705,0.3237 Z" id="Fill-16" fill="#304454"></path>
                </g>
                <path d="M62.2828,43.3271 L65.6198,43.3271 L63.8998,38.5111 L62.2828,43.3271 Z M65.7228,32.5081 L72.4828,50.2081 L68.0618,50.2081 L66.7898,46.5791 L61.1128,46.5791 L59.8568,50.2081 L55.4358,50.2081 L62.1968,32.4561 L65.7228,32.5081 Z" id="Fill-19" fill="#304454"></path>
                <polygon id="Fill-21" fill="#304454" points="79.3814 50.208 75.2524 50.208 75.2524 36.447 70.5394 36.447 70.5394 32.869 84.2144 32.869 84.2144 36.55 79.3814 36.55"></polygon>
                <path d="M96.1187,43.7744 L96.1187,32.8694 L100.2467,32.8694 L100.2467,43.8784 C100.2467,47.7314 98.6637,50.6384 92.8667,50.6384 C87.0697,50.6384 85.4877,47.7314 85.4877,43.8784 L85.4877,32.8694 L89.6157,32.8694 L89.6157,43.7744 C89.6157,45.4954 89.9427,46.9574 92.8667,46.9574 C95.7917,46.9574 96.1187,45.5114 96.1187,43.7744" id="Fill-23" fill="#304454"></path>
                <path d="M112.5807,44.9443 C112.5807,43.7573 111.8067,43.2243 109.1407,43.2243 C105.5967,43.0693 102.2597,42.5363 102.1557,38.4083 C102.0537,34.2793 105.3207,32.5933 109.0367,32.5933 C114.1967,32.5933 116.5887,34.7783 116.6407,38.4083 L112.4427,38.9233 C112.4427,36.9453 111.2217,36.2233 109.0027,36.2753 C107.7987,36.2753 106.2847,36.7393 106.3017,38.3223 C106.3017,39.3193 106.9037,39.5083 109.3287,39.6643 C114.0767,39.9383 116.5537,40.6443 116.6227,44.9273 C116.6907,49.2113 113.0277,50.7073 109.3287,50.7073 C103.7047,50.7073 101.7607,48.5223 101.7267,44.8923 L105.9237,44.3773 C105.9237,46.3553 107.1437,47.0943 109.3637,47.0263 C110.9637,46.9053 112.5977,46.4923 112.5807,44.9443" id="Fill-25" fill="#304454"></path>
                <polygon id="Fill-27" fill="#304454" points="131.0719 32.8691 131.0719 36.5501 122.5749 36.5501 122.5749 39.5431 129.8679 39.5431 129.8679 43.2241 122.5749 43.2241 122.5749 46.6651 131.5189 46.6651 131.5189 50.2081 118.4459 50.2081 118.4459 32.8691"></polygon>
                <path d="M141.358,40.5068 C142.236,40.5068 143.406,40.3518 143.406,38.5108 C143.406,36.6708 142.218,36.5158 141.358,36.5158 L137.471,36.5158 L137.471,40.5748 L141.358,40.5068 Z M137.471,50.2078 L133.342,50.2078 L133.342,32.8688 L141.066,32.8688 C144.213,32.8688 147.62,33.7638 147.62,38.5628 C147.886,40.7928 146.604,42.9198 144.506,43.7238 L148.462,50.2078 L143.508,50.2078 L140.068,44.2048 L137.471,44.2048 L137.471,50.2078 Z" id="Fill-29" fill="#304454"></path>
                <polygon id="Fill-31" fill="#304454" points="154.8277 50.6211 147.9467 32.8691 152.3677 32.8691 156.5477 44.6691 160.6587 32.8691 165.1477 32.8691 158.2667 50.6211"></polygon>

                <polygon id="Fill-33" fill="#304454" points="166.18 50.208 170.309 50.208 170.309 32.869 166.18 32.869"></polygon>
                <path d="M180.4752,32.5078 C185.2562,32.5078 187.7002,34.6928 187.7512,38.3218 L183.5542,38.8378 C183.5542,36.8598 182.5222,36.1888 180.4752,36.1888 C177.2582,36.1888 176.7772,38.7518 176.7772,41.5728 C176.7772,44.3948 177.2752,46.9398 180.4922,46.9398 C182.5382,46.9398 183.5192,46.2698 183.5712,44.2908 L187.7682,44.8068 C187.7682,48.4368 185.2742,50.6208 180.4922,50.6208 C174.7642,50.6208 172.6142,46.9748 172.6142,41.5728 C172.6142,36.1718 174.7292,32.5078 180.4752,32.5078" id="Fill-35" fill="#304454"></path>
                <polygon id="Fill-36" fill="#304454" points="189.661 50.208 193.789 50.208 193.789 32.869 189.661 32.869"></polygon>
                <path d="M200.274,41.6074 C200.274,44.4114 201.013,46.9744 204.316,46.9744 C207.619,46.9744 208.359,44.4114 208.359,41.6074 C208.359,38.8034 207.619,36.2234 204.316,36.2234 C201.013,36.2234 200.308,38.7524 200.308,41.6074 L200.274,41.6074 Z M196.111,41.6074 C196.111,36.1894 198.451,32.5424 204.316,32.5424 C210.182,32.5424 212.521,36.1714 212.521,41.6074 C212.521,47.0434 210.182,50.6554 204.316,50.6554 C198.451,50.6554 196.111,46.9914 196.111,41.6074 Z" id="Fill-37" fill="#304454"></path>
                <polygon id="Stroke-39" stroke="#949CA1" points="208.9117 52.8848 209.4677 53.4548 207.1567 55.2988 206.6467 54.7298"></polygon>
                <path d="M103.86,63.3252 L103.86,67.5702 L108.421,67.5702 C109.15,67.5702 109.718,67.3952 110.123,67.0452 C110.528,66.6952 110.73,66.2402 110.73,65.6802 L110.73,65.2752 C110.73,63.9752 109.961,63.3252 108.421,63.3252 L103.86,63.3252 Z M103.86,58.6452 L103.86,62.5302 L108.135,62.5302 C108.805,62.5302 109.328,62.3702 109.703,62.0512 C110.078,61.7302 110.265,61.3152 110.265,60.8052 L110.265,60.4152 C110.265,59.2352 109.555,58.6452 108.135,58.6452 L103.86,58.6452 Z M108.421,68.3502 L102.991,68.3502 L102.991,57.8502 L108.135,57.8502 C110.135,57.8502 111.135,58.7052 111.135,60.4152 L111.135,60.8052 C111.135,61.6762 110.791,62.3462 110.1,62.8152 C111.1,63.2452 111.6,64.0652 111.6,65.2752 L111.6,65.6802 C111.6,66.4802 111.318,67.1262 110.753,67.6152 C110.188,68.1052 109.411,68.3502 108.421,68.3502 Z" id="Stroke-41" stroke="#949CA1"></path>
                <path d="M127.9654,58.4951 L127.1404,58.4951 C124.9094,58.4951 123.7954,59.4401 123.7954,61.3301 L123.7954,64.9311 C123.7954,65.7701 124.0874,66.4401 124.6724,66.9401 C125.2574,67.4401 126.0794,67.6901 127.1404,67.6901 L127.9654,67.6901 C129.0254,67.6901 129.8474,67.4401 130.4324,66.9401 C131.0184,66.4401 131.3104,65.7701 131.3104,64.9311 L131.3104,61.3301 C131.3104,59.4401 130.1944,58.4951 127.9654,58.4951 Z M127.1404,57.7001 L127.9654,57.7001 C130.7954,57.7001 132.2104,58.9101 132.2104,61.3301 L132.2104,64.9311 C132.2104,66.0011 131.8324,66.8601 131.0774,67.5111 C130.3224,68.1601 129.2844,68.4851 127.9654,68.4851 L127.1404,68.4851 C125.8194,68.4851 124.7824,68.1601 124.0274,67.5111 C123.2724,66.8601 122.8954,66.0011 122.8954,64.9311 L122.8954,61.3301 C122.8954,58.9101 124.3104,57.7001 127.1404,57.7001 Z" id="Stroke-43" stroke="#949CA1"></path>
                <path d="M151.7105,63.79 L149.0405,63.79 L149.0405,62.995 L152.5955,62.995 L152.5955,64.931 C152.5955,67.311 151.1805,68.5 148.3505,68.5 L147.7955,68.5 C146.4755,68.5 145.4385,68.176 144.6835,67.525 C143.9275,66.875 143.5505,66.016 143.5505,64.945 L143.5505,61.33 C143.5505,58.91 144.9655,57.7 147.7955,57.7 L148.3505,57.7 C151.1005,57.7 152.5155,58.955 152.5955,61.466 L151.7105,61.466 C151.6405,59.485 150.5205,58.495 148.3505,58.495 L147.7955,58.495 C146.7055,58.495 145.8755,58.721 145.3055,59.17 C144.7355,59.62 144.4505,60.341 144.4505,61.33 L144.4505,64.945 C144.4505,65.785 144.7425,66.455 145.3275,66.955 C145.9125,67.455 146.7345,67.705 147.7955,67.705 L148.3505,67.705 C150.5905,67.705 151.7105,66.78 151.7105,64.931 L151.7105,63.79 Z" id="Stroke-45" stroke="#949CA1"></path>
                <path d="M168.9605,58.4951 L168.1355,58.4951 C165.9045,58.4951 164.7905,59.4401 164.7905,61.3301 L164.7905,64.9311 C164.7905,65.7701 165.0825,66.4401 165.6675,66.9401 C166.2525,67.4401 167.0745,67.6901 168.1355,67.6901 L168.9605,67.6901 C170.0205,67.6901 170.8425,67.4401 171.4275,66.9401 C172.0135,66.4401 172.3055,65.7701 172.3055,64.9311 L172.3055,61.3301 C172.3055,59.4401 171.1895,58.4951 168.9605,58.4951 Z M168.1355,57.7001 L168.9605,57.7001 C171.7905,57.7001 173.2055,58.9101 173.2055,61.3301 L173.2055,64.9311 C173.2055,66.0011 172.8275,66.8601 172.0725,67.5111 C171.3175,68.1601 170.2795,68.4851 168.9605,68.4851 L168.1355,68.4851 C166.8145,68.4851 165.7775,68.1601 165.0225,67.5111 C164.2675,66.8601 163.8905,66.0011 163.8905,64.9311 L163.8905,61.3301 C163.8905,58.9101 165.3055,57.7001 168.1355,57.7001 Z" id="Stroke-47" stroke="#949CA1"></path>
                <polygon id="Stroke-49" stroke="#949CA1" points="188.9107 68.3506 188.0257 68.3506 188.0257 58.6456 183.9607 58.6456 183.9607 57.8506 192.9457 57.8506 192.9457 58.6456 188.9107 58.6456"></polygon>
                <path d="M208.7252,64.4199 L206.3852,58.9599 L204.0762,64.4199 L208.7252,64.4199 Z M206.7902,57.8509 L211.3662,68.3509 L210.4352,68.3509 L209.0552,65.2159 L203.7152,65.2159 L202.3952,68.3509 L201.4512,68.3509 L205.9802,57.8509 L206.7902,57.8509 Z" id="Stroke-51" stroke="#949CA1"></path>
            </g>
        </g>
    </g>
</svg>
