<?xml version="1.0" encoding="UTF-8"?>
<svg width="2502px" height="860px" viewBox="0 0 2502 860" version="1.1" xmlns="http://www.w3.org/2000/svg" xmlns:xlink="http://www.w3.org/1999/xlink">
    <defs>
        <polygon id="path-1" points="0.7004 0.281102942 98.7 0.281102942 98.7 121.9998 0.7004 121.9998"></polygon>
        <polygon id="path-3" points="0.473762541 0.187192263 492.7 0.187192263 492.7 579.944708 0.473762541 579.944708"></polygon>
    </defs>
    <g id="Page-1" stroke="none" stroke-width="1" fill="none" fill-rule="evenodd">
        <g id="Group-39">
            <path d="M1920.6008,69.1001 C1926.9998,70.4001 1933.9008,74.9001 1937.7008,80.1001 L1940.7008,84.3001 L1940.7008,111.2001 C1940.7008,141.7001 1940.7998,141.0001 1932.7998,148.2001 C1926.7008,153.7001 1921.4008,155.4001 1911.4008,154.9001 C1901.7008,154.4001 1895.7008,150.9001 1890.9008,143.0001 C1885.9008,134.6001 1885.2008,131.1001 1885.2008,114.0001 C1885.2008,100.8001 1885.4998,97.5001 1887.4008,91.5001 C1892.1008,76.6001 1900.7008,69.0001 1913.9008,68.1001 C1914.7998,68.1001 1917.7998,68.5001 1920.6008,69.1001 Z M1940.7008,31.6001 L1940.7008,63.1001 L1935.9998,59.1001 C1928.7008,53.0001 1922.7998,50.8001 1911.6008,50.3001 C1887.4008,49.0001 1872.2998,61.2001 1864.4998,88.6001 C1862.6008,95.4001 1862.2998,99.0001 1862.2008,113.5001 C1862.2008,132.5001 1863.1008,137.6001 1868.2998,148.6001 C1876.7998,166.6001 1891.9998,175.2001 1912.9008,173.7001 C1919.4998,173.3001 1922.2998,172.5001 1928.2008,169.6001 C1932.2998,167.6001 1936.9998,164.3001 1938.9998,162.1001 L1942.4998,158.2001 L1943.7008,163.3001 C1944.2998,166.2001 1945.1008,169.3001 1945.4008,170.2001 C1945.7998,171.8001 1947.1008,172.0001 1954.7998,172.0001 L1963.7008,172.0001 L1963.7008,86.0001 L1963.7008,0.0001 L1952.2008,0.0001 L1940.7008,0.0001 L1940.7008,31.6001 Z" id="Fill-1" fill="#06578E"></path>
            <polygon id="Fill-3" fill="#06578E" points="2227.7004 11.5 2227.7004 23 2239.2004 23 2250.7004 23 2250.7004 11.5 2250.7004 0 2239.2004 0 2227.7004 0"></polygon>
            <path d="M2330.6008,12.2002 C2326.6008,17.9002 2322.1008,24.3002 2320.4998,26.4002 C2318.9998,28.6002 2317.7008,30.8002 2317.7008,31.2002 C2317.7008,31.6002 2321.6008,32.0002 2326.2998,32.0002 L2334.9008,32.0002 L2350.1008,17.0002 L2365.2008,2.0002 L2351.4998,2.0002 L2337.7998,2.0002 L2330.6008,12.2002 Z" id="Fill-5" fill="#06578E"></path>
            <polygon id="Fill-7" fill="#06578E" points="1501.7004 91.5 1501.7004 172 1513.2004 172 1524.7004 172 1524.7004 136.5 1524.7004 101 1558.2004 101 1591.7004 101 1591.7004 92 1591.7004 83 1558.2004 83 1524.7004 83 1524.7004 56 1524.7004 29 1564.2004 29 1603.7004 29 1603.7004 20 1603.7004 11 1552.7004 11 1501.7004 11"></polygon>
            <path d="M1279.8005,46.1001 C1259.3005,49.5001 1241.4005,61.9001 1233.3005,78.3001 C1228.7005,87.8001 1226.7005,96.8001 1226.7005,109.5001 C1226.7005,122.2001 1228.7005,131.2001 1233.4005,140.8001 C1240.3005,154.8001 1253.6005,165.4001 1271.2005,171.0001 C1280.1005,173.8001 1303.3005,174.9001 1314.1005,173.0001 C1342.1005,168.1001 1361.0005,151.8001 1367.3005,127.0001 C1369.6005,118.3001 1369.6005,100.7001 1367.3005,92.0001 C1359.6005,61.9001 1333.8005,44.8001 1296.7005,45.1001 C1290.4005,45.2001 1282.8005,45.6001 1279.8005,46.1001" id="Fill-9" fill="#06578E"></path>
            <path d="M1786.0002,51.5 C1779.6012,53.5 1773.6012,57.3 1768.5002,62.8 L1763.8002,67.8 L1763.1012,59.9 L1762.4002,52 L1752.1012,52 L1741.7002,52 L1741.7002,112 L1741.7002,172 L1753.2002,172 L1764.7002,172 L1764.7002,127.7 L1764.7002,83.4 L1767.0002,80.2 C1772.8002,72.4 1781.1012,68.6 1792.2002,68.7 C1801.1012,68.7 1805.7002,70.3 1810.1012,74.6 C1816.2002,80.8 1816.2002,80.4 1816.5002,128.2 L1816.8002,172 L1828.2002,172 L1839.7002,172 L1839.7002,130.7 C1839.6012,84.3 1839.0002,78.2 1833.6012,67.9 C1827.2002,55.9 1815.5002,49.9 1798.8002,50.1 C1794.1012,50.1 1788.3002,50.7 1786.0002,51.5" id="Fill-11" fill="#06578E"></path>
            <path d="M2061.7004,126.2998 C2061.7004,134.9998 2061.5004,135.9998 2058.8004,139.9998 C2055.5004,144.9998 2046.5004,151.3998 2040.4004,153.1998 C2034.1004,155.0998 2021.9004,154.7998 2017.9004,152.6998 C2014.2004,150.6998 2011.0004,145.9998 2010.1004,141.1998 C2009.0004,135.5998 2010.5004,131.3998 2015.5004,125.8998 C2022.4004,118.3998 2027.2004,117.0998 2046.5004,116.9998 L2061.7004,116.9998 L2061.7004,126.2998 Z M2022.7004,51.7998 C2006.6004,55.9998 1993.9004,68.6998 1993.4004,81.2998 L1993.2004,85.4998 L2003.8004,85.7998 L2014.4004,86.0998 L2015.1004,82.8998 C2017.9004,68.5998 2042.3004,62.6998 2054.4004,73.2998 C2059.8004,77.9998 2061.7004,82.9998 2061.7004,92.5998 L2061.7004,100.6998 L2042.5004,101.2998 C2016.6004,101.9998 2007.2004,104.6998 1996.7004,114.5998 C1989.7004,121.0998 1987.3004,127.2998 1987.4004,138.4998 C1987.5004,150.1998 1990.1004,157.4998 1996.7004,163.9998 C2003.8004,171.1998 2010.4004,173.3998 2024.8004,173.4998 C2036.1004,173.4998 2036.4004,173.3998 2043.8004,169.7998 C2048.1004,167.5998 2053.3004,163.9998 2056.3004,160.9998 L2061.5004,155.8998 L2062.0004,159.1998 C2062.3004,160.9998 2062.9004,164.5998 2063.3004,167.1998 L2063.9004,171.9998 L2075.8004,171.9998 C2082.4004,171.9998 2087.7004,171.8998 2087.7004,171.6998 C2087.7004,171.5998 2087.2004,169.8998 2086.5004,167.9998 C2085.8004,165.6998 2085.2004,150.0998 2084.7004,121.9998 C2084.1004,80.3998 2084.1004,79.3998 2081.8004,73.4998 C2077.5004,62.6998 2066.2004,53.8998 2052.9004,51.0998 C2045.2004,49.4998 2030.3004,49.7998 2022.7004,51.7998 Z" id="Fill-13" fill="#06578E"></path>
            <path d="M2143.8,51.5 C2130.5,55.2 2120.2,64.1 2113.7,77.4 C2108.5,88 2106.7,96.5 2106.7,112 C2106.7,127.4 2108.5,136 2113.601,146.5 C2122.5,164.5 2138.101,174 2158.8,174 C2172,174 2182.601,169.8 2192.3,160.8 C2199.7,153.9 2203.601,146.8 2204.401,138.6 L2205,133 L2194.3,133 C2183.901,133 2183.7,133 2183.7,135.3 C2183.7,139.5 2178.901,147.5 2174.401,150.7 C2168.601,154.8 2163.5,156.3 2156.7,155.8 C2145,155 2137,148.2 2132.5,135.3 C2130.5,129.2 2130.2,126.7 2130.2,112 C2130.2,97.1 2130.401,94.9 2132.601,89 C2137.5,75.5 2144.5,69.3 2155.7,68.3 C2164.401,67.5 2170.2,69.4 2175.8,75 C2180.3,79.5 2183.7,86.7 2183.7,91.7 C2183.7,94 2183.901,94 2194.3,94 L2205,94 L2204.401,87.7 C2204.101,84.3 2203.101,79.5 2202.2,77 C2198.8,67.1 2188.601,57 2178,52.9 C2170.401,50 2151.901,49.3 2143.8,51.5" id="Fill-15" fill="#06578E"></path>
            <path d="M2339.8,70.3999 C2347.901,74.2999 2354.5,83.6999 2357.2,95.0999 C2359.101,103.2999 2359.101,120.5999 2357.2,128.7999 C2353.2,145.5999 2344.2,154.5999 2330.3,155.6999 C2312,157.1999 2300.5,144.8999 2297.401,120.6999 C2294.901,101.0999 2301,80.7999 2311.8,72.7999 C2318.5,67.7999 2332.2,66.5999 2339.8,70.3999 M2312.8,51.5999 C2295.101,56.2999 2281.7,70.7999 2276.7,90.5999 C2275.2,96.3999 2274.7,101.5999 2274.7,111.9999 C2274.7,133.4999 2279,146.4999 2290.101,158.4999 C2300.7,169.8999 2313.901,174.6999 2331.601,173.6999 C2352.101,172.4999 2366.101,163.2999 2374.7,145.4999 C2380.2,133.9999 2381.2,128.6999 2381.2,111.9999 C2381.2,95.2999 2380.2,89.9999 2374.601,78.2999 C2367.8,64.0999 2355.5,54.1999 2340.901,51.0999 C2333.601,49.5999 2319.3,49.7999 2312.8,51.5999" id="Fill-17" fill="#06578E"></path>
            <g id="Group-21" transform="translate(2403.000000, 50.000000)">
                <mask id="mask-2" fill="white">
                    <use xlink:href="#path-1"></use>
                </mask>
                <g id="Clip-20"></g>
                <path d="M45.2004,1.2998 C38.0004,3.6998 32.9004,6.8998 27.8004,12.0998 L22.8004,17.1998 L22.3004,13.7998 C22.0004,11.9998 21.6004,8.6998 21.5004,6.4998 L21.2004,2.4998 L11.0004,2.1998 L0.7004,1.8998 L0.7004,61.9998 L0.7004,121.9998 L12.2004,121.9998 L23.7004,121.9998 L23.7004,76.9998 L23.7004,31.8998 L28.0004,27.6998 C33.1004,22.5998 37.8004,20.1998 45.6004,18.8998 C56.3004,16.9998 66.4004,20.4998 71.4004,27.7998 C75.2004,33.5998 75.7004,39.1998 75.7004,81.4998 L75.7004,121.9998 L87.2004,121.9998 L98.7004,121.9998 L98.7004,83.6998 C98.7004,44.7998 97.9004,31.6998 95.2004,23.8998 C91.8004,14.1998 84.2004,6.2998 74.7004,2.4998 C68.8004,0.1998 50.9004,-0.5002 45.2004,1.2998" id="Fill-19" fill="#06578E" mask="url(#mask-2)"></path>
            </g>
            <path d="M1616.9006,94.7002 C1617.4006,140.5002 1617.7006,143.0002 1622.9006,154.0002 C1626.2996,160.9002 1634.2006,168.3002 1641.2006,171.0002 C1649.5006,174.1002 1662.4006,174.8002 1670.2996,172.6002 C1677.2996,170.5002 1685.5006,165.4002 1689.4006,160.5002 C1690.9006,158.6002 1692.5006,157.0002 1693.0006,157.0002 C1693.4006,157.0002 1693.7006,159.4002 1693.7006,162.2002 C1693.7006,172.2002 1693.5006,172.0002 1704.7996,172.0002 L1714.7006,172.0002 L1714.7006,112.0002 L1714.7006,52.0002 L1703.7006,52.0002 L1692.7006,52.0002 L1692.7006,94.8002 L1692.7006,137.6002 L1689.4006,142.3002 C1683.0006,151.3002 1675.2996,155.0002 1663.2006,155.0002 C1654.7006,155.0002 1650.4006,153.6002 1646.5006,149.4002 C1640.5006,143.0002 1640.2996,141.6002 1639.9006,94.7002 L1639.6006,52.0002 L1628.0006,52.0002 L1616.5006,52.0002 L1616.9006,94.7002 Z" id="Fill-22" fill="#06578E"></path>
            <polygon id="Fill-24" fill="#06578E" points="2227.7004 112 2227.7004 172 2239.2004 172 2250.7004 172 2250.7004 112 2250.7004 52 2239.2004 52 2227.7004 52"></polygon>
            <path d="M266.9006,158.2002 C177.2006,380.9002 -0.2994,825.5002 0.0006,826.4002 C0.6006,827.8002 15.3006,831.2002 31.7006,833.7002 C45.3006,835.8002 84.8006,836.0992 95.7006,834.2002 C122.5006,829.4002 141.2006,820.9002 156.4006,806.5992 C161.0006,802.3002 166.9006,795.5002 169.6006,791.4002 C195.5006,752.7002 255.6006,600.3002 336.7006,367.5002 C343.4006,348.2002 349.0006,332.4002 349.1006,332.2002 C349.3006,332.1002 356.8006,344.3002 365.8006,359.2002 C385.0006,391.2002 398.3006,411.5002 411.7006,429.5002 C455.4006,487.7002 507.7006,534.2002 566.4006,566.9002 C572.6006,570.4002 578.0006,573.0002 578.5006,572.8002 C579.0006,572.7002 544.2006,469.8002 501.3006,344.2002 L423.2006,116.0002 L353.6006,116.0002 L283.9006,116.0002 L266.9006,158.2002 Z" id="Fill-26" fill="#06578E"></path>
            <path d="M1712.7004,265.3999 C1664.6004,271.5999 1613.2004,292.0999 1570.2004,322.2999 C1564.7004,326.0999 1559.2004,330.1999 1558.1004,331.1999 C1556.0004,333.0999 1556.0004,333.0999 1555.4004,330.2999 C1555.2004,328.7999 1553.4004,315.1999 1551.6004,300.1999 L1548.3004,272.9999 L1497.5004,272.9999 L1446.7004,272.9999 L1446.7004,554.4999 L1446.7004,835.9999 L1480.0004,835.9999 C1516.4004,835.9999 1522.8004,835.2999 1531.7004,830.3999 C1538.9004,826.4999 1546.3004,818.1999 1550.2004,809.5999 C1557.0004,794.9999 1556.7004,804.7999 1556.7004,598.8999 L1556.7004,412.9999 L1564.5004,406.7999 C1577.1004,396.6999 1592.3004,387.1999 1607.2004,379.9999 C1637.3004,365.3999 1665.5004,358.9999 1699.5004,358.9999 C1726.1004,358.9999 1743.8004,362.3999 1761.2004,370.7999 C1795.9004,387.6999 1814.8004,420.4999 1823.4004,478.9999 C1824.9004,489.1999 1825.1004,506.9999 1825.7004,641.9999 C1826.3004,809.9999 1825.8004,797.2999 1832.8004,811.5999 C1838.6004,823.2999 1850.8004,832.5999 1863.6004,834.9999 C1866.5004,835.4999 1884.0004,835.9999 1902.3004,835.9999 L1935.7004,835.9999 L1935.7004,665.6999 C1935.7004,561.6999 1935.3004,490.0999 1934.7004,481.4999 C1929.9004,415.3999 1916.9004,368.4999 1893.6004,333.3999 C1883.9004,318.8999 1866.9004,301.6999 1853.1004,292.6999 C1832.2004,278.7999 1810.1004,270.9999 1779.2004,266.3999 C1765.1004,264.2999 1726.1004,263.6999 1712.7004,265.3999" id="Fill-28" fill="#06578E"></path>
            <g id="Group-32" transform="translate(2009.000000, 264.000000)">
                <mask id="mask-4" fill="white">
                    <use xlink:href="#path-3"></use>
                </mask>
                <g id="Clip-31"></g>
                <path d="M360.7004,87.1001 C367.6004,87.7001 375.0004,88.5001 377.2004,88.9001 L381.2004,89.6001 L381.5004,257.0001 L381.7004,424.5001 L376.1004,432.7001 C369.5004,442.4001 356.2004,456.2001 345.7004,464.2001 C299.7004,499.1001 238.1004,504.8001 191.7004,478.5001 C181.3004,472.6001 172.5004,465.6001 163.0004,455.7001 C132.6004,423.8001 116.8004,376.4001 115.0004,311.5001 C112.9004,234.3001 132.3004,175.5001 172.5004,136.9001 C213.9004,97.1001 278.7004,80.0001 360.7004,87.1001 M298.7004,1.1001 C264.0004,3.7001 228.7004,10.9001 197.7004,21.5001 C76.2004,63.2001 5.6004,157.3001 0.8004,284.0001 C-0.8996,329.6001 4.1004,376.8001 14.3004,411.0001 C21.5004,435.4001 33.7004,462.5001 45.4004,480.5001 C81.5004,535.7001 138.8004,570.6001 206.5004,578.5001 C221.4004,580.3001 240.8004,580.4001 254.5004,578.9001 C301.4004,573.8001 347.3004,551.8001 379.1004,519.0001 C384.5004,513.5001 389.0004,509.0001 389.1004,509.2001 C389.2004,509.4001 389.9004,511.5001 390.6004,514.0001 C392.5004,520.7001 398.9004,533.9001 403.5004,540.6001 C410.9004,551.5001 419.9004,559.6001 430.2004,564.8001 C442.0004,570.7001 445.3004,571.2001 470.0004,571.8001 L492.7004,572.2001 L492.5004,290.4001 L492.2004,8.5001 L474.2004,6.8001 C445.8004,4.1001 417.1004,2.1001 392.7004,1.0001 C366.8004,-0.0999 314.1004,-0.0999 298.7004,1.1001" id="Fill-30" fill="#06578E" mask="url(#mask-4)"></path>
            </g>
            <path d="M641.0002,273.7002 C641.3002,274.2002 686.6002,391.9002 741.7002,535.5002 C817.3002,732.4002 843.0002,798.2002 846.3002,803.5992 C851.1002,811.4002 862.6002,823.0002 869.8002,827.2002 C872.3002,828.7002 878.0002,831.0992 882.3002,832.5992 C889.5002,835.0992 891.7002,835.4002 908.9002,835.8002 C924.1002,836.0992 929.1002,835.9002 935.4002,834.5002 C955.0002,830.2002 971.1002,817.8002 980.9002,799.5992 C982.6002,796.2002 1028.9002,676.5002 1083.8002,533.5002 L1183.4002,273.5002 L1143.5002,273.2002 L1103.6002,273.0002 L1096.0002,275.5002 C1077.6002,281.7002 1062.1002,297.0002 1050.5002,320.5002 C1048.6002,324.3002 1016.7002,417.4002 979.6002,527.3002 L912.3002,727.2002 L908.1002,714.8002 C905.8002,708.0002 874.9002,615.9002 839.3002,510.0992 C803.7002,404.3002 773.2002,315.0002 771.5002,311.6002 C764.5002,297.6002 752.5002,284.5002 741.9002,279.1002 C730.0002,273.1002 729.2002,273.0002 683.0002,273.0002 C659.7002,273.0002 640.8002,273.3002 641.0002,273.7002" id="Fill-33" fill="#06578E"></path>
            <path d="M1287.8005,274.6001 C1269.1005,279.6001 1252.9005,294.9001 1244.1005,315.7001 L1241.2005,322.5001 L1240.9005,579.2001 L1240.7005,836.0001 L1274.4005,836.0001 C1311.0005,836.0001 1316.0005,835.4001 1325.8005,830.4001 C1333.1005,826.7001 1339.8005,819.6001 1344.1005,811.0001 C1351.2005,796.5001 1350.7005,817.2001 1350.7005,531.2001 L1350.7005,273.0001 L1322.0005,273.1001 C1300.1005,273.1001 1291.9005,273.5001 1287.8005,274.6001" id="Fill-35" fill="#06578E"></path>
            <path d="M347.3005,415 C348.2005,419.9 359.8005,454.4 366.9005,473.4 C406.7005,580.3 456.2005,670.2 511.7005,737.1 C526.0005,754.3 557.6005,785.5 573.2005,798 C610.1005,827.5 648.4005,846.6 688.2005,855.4 C699.3005,857.8 718.0005,860 727.8005,860 L736.7005,860 L736.7005,786.2 C736.7005,745.6 736.4005,701.5 736.0005,688.2 L735.4005,664.1 L727.8005,663.5 C632.2005,655.5 538.1005,614.9 460.2005,547.9 C445.1005,535 420.4005,510.2 406.9005,494.5 C392.3005,477.6 374.3005,453.5 360.8005,432.9 C345.1005,408.9 346.6005,410.9 347.3005,415" id="Fill-37" fill="#06578E"></path>
        </g>
    </g>
</svg>
