<svg xmlns="http://www.w3.org/2000/svg" viewBox="0 0 254.82 187.21"><defs><style>.cls-1{fill:#00a8eb;}.cls-2{fill:#1c365e;}</style></defs><title>Asset 2</title><g id="Layer_2" data-name="Layer 2"><g id="Capa_1" data-name="Capa 1"><path class="cls-1" d="M11.38,86.13c2.32,0,3.72-.82,3.72-2.59v-.07c0-1.6-1.19-2.59-3.89-2.59H5.15v5.25ZM10,76.52c2.31,0,3.78-.75,3.78-2.52v-.07c0-1.57-1.23-2.45-3.44-2.45H5.15v5ZM0,69.5a2.6,2.6,0,0,1,2.62-2.62h8.45A8.61,8.61,0,0,1,17.35,69,5.47,5.47,0,0,1,19,73v.07a5.55,5.55,0,0,1-3.14,5.15c2.76,1.05,4.46,2.66,4.46,5.86v.07c0,4.36-3.54,6.54-8.93,6.54H2.66A2.6,2.6,0,0,1,0,88.1Z"/><path class="cls-1" d="M48.72,75.14v-.09a9.52,9.52,0,0,0-9.49-9.85c-5.55,0-9.4,4.39-9.4,9.76v.09a9.53,9.53,0,0,0,9.49,9.85c5.55,0,9.4-4.39,9.4-9.76m-26.1,0v-.09c0-8.91,7-16.21,16.7-16.21S55.93,66.05,55.93,75v.09c0,8.91-7,16.21-16.7,16.21S22.61,84.05,22.61,75.14"/><path class="cls-1" d="M59.28,71.08V71A20.29,20.29,0,0,1,80,50.53c6,0,9.94,1.36,13.49,3.84a4.35,4.35,0,0,1,1.81,3.5A4.29,4.29,0,0,1,91,62.16a4.24,4.24,0,0,1-2.65-.91,13.83,13.83,0,0,0-8.64-2.71c-6.32,0-11.35,5.59-11.35,12.31V71c0,7.23,5,12.54,12,12.54a13.9,13.9,0,0,0,8.19-2.37V75.48H82.65a3.74,3.74,0,0,1-3.78-3.73A3.79,3.79,0,0,1,82.65,68h9.94a4.31,4.31,0,0,1,4.35,4.35v9.6a5.87,5.87,0,0,1-3,5.53,26.31,26.31,0,0,1-13.83,4c-12.31,0-20.78-8.64-20.78-20.33"/><path class="cls-1" d="M139.71,66.67v-.14c0-8.29-6.08-15.21-14.66-15.21S110.54,58.1,110.54,66.4v.14c0,8.29,6.08,15.21,14.65,15.21S139.71,75,139.71,66.67m-40.3,0v-.14c0-13.75,10.85-25,25.78-25s25.64,11.13,25.64,24.88v.14c0,13.76-10.85,25-25.78,25S99.41,80.43,99.41,66.67"/><path class="cls-1" d="M163.53,44.55H151.29a5.87,5.87,0,0,1,0-11.75h37.23a5.87,5.87,0,1,1,0,11.75H176.27v40.3a6.37,6.37,0,0,1-12.74,0Z"/><path class="cls-1" d="M216.15,14.31a5.4,5.4,0,0,1,1-2.63l5.35-8.37A6.35,6.35,0,0,1,228,0c3.6,0,8.28,2.24,8.28,4.48A4.81,4.81,0,0,1,234.36,8l-6,5.65a10.87,10.87,0,0,1-8.47,3.21c-2.14,0-3.7-1-3.7-2.53M229.59,62.2l-9.44-22.49L210.7,62.2ZM187.44,81.09l23.75-53.64A9.27,9.27,0,0,1,220,21.51h.88c4.09,0,7,2.24,8.66,5.94l23.75,53.64a7.31,7.31,0,0,1,.78,3,7.1,7.1,0,0,1-7.11,7.2c-3.5,0-5.84-2-7.21-5.16l-4.57-10.71h-30l-4.77,11.2a7.36,7.36,0,0,1-6.91,4.67,6.9,6.9,0,0,1-6.91-7,7.91,7.91,0,0,1,.88-3.21"/><path class="cls-2" d="M0,105.89a5.5,5.5,0,0,1,5.55-5.55H6.78a5.7,5.7,0,0,1,5,2.88l13.4,21.84L38.7,103.15a5.44,5.44,0,0,1,5-2.81H44.9a5.51,5.51,0,0,1,5.55,5.55V146a5.51,5.51,0,1,1-11,0V120.8l-9.73,15a5.41,5.41,0,0,1-4.61,2.81,5.41,5.41,0,0,1-4.61-2.81L10.89,121V146.1a5.41,5.41,0,0,1-5.48,5.4A5.35,5.35,0,0,1,0,146.1Z"/><path class="cls-2" d="M62.56,145.52V106.17a5.51,5.51,0,0,1,5.55-5.55h28a5,5,0,0,1,5,5,4.92,4.92,0,0,1-5,4.9H73.58v10.23H92.82a5,5,0,0,1,5,5,4.92,4.92,0,0,1-5,4.9H73.58V141.2H96.43a5,5,0,0,1,5,5,4.92,4.92,0,0,1-5,4.9H68.1a5.51,5.51,0,0,1-5.55-5.55"/><path class="cls-2" d="M109,147.39a5.55,5.55,0,0,1-2.09-4.25,5.26,5.26,0,0,1,5.26-5.33,5,5,0,0,1,3.31,1.15,10.65,10.65,0,0,0,6.7,2.53c4.32,0,6.92-2.53,6.92-8.36V105.74a5.55,5.55,0,0,1,11.1,0v27.89c0,6-1.73,10.45-4.76,13.48s-7.64,4.68-13.11,4.68A21.35,21.35,0,0,1,109,147.39"/><path class="cls-2" d="M191.26,126v-.14c0-8.65-6.34-15.85-15.28-15.85s-15.14,7.06-15.14,15.71v.14c0,8.65,6.34,15.85,15.28,15.85s15.13-7.06,15.13-15.71m-42,0v-.14c0-14.34,11.31-26.09,26.88-26.09s26.74,11.6,26.74,25.94v.14c0,14.34-11.31,26.09-26.88,26.09s-26.74-11.6-26.74-25.94"/><path class="cls-2" d="M235.07,125.13c5.41,0,8.5-2.88,8.5-7.13v-.15c0-4.75-3.31-7.2-8.72-7.2h-11v14.48Zm-22.34-19a5.51,5.51,0,0,1,5.55-5.55h17.51c6.42,0,11.39,1.8,14.71,5.12,2.81,2.81,4.32,6.77,4.32,11.53v.14c0,7.93-4,12.82-10.09,15.35l7.71,9.37a6.47,6.47,0,0,1,1.8,4.25A5.16,5.16,0,0,1,249,151.5a6.63,6.63,0,0,1-5.48-2.88l-10.81-13.69h-8.86v11a5.55,5.55,0,0,1-11.1,0Z"/><path class="cls-2" d="M10.36,173.74c2.89,0,4.58-1.73,4.58-4v-.07c0-2.59-1.8-4-4.69-4H5.78v8ZM0,163.38a2.87,2.87,0,0,1,2.89-2.89h7.84c6.27,0,10.05,3.71,10.05,9.08v.08c0,6.08-4.73,9.23-10.62,9.23H5.78v5.22A2.87,2.87,0,0,1,2.89,187,2.87,2.87,0,0,1,0,184.1Z"/><path class="cls-2" d="M38,175.77l-3.64-8.67-3.64,8.67ZM21.73,183l9.15-20.67a3.57,3.57,0,0,1,3.38-2.29h.34a3.52,3.52,0,0,1,3.34,2.29L47.09,183a2.84,2.84,0,0,1,.3,1.16A2.74,2.74,0,0,1,44.66,187a2.94,2.94,0,0,1-2.78-2l-1.77-4.13H28.56l-1.84,4.31a2.84,2.84,0,0,1-2.66,1.8,2.66,2.66,0,0,1-2.66-2.7,3.08,3.08,0,0,1,.34-1.24"/><path class="cls-2" d="M63.56,173.25c2.81,0,4.43-1.5,4.43-3.71v-.08c0-2.48-1.73-3.75-4.54-3.75H57.71v7.54Zm-11.63-9.87a2.87,2.87,0,0,1,2.89-2.89h9.12c3.34,0,5.93.94,7.66,2.66a8.24,8.24,0,0,1,2.25,6v.07a8,8,0,0,1-5.25,8l4,4.88a3.37,3.37,0,0,1,.94,2.21A2.69,2.69,0,0,1,70.81,187a3.46,3.46,0,0,1-2.85-1.5l-5.63-7.13H57.71v5.75a2.89,2.89,0,0,1-5.78,0Z"/><path class="cls-2" d="M93.85,175.77l-3.64-8.67-3.64,8.67ZM77.6,183l9.15-20.67a3.57,3.57,0,0,1,3.38-2.29h.34a3.52,3.52,0,0,1,3.34,2.29L103,183a2.88,2.88,0,0,1,.3,1.16,2.74,2.74,0,0,1-2.74,2.78,2.94,2.94,0,0,1-2.78-2L96,180.87H84.43l-1.84,4.31a2.84,2.84,0,0,1-2.66,1.8,2.66,2.66,0,0,1-2.66-2.7A3.08,3.08,0,0,1,77.6,183"/><path class="cls-2" d="M125.18,165.82h-5.55a2.66,2.66,0,0,1,0-5.33h16.89a2.66,2.66,0,0,1,0,5.33H131V184.1a2.89,2.89,0,0,1-5.78,0Z"/><path class="cls-2" d="M163,173.7v-.07a8,8,0,0,0-8-8.26,7.86,7.86,0,0,0-7.88,8.18v.08a8,8,0,0,0,8,8.25A7.85,7.85,0,0,0,163,173.7m-21.87,0v-.07a13.58,13.58,0,0,1,14-13.58c8.11,0,13.92,6,13.92,13.51v.08a13.58,13.58,0,0,1-14,13.58c-8.1,0-13.92-6-13.92-13.51"/><path class="cls-2" d="M184.39,181.55a7.49,7.49,0,0,0,7.92-7.84v-.08a7.54,7.54,0,0,0-7.92-7.92h-4.46v15.84Zm-10.24-18.16a2.87,2.87,0,0,1,2.89-2.89h7.35c8.26,0,14,5.67,14,13.06v.07c0,7.39-5.7,13.13-14,13.13H177a2.87,2.87,0,0,1-2.89-2.89Z"/><path class="cls-2" d="M224.2,173.7v-.07a8,8,0,0,0-8-8.26,7.86,7.86,0,0,0-7.88,8.18v.08a8,8,0,0,0,8,8.25,7.86,7.86,0,0,0,7.88-8.18m-21.87,0v-.07a13.58,13.58,0,0,1,14-13.58c8.1,0,13.92,6,13.92,13.51v.08a13.58,13.58,0,0,1-14,13.58c-8.11,0-13.92-6-13.92-13.51"/><path class="cls-2" d="M234.67,184a2.69,2.69,0,0,1-1.09-2.18,2.66,2.66,0,0,1,2.7-2.66,2.78,2.78,0,0,1,1.65.52,11.07,11.07,0,0,0,6.72,2.36c2.37,0,3.79-.93,3.79-2.47v-.08c0-1.46-.9-2.21-5.29-3.34-5.29-1.35-8.7-2.81-8.7-8V168c0-4.77,3.83-7.92,9.2-7.92a15.27,15.27,0,0,1,8.33,2.33,2.63,2.63,0,0,1,1.28,2.29,2.66,2.66,0,0,1-2.7,2.66,2.76,2.76,0,0,1-1.46-.41,10.93,10.93,0,0,0-5.52-1.77c-2.21,0-3.38,1-3.38,2.29v.08c0,1.72,1.13,2.29,5.67,3.45,5.33,1.39,8.33,3.3,8.33,7.88V179c0,5.22-4,8.15-9.65,8.15a17,17,0,0,1-9.87-3.15"/></g></g></svg>