<svg id="Capa_1" data-name="Capa 1" xmlns="http://www.w3.org/2000/svg" viewBox="0 0 287.85 57.2"><defs><style>.cls-1{fill:#005287;}.cls-2{fill:#48a842;}.cls-3{fill:#706f73;}</style></defs><title>Mesa de trabajo 1</title><path class="cls-1" d="M46.43,52.4l11-29.46L48.87,0,35,37.67H28.22c-7.67,0-11.9-1.87-11.9-11.41s4.23-11.51,11.9-11.51h7.19L40.85,0h-14C10.22,0,0,8.45,0,26.26S10.22,52.4,26.83,52.4h19.6Z"/><polygon class="cls-2" points="90.92 52.41 90.92 35.37 109.26 35.37 109.26 21.72 90.92 21.72 90.92 14.75 112.66 14.75 118.11 0.02 75.66 0.02 75.66 25.96 66.06 0 48.87 0 68.51 52.41 90.92 52.41"/><path class="cls-3" d="M118.8,22.83a13.71,13.71,0,0,1,2.58-.23,4.53,4.53,0,0,1,3,.8,2.3,2.3,0,0,1,.91,1.93,2.6,2.6,0,0,1-1.85,2.4v0a2.82,2.82,0,0,1,2.26,2.75,3,3,0,0,1-.93,2.19,5.5,5.5,0,0,1-3.79,1,16.63,16.63,0,0,1-2.19-.13Zm1.41,4.49h1.28c1.5,0,2.37-.78,2.37-1.84,0-1.28-1-1.79-2.41-1.79a6,6,0,0,0-1.25.1Zm0,5.25a7.55,7.55,0,0,0,1.19.06c1.46,0,2.81-.54,2.81-2.13s-1.28-2.11-2.83-2.11h-1.17Z"/><path class="cls-3" d="M129.37,30.19l-1.14,3.45h-1.46l3.72-11h1.71l3.74,11h-1.51l-1.17-3.45Zm3.59-1.1-1.07-3.15c-.24-.71-.41-1.36-.57-2h0c-.16.65-.34,1.32-.55,2l-1.07,3.17Z"/><path class="cls-3" d="M137.55,33.64v-11h1.54l3.51,5.54a31.06,31.06,0,0,1,2,3.56l0,0c-.13-1.46-.16-2.79-.16-4.5V22.68h1.33v11h-1.43l-3.48-5.56a34.8,34.8,0,0,1-2-3.66l0,0c.08,1.38.11,2.7.11,4.52v4.68Z"/><path class="cls-3" d="M155.89,33.28a7,7,0,0,1-2.89.52c-3.09,0-5.41-1.95-5.41-5.54a5.45,5.45,0,0,1,5.72-5.75,5.89,5.89,0,0,1,2.6.49l-.34,1.15a5.15,5.15,0,0,0-2.21-.46c-2.57,0-4.27,1.64-4.27,4.52,0,2.68,1.54,4.4,4.21,4.4a5.66,5.66,0,0,0,2.31-.46Z"/><path class="cls-3" d="M166.68,28c0,3.77-2.29,5.77-5.09,5.77s-4.92-2.24-4.92-5.56c0-3.48,2.16-5.75,5.09-5.75S166.68,24.8,166.68,28Zm-8.5.18c0,2.34,1.27,4.44,3.49,4.44s3.51-2.06,3.51-4.55c0-2.18-1.14-4.45-3.49-4.45S158.19,25.82,158.19,28.23Z"/><path class="cls-3" d="M172,22.83a20.28,20.28,0,0,1,3-.23A6.27,6.27,0,0,1,179.41,24,5,5,0,0,1,181,27.9a5.8,5.8,0,0,1-1.58,4.26,6.75,6.75,0,0,1-4.84,1.58A22.89,22.89,0,0,1,172,33.6Zm1.41,9.69a9,9,0,0,0,1.43.08c3,0,4.66-1.69,4.66-4.65,0-2.58-1.45-4.23-4.44-4.23a8.05,8.05,0,0,0-1.66.15Z"/><path class="cls-3" d="M188.46,28.5H184.2v3.95h4.75v1.19h-6.16v-11h5.92v1.19h-4.5v3.46h4.26Z"/><path class="cls-3" d="M194.23,22.83a20.28,20.28,0,0,1,3-.23A6.27,6.27,0,0,1,201.67,24a5,5,0,0,1,1.54,3.93,5.8,5.8,0,0,1-1.58,4.26,6.75,6.75,0,0,1-4.84,1.58,22.89,22.89,0,0,1-2.57-.13Zm1.41,9.69a9,9,0,0,0,1.43.08c3,0,4.66-1.69,4.66-4.65,0-2.58-1.45-4.23-4.44-4.23a8.05,8.05,0,0,0-1.66.15Z"/><path class="cls-3" d="M210.72,28.5h-4.26v3.95h4.75v1.19h-6.16v-11H211v1.19h-4.5v3.46h4.26Z"/><path class="cls-3" d="M212.85,31.91a5,5,0,0,0,2.54.71c1.45,0,2.29-.76,2.29-1.87s-.59-1.61-2.06-2.18c-1.79-.63-2.89-1.56-2.89-3.1,0-1.71,1.41-3,3.54-3a5,5,0,0,1,2.42.54l-.39,1.15a4.36,4.36,0,0,0-2.08-.52c-1.5,0-2.06.89-2.06,1.64,0,1,.67,1.53,2.18,2.11,1.85.71,2.8,1.61,2.8,3.22s-1.25,3.15-3.84,3.15a5.67,5.67,0,0,1-2.79-.7Z"/><path class="cls-3" d="M222.83,30.19l-1.14,3.45h-1.46l3.72-11h1.71l3.74,11h-1.51l-1.17-3.45Zm3.59-1.1-1.07-3.15c-.24-.71-.41-1.36-.57-2h0c-.16.65-.34,1.32-.55,2l-1.07,3.17Z"/><path class="cls-3" d="M231,22.83a14.7,14.7,0,0,1,2.71-.23,4.48,4.48,0,0,1,3.17.89,2.73,2.73,0,0,1,.86,2.08,2.88,2.88,0,0,1-2.06,2.79v0a2.73,2.73,0,0,1,1.61,2.21,17.43,17.43,0,0,0,.84,3h-1.46a14.08,14.08,0,0,1-.73-2.62c-.33-1.51-.91-2.08-2.19-2.13h-1.33v4.75H231Zm1.41,5h1.45c1.51,0,2.47-.83,2.47-2.08,0-1.41-1-2-2.52-2a5.79,5.79,0,0,0-1.4.13Z"/><path class="cls-3" d="M239.75,22.83a14.72,14.72,0,0,1,2.71-.23,4.48,4.48,0,0,1,3.17.89,2.73,2.73,0,0,1,.86,2.08,2.88,2.88,0,0,1-2.06,2.79v0A2.73,2.73,0,0,1,246,30.63a17.4,17.4,0,0,0,.85,3h-1.46a14.16,14.16,0,0,1-.73-2.62c-.33-1.51-.91-2.08-2.19-2.13h-1.33v4.75h-1.41Zm1.41,5h1.45c1.51,0,2.47-.83,2.47-2.08,0-1.41-1-2-2.52-2a5.79,5.79,0,0,0-1.4.13Z"/><path class="cls-3" d="M257.9,28c0,3.77-2.29,5.77-5.09,5.77s-4.92-2.24-4.92-5.56c0-3.48,2.16-5.75,5.09-5.75S257.9,24.8,257.9,28Zm-8.5.18c0,2.34,1.27,4.44,3.49,4.44s3.51-2.06,3.51-4.55c0-2.18-1.14-4.45-3.49-4.45S249.4,25.82,249.4,28.23Z"/><path class="cls-3" d="M259.73,22.68h1.41v9.77h4.68v1.19h-6.09Z"/><path class="cls-3" d="M267.4,22.68h1.41v9.77h4.68v1.19H267.4Z"/><path class="cls-3" d="M283.8,28c0,3.77-2.29,5.77-5.09,5.77s-4.92-2.24-4.92-5.56c0-3.48,2.16-5.75,5.09-5.75S283.8,24.8,283.8,28Zm-8.5.18c0,2.34,1.27,4.44,3.49,4.44s3.51-2.06,3.51-4.55c0-2.18-1.14-4.45-3.49-4.45S275.3,25.82,275.3,28.23Z"/><path class="cls-3" d="M118.8,42.33a20.26,20.26,0,0,1,3-.23,6.27,6.27,0,0,1,4.44,1.37,5,5,0,0,1,1.54,3.93,5.8,5.8,0,0,1-1.58,4.26,6.75,6.75,0,0,1-4.84,1.58,22.86,22.86,0,0,1-2.57-.13ZM120.21,52a9,9,0,0,0,1.43.08c3,0,4.66-1.69,4.66-4.65,0-2.58-1.45-4.23-4.44-4.23a8,8,0,0,0-1.66.15Z"/><path class="cls-3" d="M135.29,48H131V52h4.75v1.19h-6.16v-11h5.92v1.19H131v3.46h4.26Z"/><path class="cls-3" d="M142.83,49.69l-1.14,3.45h-1.46l3.72-11h1.71l3.74,11h-1.51l-1.17-3.45Zm3.59-1.1-1.07-3.15c-.24-.71-.41-1.36-.57-2h0c-.16.65-.34,1.32-.55,2l-1.07,3.17Z"/><path class="cls-3" d="M160.17,48.33C160.09,46.8,160,45,160,43.6h0c-.37,1.28-.83,2.65-1.38,4.16l-1.93,5.31h-1.07l-1.77-5.22c-.52-1.54-1-3-1.27-4.26h0c0,1.37-.11,3.2-.21,4.84l-.29,4.7h-1.35l.76-11h1.8l1.87,5.3c.46,1.35.83,2.55,1.1,3.69h0c.28-1.1.67-2.31,1.15-3.69l2-5.3h1.8l.68,11h-1.38Z"/><path class="cls-3" d="M169.67,48h-4.26V52h4.75v1.19H164v-11h5.92v1.19h-4.5v3.46h4.26Zm-.28-8.3-2.06,1.9h-1.17l1.51-1.9Z"/><path class="cls-3" d="M172,42.33a14.72,14.72,0,0,1,2.71-.23,4.48,4.48,0,0,1,3.17.89,2.73,2.73,0,0,1,.86,2.08,2.88,2.88,0,0,1-2.06,2.79v0a2.73,2.73,0,0,1,1.61,2.21,17.4,17.4,0,0,0,.85,3h-1.46a14.16,14.16,0,0,1-.73-2.62c-.33-1.51-.91-2.08-2.19-2.13h-1.33v4.75H172Zm1.41,5h1.45c1.51,0,2.47-.83,2.47-2.08,0-1.41-1-2-2.52-2a5.85,5.85,0,0,0-1.4.13Z"/><path class="cls-3" d="M182.16,42.18v11h-1.41v-11Z"/><path class="cls-3" d="M192.28,52.78a7,7,0,0,1-2.89.52c-3.09,0-5.41-1.95-5.41-5.54A5.45,5.45,0,0,1,189.7,42a5.88,5.88,0,0,1,2.6.49L192,43.65a5.15,5.15,0,0,0-2.21-.46c-2.57,0-4.27,1.64-4.27,4.52,0,2.68,1.54,4.4,4.21,4.4a5.66,5.66,0,0,0,2.31-.46Z"/><path class="cls-3" d="M195.89,49.69l-1.14,3.45h-1.46l3.72-11h1.71l3.74,11h-1.51l-1.17-3.45Zm3.59-1.1-1.07-3.15c-.24-.71-.41-1.36-.57-2h0c-.16.65-.34,1.32-.55,2l-1.07,3.17Z"/><path class="cls-3" d="M207.5,42.18h1.41V52h4.68v1.19H207.5Z"/><path class="cls-3" d="M216.95,49.69l-1.14,3.45h-1.46l3.72-11h1.71l3.74,11H222l-1.17-3.45Zm3.59-1.1-1.07-3.15c-.24-.71-.41-1.36-.57-2h0c-.16.65-.34,1.32-.55,2l-1.07,3.17Z"/><path class="cls-3" d="M225.95,43.39h-3.33v-1.2h8.11v1.2h-3.35v9.75h-1.43Z"/><path class="cls-3" d="M233.36,42.18v11h-1.41v-11Z"/><path class="cls-3" d="M235.83,53.14v-11h1.54l3.51,5.54a30.89,30.89,0,0,1,2,3.56l0,0c-.13-1.46-.16-2.79-.16-4.5V42.18h1.33v11h-1.43l-3.48-5.56a34.8,34.8,0,0,1-2-3.66l0,0c.08,1.38.11,2.7.11,4.52v4.68Z"/><path class="cls-3" d="M248.29,49.69l-1.14,3.45h-1.46l3.72-11h1.71l3.74,11h-1.51l-1.17-3.45Zm3.59-1.1-1.07-3.15c-.24-.71-.41-1.36-.57-2h0c-.16.65-.34,1.32-.55,2l-1.07,3.17Z"/></svg>