<svg id="Layer_1" data-name="Layer 1" xmlns="http://www.w3.org/2000/svg" viewBox="0 0 268.27 128.87"><defs><style>.cls-1{fill:#6d6e71;}.cls-2{fill:#0095da;}.cls-3{fill:#fdba4d;}.cls-4{fill:#357d58;}.cls-5{fill:#50b848;}</style></defs><title>Artboard 1</title><path class="cls-1" d="M110.57,46.82V34.06a2.14,2.14,0,0,1,.52-1.54,1.87,1.87,0,0,1,1.42-.55h4.29a7.71,7.71,0,0,1,5,1.42,5.06,5.06,0,0,1,1.73,4.14q0,5.5-6.69,5.52h-2.47v3.75q0,1.71-1.65,1.71h-.57q-1.6,0-1.6-1.7m3.76-6.55h2.48a3.47,3.47,0,0,0,2.33-.7,2.48,2.48,0,0,0,.81-2q0-2.66-3.17-2.68h-2.45Z"/><path class="cls-1" d="M125.51,46.82V31.16s.06-.1.17-.16a2.38,2.38,0,0,1,.51-.16,3,3,0,0,1,.66-.07q2.23,0,2.25,2.87V46.82q0,1.7-1.58,1.7h-.38q-1.63,0-1.63-1.7"/><path class="cls-1" d="M131.25,45.12A3.34,3.34,0,0,1,133.19,42a14,14,0,0,1,6-1.07h.41q0-2.37-2.55-2.37A3.16,3.16,0,0,0,134,40.37s-.19.06-.57,0a2.54,2.54,0,0,1-1.16-.42,1.2,1.2,0,0,1-.58-1.07,2.65,2.65,0,0,1,1.48-2.23,7.77,7.77,0,0,1,4.14-.93q5.9,0,5.9,5.11V48.2q0,.12-.43.26a3.1,3.1,0,0,1-.94.14,2,2,0,0,1-2.14-1.95,4.89,4.89,0,0,1-4.31,2.06,4.41,4.41,0,0,1-3-1,3.31,3.31,0,0,1-1.11-2.59m3.43-.26a1.32,1.32,0,0,0,.52,1.09,2.22,2.22,0,0,0,1.41.41,3.09,3.09,0,0,0,2.18-.79,2.6,2.6,0,0,0,.86-2v-.72l-.66,0a9.07,9.07,0,0,0-3.24.52,1.54,1.54,0,0,0-1.07,1.46"/><path class="cls-1" d="M144.54,37.58v-.24Q144.54,36,146,36h.61V34.45q0-1.72,1.63-1.74h.3q1.61,0,1.61,1.74V36h2.15q1.45,0,1.45,1.27v.2q0,1.32-1.47,1.33h-2.2v5.32q0,1.83,1.38,1.83a2,2,0,0,0,1.6-.84s.1,0,.24.09a1.33,1.33,0,0,1,.42.49,1.64,1.64,0,0,1,.2.81,1.91,1.91,0,0,1-.9,1.6,4,4,0,0,1-2.38.64q-4,0-4-4.24v-5.7H146q-1.49,0-1.49-1.24"/><path class="cls-1" d="M154.84,45.12A3.34,3.34,0,0,1,156.79,42a14,14,0,0,1,6-1.07h.41q0-2.37-2.55-2.37a3.16,3.16,0,0,0-3.07,1.83s-.19.06-.57,0a2.54,2.54,0,0,1-1.16-.42,1.2,1.2,0,0,1-.58-1.07,2.65,2.65,0,0,1,1.48-2.23,7.77,7.77,0,0,1,4.14-.93q5.9,0,5.9,5.11V48.2q0,.12-.43.26a3.1,3.1,0,0,1-.94.14,2,2,0,0,1-2.14-1.95A4.89,4.89,0,0,1,159,48.71a4.41,4.41,0,0,1-3-1,3.31,3.31,0,0,1-1.11-2.59m3.43-.26a1.32,1.32,0,0,0,.52,1.09,2.22,2.22,0,0,0,1.41.41,3.09,3.09,0,0,0,2.18-.79,2.6,2.6,0,0,0,.86-2v-.72l-.66,0a9.06,9.06,0,0,0-3.24.52,1.53,1.53,0,0,0-1.07,1.46"/><path class="cls-1" d="M168.11,37.49v-.2q0-1.27,1.5-1.27h1v-.67q0-4.79,4.29-4.79a4.05,4.05,0,0,1,2.35.57,1.69,1.69,0,0,1,.8,1.42,1.79,1.79,0,0,1-.18.77,2,2,0,0,1-.37.56c-.12.12-.19.16-.21.13a2.42,2.42,0,0,0-1.71-.66,1.37,1.37,0,0,0-1.15.47,2.5,2.5,0,0,0-.37,1.53V36h1.6q1.5,0,1.49,1.32v.24q0,1.24-1.49,1.24h-1.48v8a1.74,1.74,0,0,1-.41,1.32,1.69,1.69,0,0,1-1.19.38h-.38q-1.6,0-1.6-1.7v-8h-1q-1.5,0-1.5-1.33"/><path class="cls-1" d="M177.86,42.24a6.26,6.26,0,0,1,1.85-4.69,6.6,6.6,0,0,1,4.81-1.81,6.26,6.26,0,0,1,6.58,6.55A6.22,6.22,0,0,1,189.27,47a6.6,6.6,0,0,1-4.79,1.78,6.53,6.53,0,0,1-4.78-1.8,6.33,6.33,0,0,1-1.83-4.72m3.15,0a3.74,3.74,0,0,0,1,2.68,3.29,3.29,0,0,0,2.49,1,3.24,3.24,0,0,0,2.48-1,3.72,3.72,0,0,0,1-2.63,3.83,3.83,0,0,0-1-2.7,3.22,3.22,0,0,0-2.48-1.06,3.29,3.29,0,0,0-2.49,1,3.71,3.71,0,0,0-1,2.66"/><path class="cls-1" d="M193.16,46.82V36.3s.06-.08.17-.15a2,2,0,0,1,.5-.18,2.79,2.79,0,0,1,.67-.08,2,2,0,0,1,2.19,2.06,3,3,0,0,1,3-2.21,2.46,2.46,0,0,1,1.68.55,1.89,1.89,0,0,1,.62,1.49,2.07,2.07,0,0,1-.28,1.09,2,2,0,0,1-.54.64c-.18.12-.28.16-.32.13a2.34,2.34,0,0,0-1.62-.63q-2.51,0-2.51,4.05v3.74q0,1.71-1.58,1.71h-.37q-1.63,0-1.63-1.7"/><path class="cls-1" d="M203.7,46.82V36.3s.06-.08.17-.15a2,2,0,0,1,.5-.18,2.79,2.79,0,0,1,.67-.08,2,2,0,0,1,2.17,1.93A4.46,4.46,0,0,1,211,35.74a3.81,3.81,0,0,1,4,2.48,4.67,4.67,0,0,1,4.2-2.48,4.15,4.15,0,0,1,3.39,1.32,5.49,5.49,0,0,1,1.09,3.61v6.16q0,1.7-1.58,1.7h-.37q-1.63,0-1.63-1.71V41.2q0-2.54-2.17-2.53a2.61,2.61,0,0,0-1.42.42,2.91,2.91,0,0,0-1,1.12v6.6q0,1.71-1.58,1.71h-.36q-1.65,0-1.65-1.71V41.28q0-2.61-2.13-2.61a2.6,2.6,0,0,0-1.42.42,3,3,0,0,0-1,1.12v6.6q0,1.71-1.58,1.71h-.37q-1.63,0-1.63-1.7"/><path class="cls-1" d="M225.6,45.12A3.34,3.34,0,0,1,227.55,42a14,14,0,0,1,6-1.07H234q0-2.37-2.55-2.37a3.16,3.16,0,0,0-3.07,1.83s-.19.06-.57,0a2.54,2.54,0,0,1-1.16-.42,1.2,1.2,0,0,1-.58-1.07,2.65,2.65,0,0,1,1.48-2.23,7.77,7.77,0,0,1,4.14-.93q5.9,0,5.9,5.11V48.2q0,.12-.43.26a3.1,3.1,0,0,1-.94.14,2,2,0,0,1-2.14-1.95,4.89,4.89,0,0,1-4.31,2.06,4.41,4.41,0,0,1-3-1,3.31,3.31,0,0,1-1.11-2.59m3.43-.26a1.32,1.32,0,0,0,.52,1.09,2.22,2.22,0,0,0,1.41.41,3.09,3.09,0,0,0,2.18-.79,2.6,2.6,0,0,0,.86-2v-.72l-.66,0a9.06,9.06,0,0,0-3.24.52A1.53,1.53,0,0,0,229,44.86"/><path class="cls-1" d="M109.77,67.72a6.9,6.9,0,0,1,1.6-4.77,5.36,5.36,0,0,1,4.2-1.79,5.09,5.09,0,0,1,2.34.53,4.23,4.23,0,0,1,1.63,1.4V56.64s.06-.1.17-.16a2.35,2.35,0,0,1,.51-.16,3,3,0,0,1,.66-.07q2.24,0,2.24,2.86V72.25q0,1.69-1.57,1.7h-.39a1.46,1.46,0,0,1-1.63-1.66v-.4a4.36,4.36,0,0,1-4,2.3,5.3,5.3,0,0,1-4.15-1.79,6.74,6.74,0,0,1-1.6-4.66m3.46,0a3.87,3.87,0,0,0,.89,2.64,2.9,2.9,0,0,0,2.29,1,3.19,3.19,0,0,0,2.21-.83,2.71,2.71,0,0,0,.92-2.12V66.07a3.1,3.1,0,0,0-3.08-2,3,3,0,0,0-2.35,1,3.86,3.86,0,0,0-.87,2.64"/><path class="cls-1" d="M125.13,67.74A6.45,6.45,0,0,1,127,63a6.25,6.25,0,0,1,4.66-1.87,6,6,0,0,1,4.46,1.73,6.09,6.09,0,0,1,1.71,4.48v.25a1.39,1.39,0,0,1-.2.75.76.76,0,0,1-.65.24h-8.57a2.94,2.94,0,0,0,1.15,2,4,4,0,0,0,2.46.74,3.81,3.81,0,0,0,3.51-1.73s.16,0,.44.05a2,2,0,0,1,.84.48,1.24,1.24,0,0,1,.43,1,2.58,2.58,0,0,1-1.46,2.08,7.19,7.19,0,0,1-3.9.93A6.76,6.76,0,0,1,127,72.42a6.19,6.19,0,0,1-1.83-4.68m3.25-1.22h6.11a3,3,0,0,0-.82-2.08,2.79,2.79,0,0,0-2.08-.79,3,3,0,0,0-2.12.8,3.41,3.41,0,0,0-1.08,2.07"/><path class="cls-1" d="M144.44,72.24V59q0-1.7,1.6-1.7h.51A1.48,1.48,0,0,1,148.2,59V72.24a1.48,1.48,0,0,1-1.65,1.7H146q-1.6,0-1.6-1.7"/><path class="cls-1" d="M151.23,72.24V61.72s.06-.08.17-.15a2,2,0,0,1,.5-.18,2.79,2.79,0,0,1,.67-.08,2.05,2.05,0,0,1,2.17,2,4.69,4.69,0,0,1,4.09-2.13,4.18,4.18,0,0,1,3.45,1.42,5.74,5.74,0,0,1,1.15,3.72v5.94q0,1.7-1.58,1.7h-.38q-1.63,0-1.62-1.71V66.78a3,3,0,0,0-.59-2,2.08,2.08,0,0,0-1.7-.72,2.87,2.87,0,0,0-2.74,1.64v6.5q0,1.71-1.58,1.71h-.37q-1.63,0-1.63-1.7"/><path class="cls-1" d="M166,72.24V61.72s.06-.08.17-.15a2,2,0,0,1,.5-.18,2.79,2.79,0,0,1,.67-.08,2.05,2.05,0,0,1,2.17,2,4.69,4.69,0,0,1,4.09-2.13A4.18,4.18,0,0,1,177,62.58a5.74,5.74,0,0,1,1.15,3.72v5.94q0,1.7-1.58,1.7h-.39q-1.63,0-1.62-1.71V66.78a3,3,0,0,0-.59-2,2.08,2.08,0,0,0-1.7-.72,2.87,2.87,0,0,0-2.74,1.64v6.5q0,1.71-1.58,1.71h-.37q-1.63,0-1.63-1.7"/><path class="cls-1" d="M180.07,67.66A6.26,6.26,0,0,1,181.93,63a6.6,6.6,0,0,1,4.81-1.81,6.26,6.26,0,0,1,6.58,6.55,6.22,6.22,0,0,1-1.84,4.69,6.6,6.6,0,0,1-4.79,1.78,6.52,6.52,0,0,1-4.78-1.8,6.33,6.33,0,0,1-1.83-4.72m3.15,0a3.75,3.75,0,0,0,1,2.68,3.29,3.29,0,0,0,2.49,1,3.24,3.24,0,0,0,2.48-1,3.72,3.72,0,0,0,1-2.63,3.83,3.83,0,0,0-1-2.69A3.22,3.22,0,0,0,186.71,64a3.29,3.29,0,0,0-2.49,1,3.71,3.71,0,0,0-1,2.66"/><path class="cls-1" d="M193.87,62.35q0-.1.2-.35a2.5,2.5,0,0,1,.74-.48,2.31,2.31,0,0,1,1-.23q1.45,0,2,1.84l2.52,7.45,2.59-7.45q.58-1.83,1.95-1.84a2.29,2.29,0,0,1,1,.23,2.65,2.65,0,0,1,.74.48q.25.25.2.35l-4.44,10.71q-.39.94-2,.94t-2-.91Z"/><path class="cls-1" d="M207.38,70.54a3.34,3.34,0,0,1,1.95-3.15,14,14,0,0,1,6-1.07h.41q0-2.37-2.55-2.37a3.16,3.16,0,0,0-3.07,1.83s-.19.06-.57,0a2.55,2.55,0,0,1-1.16-.42,1.19,1.19,0,0,1-.58-1.07,2.65,2.65,0,0,1,1.48-2.23,7.76,7.76,0,0,1,4.14-.93q5.9,0,5.9,5.11v7.35q0,.12-.43.26A3.13,3.13,0,0,1,218,74a2,2,0,0,1-2.14-1.95,4.9,4.9,0,0,1-4.31,2.06,4.41,4.41,0,0,1-3-1,3.31,3.31,0,0,1-1.11-2.59m3.43-.26a1.32,1.32,0,0,0,.52,1.09,2.23,2.23,0,0,0,1.41.41,3.1,3.1,0,0,0,2.18-.79,2.6,2.6,0,0,0,.86-2v-.72l-.66,0a9.07,9.07,0,0,0-3.24.52,1.54,1.54,0,0,0-1.07,1.46"/><path class="cls-1" d="M221.23,67.64A6.24,6.24,0,0,1,223.07,63a6.4,6.4,0,0,1,4.69-1.82,6.06,6.06,0,0,1,3.92,1.12,3.06,3.06,0,0,1,1.37,2.27,1.3,1.3,0,0,1-.48,1.05,2.28,2.28,0,0,1-1,.51c-.32.07-.5.07-.53,0a3.11,3.11,0,0,0-3.16-2,3.21,3.21,0,0,0-2.43,1,3.51,3.51,0,0,0-1,2.53,3.64,3.64,0,0,0,1,2.6,3.18,3.18,0,0,0,2.43,1,3.13,3.13,0,0,0,3.16-2q0-.1.52,0a2.06,2.06,0,0,1,1,.5,1.37,1.37,0,0,1,.48,1.09,3.07,3.07,0,0,1-1.4,2.24,6,6,0,0,1-3.89,1.14,6.29,6.29,0,0,1-6.53-6.54"/><path class="cls-1" d="M234.84,57.73a1.45,1.45,0,0,1,.53-1.19,2.77,2.77,0,0,1,3,0,1.45,1.45,0,0,1,.54,1.2,1.48,1.48,0,0,1-.54,1.21,2.72,2.72,0,0,1-3,0,1.49,1.49,0,0,1-.53-1.22m.21,14.51V63q0-1.72,1.6-1.74H237q1.6,0,1.61,1.74v9.2q0,1.7-1.58,1.7h-.39q-1.63,0-1.63-1.7"/><path class="cls-1" d="M240.76,67.66A6.26,6.26,0,0,1,242.62,63a6.6,6.6,0,0,1,4.81-1.81A6.26,6.26,0,0,1,254,67.71a6.23,6.23,0,0,1-1.84,4.69,6.6,6.6,0,0,1-4.79,1.78,6.53,6.53,0,0,1-4.78-1.8,6.33,6.33,0,0,1-1.83-4.72m3.15,0a3.75,3.75,0,0,0,1,2.68,3.29,3.29,0,0,0,2.49,1,3.23,3.23,0,0,0,2.48-1,3.72,3.72,0,0,0,1-2.63,3.82,3.82,0,0,0-1-2.69A3.21,3.21,0,0,0,247.4,64a3.29,3.29,0,0,0-2.49,1,3.71,3.71,0,0,0-1,2.66m2.61-7.86c-.46,0-.73-.08-.8-.19s0-.4.28-.86a9.55,9.55,0,0,1,1.14-1.55,7.13,7.13,0,0,1,1.51-1.35,2.32,2.32,0,0,1,1.28-.43,1.69,1.69,0,0,1,1.15.41,1.27,1.27,0,0,1,.47,1,2.22,2.22,0,0,1-1.25,1.92,7,7,0,0,1-2,.82,7.06,7.06,0,0,1-1.77.24"/><path class="cls-1" d="M256.07,72.24V61.72s.06-.08.17-.15a2,2,0,0,1,.5-.18,2.79,2.79,0,0,1,.67-.08,2.05,2.05,0,0,1,2.17,2,4.69,4.69,0,0,1,4.09-2.13,4.18,4.18,0,0,1,3.45,1.42,5.74,5.74,0,0,1,1.15,3.72v5.94q0,1.7-1.58,1.7h-.39q-1.63,0-1.62-1.71V66.78a3,3,0,0,0-.59-2,2.08,2.08,0,0,0-1.7-.72,2.87,2.87,0,0,0-2.74,1.64v6.5q0,1.71-1.58,1.71h-.37q-1.63,0-1.63-1.7"/><path class="cls-1" d="M109.77,93.06a6.24,6.24,0,0,1,1.84-4.64,6.4,6.4,0,0,1,4.69-1.82,6.07,6.07,0,0,1,3.92,1.12A3.06,3.06,0,0,1,121.6,90a1.3,1.3,0,0,1-.48,1.05,2.28,2.28,0,0,1-1,.51c-.32.07-.5.07-.53,0a3.11,3.11,0,0,0-3.16-2,3.21,3.21,0,0,0-2.43,1,3.52,3.52,0,0,0-1,2.53,3.65,3.65,0,0,0,1,2.6,3.19,3.19,0,0,0,2.43,1,3.13,3.13,0,0,0,3.16-2q0-.1.52,0a2.06,2.06,0,0,1,1,.5,1.37,1.37,0,0,1,.48,1.09,3.07,3.07,0,0,1-1.4,2.24,6,6,0,0,1-3.89,1.14,6.29,6.29,0,0,1-6.53-6.54"/><path class="cls-1" d="M122.83,93.07a6.26,6.26,0,0,1,1.85-4.69,6.59,6.59,0,0,1,4.81-1.81,6.26,6.26,0,0,1,6.58,6.55,6.22,6.22,0,0,1-1.84,4.69,6.6,6.6,0,0,1-4.79,1.78,6.53,6.53,0,0,1-4.79-1.8,6.33,6.33,0,0,1-1.83-4.72m3.15,0a3.75,3.75,0,0,0,1,2.68,3.29,3.29,0,0,0,2.49,1,3.24,3.24,0,0,0,2.48-1,3.72,3.72,0,0,0,1-2.63,3.83,3.83,0,0,0-1-2.69,3.22,3.22,0,0,0-2.48-1.06,3.29,3.29,0,0,0-2.49,1,3.71,3.71,0,0,0-1,2.66"/><path class="cls-1" d="M138.13,97.66V87.14s.06-.08.17-.15a2,2,0,0,1,.5-.18,2.78,2.78,0,0,1,.67-.08,2.05,2.05,0,0,1,2.17,2,4.7,4.7,0,0,1,4.09-2.13A4.18,4.18,0,0,1,149.19,88a5.74,5.74,0,0,1,1.15,3.72v5.94q0,1.7-1.58,1.7h-.38q-1.63,0-1.62-1.71V92.19a3,3,0,0,0-.59-2,2.08,2.08,0,0,0-1.7-.72,2.87,2.87,0,0,0-2.74,1.64v6.5q0,1.71-1.58,1.71h-.37q-1.63,0-1.63-1.7"/><path class="cls-1" d="M156.51,96.28a1.69,1.69,0,0,1,.33-1,2.8,2.8,0,0,1,.68-.72c.23-.16.37-.23.42-.19A6,6,0,0,0,160,96a6.29,6.29,0,0,0,2.78.65,4,4,0,0,0,2.23-.52,1.69,1.69,0,0,0,.78-1.49,1.39,1.39,0,0,0-.18-.7,1.66,1.66,0,0,0-.39-.49,2.55,2.55,0,0,0-.72-.35,7.87,7.87,0,0,0-.81-.25l-1-.23-.47-.11a14.91,14.91,0,0,1-2-.55,8,8,0,0,1-1.66-.86,3.61,3.61,0,0,1-1.27-1.45,4.71,4.71,0,0,1-.43-2.08,4.5,4.5,0,0,1,1.74-3.7,7.28,7.28,0,0,1,4.67-1.39,8.6,8.6,0,0,1,4.34.92q1.56.92,1.57,2.09a1.72,1.72,0,0,1-.37,1,3.16,3.16,0,0,1-.72.74c-.24.16-.37.23-.42.19A5.85,5.85,0,0,0,165.81,86a5.51,5.51,0,0,0-2.45-.57,3.65,3.65,0,0,0-2.1.52,1.67,1.67,0,0,0-.75,1.44,1.62,1.62,0,0,0,.05.42,1.06,1.06,0,0,0,.16.35,1.92,1.92,0,0,0,.23.28,1.11,1.11,0,0,0,.37.22l.41.17a2.8,2.8,0,0,0,.5.15l.54.12.62.14.65.14a10.06,10.06,0,0,1,4.06,1.72,3.93,3.93,0,0,1,1.5,3.3,4.59,4.59,0,0,1-1.76,3.84,8,8,0,0,1-5,1.37,8.93,8.93,0,0,1-4.69-1,2.83,2.83,0,0,1-1.65-2.29"/><path class="cls-1" d="M171,93.16a6.45,6.45,0,0,1,1.83-4.71,6.25,6.25,0,0,1,4.66-1.87,6,6,0,0,1,4.45,1.73,6.09,6.09,0,0,1,1.71,4.48V93a1.38,1.38,0,0,1-.2.75.76.76,0,0,1-.65.24h-8.57a2.93,2.93,0,0,0,1.15,2,4,4,0,0,0,2.46.74,3.81,3.81,0,0,0,3.51-1.73s.16,0,.44.05a2,2,0,0,1,.84.48,1.24,1.24,0,0,1,.43,1,2.58,2.58,0,0,1-1.46,2.08,7.19,7.19,0,0,1-3.9.93,6.76,6.76,0,0,1-4.89-1.76A6.19,6.19,0,0,1,171,93.16m3.25-1.22h6.11a3,3,0,0,0-.83-2.08,2.78,2.78,0,0,0-2.08-.79,3,3,0,0,0-2.12.8,3.41,3.41,0,0,0-1.08,2.07"/><path class="cls-1" d="M185.64,97.66V87.14s.06-.08.17-.15a2,2,0,0,1,.5-.18,2.79,2.79,0,0,1,.67-.08,2.05,2.05,0,0,1,2.17,2,4.69,4.69,0,0,1,4.09-2.13A4.18,4.18,0,0,1,196.7,88a5.74,5.74,0,0,1,1.15,3.72v5.94q0,1.7-1.58,1.7h-.39q-1.63,0-1.62-1.71V92.19a3,3,0,0,0-.59-2,2.08,2.08,0,0,0-1.7-.72,2.87,2.87,0,0,0-2.74,1.64v6.5q0,1.71-1.58,1.71h-.37q-1.63,0-1.63-1.7"/><path class="cls-1" d="M199.17,88.41v-.23q0-1.32,1.49-1.32h.61V85.29q0-1.72,1.63-1.74h.3q1.61,0,1.61,1.74v1.58H207q1.45,0,1.45,1.27v.2q0,1.32-1.47,1.33h-2.2V95q0,1.83,1.38,1.83a2,2,0,0,0,1.6-.84s.1,0,.24.09a1.33,1.33,0,0,1,.42.49,1.63,1.63,0,0,1,.2.81,1.91,1.91,0,0,1-.9,1.6,4,4,0,0,1-2.38.64q-4,0-4-4.24v-5.7h-.61q-1.49,0-1.49-1.24"/><path class="cls-1" d="M210.26,83.15a1.45,1.45,0,0,1,.53-1.19,2.76,2.76,0,0,1,3,0,1.45,1.45,0,0,1,.54,1.2,1.48,1.48,0,0,1-.54,1.21,2.71,2.71,0,0,1-3,0,1.49,1.49,0,0,1-.53-1.22m.21,14.51v-9.2q0-1.73,1.6-1.74h.37q1.6,0,1.61,1.74v9.2q0,1.7-1.58,1.7h-.39q-1.63,0-1.63-1.7"/><path class="cls-1" d="M216.18,93.14a6.89,6.89,0,0,1,1.6-4.77A5.35,5.35,0,0,1,222,86.58a5.08,5.08,0,0,1,2.34.53,4.22,4.22,0,0,1,1.63,1.39V82.06s.06-.1.17-.16a2.37,2.37,0,0,1,.51-.16,3.08,3.08,0,0,1,.66-.07q2.24,0,2.24,2.86V97.67q0,1.69-1.57,1.7h-.39a1.46,1.46,0,0,1-1.63-1.66v-.4a4.36,4.36,0,0,1-4,2.3,5.29,5.29,0,0,1-4.14-1.79,6.73,6.73,0,0,1-1.6-4.66m3.46,0a3.88,3.88,0,0,0,.89,2.64,2.9,2.9,0,0,0,2.29,1A3.19,3.19,0,0,0,225,96a2.72,2.72,0,0,0,.92-2.12V91.49a3.1,3.1,0,0,0-3.08-2,3,3,0,0,0-2.35,1,3.86,3.86,0,0,0-.87,2.64"/><path class="cls-1" d="M231.55,93.07a6.26,6.26,0,0,1,1.85-4.69,6.59,6.59,0,0,1,4.81-1.81,6.26,6.26,0,0,1,6.58,6.55A6.22,6.22,0,0,1,243,97.82a6.6,6.6,0,0,1-4.79,1.78,6.52,6.52,0,0,1-4.78-1.8,6.33,6.33,0,0,1-1.83-4.72m3.15,0a3.75,3.75,0,0,0,1,2.68,3.29,3.29,0,0,0,2.49,1,3.24,3.24,0,0,0,2.48-1,3.72,3.72,0,0,0,1-2.63,3.83,3.83,0,0,0-1-2.69,3.22,3.22,0,0,0-2.48-1.06,3.29,3.29,0,0,0-2.49,1,3.71,3.71,0,0,0-1,2.66"/><path class="cls-2" d="M1.76,79.6a9.5,9.5,0,0,1,13-3.48l4.75,2.74V53.16L42.09,40,23.44,28.89,5.21,39.48A9.5,9.5,0,0,0,.48,47.7v71.67a9.5,9.5,0,0,0,19,0V100.81L5.24,92.58a9.5,9.5,0,0,1-3.48-13"/><path class="cls-2" d="M46.68,20.63l.74.44c-.24-.16-.49-.31-.74-.44"/><path class="cls-3" d="M78.91,92.13l-.46.29.46-.29"/><path class="cls-3" d="M81.92,88.69l-.22.4.22-.4"/><path class="cls-3" d="M82.31,87.83c-.06.16-.13.32-.2.47.07-.15.14-.31.2-.47"/><path class="cls-3" d="M82.81,86.08c0,.17-.07.33-.11.5,0-.16.08-.33.11-.5"/><path class="cls-3" d="M81.45,89.51l-.22.33.22-.33"/><path class="cls-3" d="M82.6,87c0,.17-.1.34-.16.51.06-.17.11-.33.16-.51"/><path class="cls-3" d="M50.39,24.22a9.5,9.5,0,0,1-3.44,13L42.09,40,64,53.09V78.87l4.75-2.74A9.48,9.48,0,0,1,83,84.61c0-.09,0-.17,0-.26V47.7a9.5,9.5,0,0,0-4.63-8.16L47.42,21.08a9.43,9.43,0,0,1,3,3.14"/><path class="cls-3" d="M79.63,91.58l-.34.27.34-.27"/><path class="cls-3" d="M46.68,20.63,14.37,1.34A9.5,9.5,0,1,0,4.63,17.66L23.44,28.89l14-8.11a9.48,9.48,0,0,1,9.27-.14"/><path class="cls-3" d="M80.29,91l-.27.26.27-.26"/><path class="cls-3" d="M80.67,90.55l.23-.28-.23.28"/><path class="cls-3" d="M82.93,85.18c0,.15,0,.29-.05.44,0-.14,0-.29.05-.44"/><path class="cls-4" d="M46.95,37.2a9.48,9.48,0,0,0,.47-16.13l-.74-.44a9.49,9.49,0,0,0-9.27.14l-14,8.11L42.09,40Z"/><path class="cls-5" d="M80.67,90.55l-.38.41.38-.41"/><path class="cls-5" d="M79.29,91.85l-.37.28.37-.28"/><path class="cls-5" d="M83,84.61c0,.19,0,.38,0,.57,0-.19,0-.38,0-.57"/><path class="cls-5" d="M80,91.22l-.4.36.4-.36"/><path class="cls-5" d="M81.7,89.09l-.25.42.25-.42"/><path class="cls-5" d="M81.22,89.84l-.32.43.32-.43"/><path class="cls-5" d="M82.88,85.61c0,.16,0,.31-.07.46,0-.15.05-.31.07-.46"/><path class="cls-5" d="M64,84.35V78.87L41.73,91.71,19.48,78.87v21.94L37,110.91a9.5,9.5,0,0,0,9.5,0L78.22,92.58l.23-.15A9.49,9.49,0,0,1,64,84.35"/><path class="cls-5" d="M82.1,88.3l-.19.38.19-.38"/><path class="cls-5" d="M82.7,86.57c0,.13-.06.26-.1.39,0-.13.07-.26.1-.39"/><path class="cls-5" d="M82.44,87.47c0,.12-.09.25-.13.37,0-.12.09-.24.13-.37"/><path class="cls-4" d="M14.73,76.13a9.5,9.5,0,1,0-9.5,16.46l14.25,8.23V78.87Z"/><path class="cls-4" d="M81.22,89.84l.22-.33.25-.42.22-.4.18-.38c.07-.15.14-.31.2-.47l.13-.37c.06-.17.11-.34.16-.51s.07-.26.1-.39.08-.33.11-.5,0-.31.07-.46,0-.29.05-.44,0-.38,0-.57a9.49,9.49,0,0,0-14.24-8.48L64,78.87v5.48a9.49,9.49,0,0,0,14.48,8.08l.46-.29.37-.28.34-.27.4-.36.27-.26.38-.41.23-.28.32-.43"/></svg>