<?xml version="1.0" encoding="UTF-8"?>
<svg width="60px" height="66px" viewBox="0 0 60 66" version="1.1" xmlns="http://www.w3.org/2000/svg" xmlns:xlink="http://www.w3.org/1999/xlink">
    <!-- Generator: Sketch 61.2 (89653) - https://sketch.com -->
    <title>Group</title>
    <desc>Created with Sketch.</desc>
    <g id="Opcion-D" stroke="none" stroke-width="1" fill="none" fill-rule="evenodd">
        <g id="Final-General" transform="translate(-158.000000, -202.000000)">
            <g id="Group" transform="translate(158.000000, 202.000000)">
                <circle id="Oval" fill="#B9CFEB" cx="28" cy="38" r="28"></circle>
                <g id="good" fill="#0A2127" fill-rule="nonzero">
                    <path d="M58.4097291,25.703888 C57.7876282,24.7645569 56.844635,24.117279 55.748291,23.8719177 C56.4555359,22.519226 56.4266967,20.8314514 55.5258178,19.4714355 C54.8849487,18.5032654 53.9181518,17.8779602 52.8657532,17.6412963 C53.0534362,17.2833252 53.1921387,16.8969727 53.2749939,16.489563 C53.5047913,15.3565979 53.280487,14.2021179 52.6419068,13.2385254 C52.0198059,12.2987366 51.0768128,11.6514587 49.9804687,11.4065552 C50.6877136,10.0538636 50.6588745,8.36608887 49.7579955,7.00561523 C48.4410095,5.01663211 45.7502747,4.46960449 43.7608337,5.78704828 L39.4532776,8.63983148 C37.157135,7.4752807 34.7149658,6.6490173 32.1803284,6.17843625 C31.3792419,4.9621582 30.4476928,3.83148188 29.4049072,2.82073969 L27.6228333,1.09359738 C26.317749,-0.171661406 24.2710876,-0.361633359 22.7558899,0.642242461 C20.9632874,1.82922363 20.4707337,4.25354004 21.6577148,6.04614258 C21.7044068,6.11709598 21.750183,6.18850711 21.7955017,6.25991824 C15.9539795,7.44186398 10.630188,10.5418396 6.68975836,15.0842285 C2.41378781,20.0138855 0.05859375,26.327362 0.05859375,32.8614807 C0.05859375,34.1139221 0.144195586,35.3686523 0.313568086,36.5899658 C1.61865234,46.0844421 7.94311523,54.26651 16.8182373,57.9437256 C20.109558,59.3078613 23.6018372,60 27.1966553,60 C32.889862,60 38.3395385,58.2563782 42.9570007,54.9581909 C47.4742126,51.730957 50.8538818,47.2773743 52.7311706,42.07901 C52.9064941,41.594696 52.6551819,41.0595703 52.1708679,40.8847045 C51.6860963,40.7098389 51.1514283,40.9606934 50.9765625,41.4454651 C49.228363,46.2863159 46.0803223,50.4336548 41.8721009,53.4397888 C37.5732422,56.5109252 32.4984741,58.1341553 27.1966553,58.1341553 C24.4555664,58.1341553 21.7790222,57.7015686 19.2173767,56.8482971 L26.8080139,51.8215943 C26.8084717,51.8211364 26.8089294,51.8211364 26.8093873,51.8206787 C26.809845,51.8206787 26.809845,51.820221 26.8103027,51.8197631 L33.1187439,47.6422119 L33.1192017,47.6422119 C33.6854554,47.2668457 34.0722656,46.6937256 34.2077637,46.0276794 C34.3432617,45.3616334 34.2114258,44.682312 33.8360596,44.1160583 L33.7527466,43.9897155 L34.97818,43.1781006 C35.8525085,42.5990296 36.9039916,42.3719788 37.9394531,42.538147 C39.4386292,42.7789307 40.9611511,42.4493408 42.2264099,41.6111755 L52.3905945,34.8802185 C52.3210144,35.7618714 52.2065735,36.6384888 52.0468139,37.5004577 C51.9525146,38.0072021 52.2871399,38.4942627 52.7938842,38.5881042 C52.8511048,38.5990905 52.9087829,38.604126 52.9650879,38.604126 C53.4059143,38.604126 53.79776,38.2901002 53.881073,37.8410339 C54.1397095,36.4498901 54.2884827,35.0248718 54.3269348,33.5980225 L57.1911621,31.7010498 C58.1547546,31.0629272 58.8125611,30.0874329 59.0423584,28.9549255 C59.2726136,27.8219604 59.0478516,26.6674805 58.4097291,25.703888 L58.4097291,25.703888 Z M37.6419068,9.83917242 L34.7914124,11.7269897 L34.2301941,10.2149964 C33.9958191,9.58419797 33.7271119,8.96575922 33.4295654,8.3605957 C34.8756409,8.72726438 36.283722,9.22164914 37.6419068,9.83917242 Z M8.09921262,16.3069153 C11.8862916,11.9412232 17.0448304,9.00650027 22.6881409,7.9888916 C23.5935974,10.1824951 23.8105774,12.6333619 23.2695007,14.9693298 L20.994873,24.7961426 C20.6373596,24.4143677 20.1731872,24.1511536 19.6504212,24.0449524 C18.9839173,23.9089966 18.3050537,24.0412903 17.7388001,24.4166565 L11.2957764,28.6830139 C11.2953186,28.6830139 11.2953186,28.6830139 11.2948608,28.6834717 C11.2948608,28.6834717 11.294403,28.6834717 11.294403,28.6839294 L2.00180051,34.8376465 C1.95098883,34.1821289 1.92443848,33.5215759 1.92443848,32.8614807 C1.92443848,26.776886 4.11758426,20.8973694 8.09921262,16.3069153 Z M32.3794556,45.6555176 C32.3432923,45.8331299 32.2398376,45.9864807 32.0883178,46.086731 L32.0887757,46.086731 L26.5480042,49.7557068 L16.2643432,34.4192505 C15.9773255,33.9912415 15.3977966,33.8772584 14.9697877,34.1642761 C14.5422363,34.4512939 14.4277955,35.030365 14.7148132,35.458374 L24.9920654,50.7861328 L17.0823669,56.0243225 C9.22256473,52.5865173 3.59802246,45.3263855 2.24578852,36.8783569 L11.5493775,30.7374573 L12.6200866,32.3350525 C12.8004456,32.603302 13.0952454,32.7484131 13.3959961,32.7484131 C13.574524,32.7484131 13.7553405,32.6976013 13.9146423,32.5904846 C14.3426514,32.3034668 14.4570923,31.723938 14.1700745,31.295929 L13.1066895,29.7097779 L18.769226,25.9721374 C18.9198304,25.8718873 19.100647,25.8370971 19.2782592,25.8732605 C19.4558716,25.9094238 19.6092224,26.0128784 19.7094727,26.1639404 L32.2805787,45.1464844 C32.3803711,45.2970886 32.4156189,45.4779053 32.3794556,45.6555176 L32.3794556,45.6555176 Z M57.2140502,28.5832214 C57.0831299,29.2277527 56.709137,29.7825622 56.1607361,30.1455689 L52.8863525,32.3139954 C52.885437,32.3144531 52.8845215,32.3153686 52.8831482,32.3158264 L41.1959838,40.0556946 C40.3216553,40.6347656 39.2701721,40.8622741 38.2347107,40.6956482 C36.7359925,40.4553223 35.2134704,40.7844544 33.9477539,41.6226197 L32.7223206,42.4342346 L22.4263001,26.887207 L25.087738,15.3904724 C25.7730103,12.4287415 25.4118347,9.30908203 24.1062927,6.59133914 C24.0943909,6.56295773 24.0815735,6.53549191 24.0669251,6.50848383 C23.8160706,5.99487305 23.5313415,5.49636844 23.2131959,5.01571652 C22.5942994,4.08096316 22.8511048,2.81707758 23.7863159,2.19772336 C24.576416,1.67449945 25.6439209,1.77337641 26.3241577,2.43301395 L28.1062317,4.16061398 C30.0338745,6.02966309 31.5467835,8.34777832 32.4806214,10.864563 L33.4510804,13.4788513 C33.4529114,13.4838867 33.4547425,13.4880066 33.4565735,13.4925843 C33.4588623,13.4985352 33.4616088,13.5049439 33.4638977,13.5108948 C33.4707642,13.5269166 33.4771729,13.541565 33.4840393,13.5539245 C33.5028076,13.5932923 33.523407,13.6322021 33.5481262,13.669281 C33.8328552,14.0991211 34.4114685,14.2167663 34.8408509,13.9320374 L44.7912598,7.34298703 C45.9228516,6.59362793 47.4531555,6.90444949 48.2025146,8.03604129 C48.9518737,9.16763309 48.6410522,10.697937 47.5094604,11.4472962 L46.6456604,12.0195007 C46.6456604,12.0195007 46.6452026,12.0195007 46.6447448,12.0199584 L44.7180176,13.2962037 C44.7152709,13.2980346 44.71344,13.2998658 44.7106934,13.301239 C44.699707,13.3090209 44.6891784,13.3163452 44.680481,13.3236694 C44.2822266,13.6161804 44.1792298,14.1723633 44.4552612,14.5889283 C44.7395325,15.0187683 45.3186035,15.1364135 45.7484436,14.8516846 L47.6765442,13.574524 C48.2244873,13.2124329 48.8804626,13.0847168 49.5245361,13.2156373 C50.1686096,13.3465576 50.723877,13.7205505 51.0864258,14.2689514 C51.4494323,14.8168945 51.5776062,15.4737854 51.4466858,16.1178588 C51.3157654,16.7623901 50.9417725,17.3171998 50.3933716,17.6802063 L47.6019287,19.5291138 C47.1720886,19.813385 47.0544434,20.3919983 47.3391724,20.8218384 C47.5186158,21.0928345 47.8152466,21.2397766 48.1178284,21.2397766 C48.2945251,21.2397766 48.4735107,21.1894226 48.631897,21.0845947 L49.0640259,20.7984925 L50.559082,19.8083496 C51.6911316,19.0589905 53.2209778,19.369812 53.9703369,20.5014037 C54.719696,21.6334534 54.4088745,23.1632995 53.2772827,23.9131165 L51.8829346,24.8364258 C51.8756104,24.8410034 51.8682861,24.8460388 51.8609619,24.8510742 L50.4858398,25.7615661 C50.0559997,26.0458373 49.9383545,26.6249085 50.2230834,27.0547486 C50.4025268,27.3257447 50.6991577,27.4726868 51.0017395,27.4726868 C51.1784362,27.4726868 51.3574219,27.4223327 51.515808,27.3175049 L51.947937,27.0314026 C51.947937,27.0314026 51.947937,27.0309448 51.9483948,27.0309448 L53.4434509,26.0412598 C53.991394,25.6782532 54.6478271,25.5500794 55.2923584,25.6814576 C55.9368896,25.8119202 56.4916992,26.1863708 56.8547058,26.7343139 C57.2172546,27.2822571 57.3449707,27.9391479 57.2140502,28.5832214 Z" id="Shape"></path>
                </g>
            </g>
        </g>
    </g>
</svg>