<?xml version="1.0" encoding="utf-8"?>
<!-- Generator: Adobe Illustrator 21.0.0, SVG Export Plug-In . SVG Version: 6.00 Build 0)  -->
<svg version="1.1" id="Layer_1" xmlns="http://www.w3.org/2000/svg" xmlns:xlink="http://www.w3.org/1999/xlink" x="0px" y="0px"
	 viewBox="0 0 260.4 512" style="enable-background:new 0 0 260.4 512;" xml:space="preserve">
<g fill="#0B2F47">
	<g>
		<path d="M165.1,107.5c9.6,0,17.6,3,24.5,9c7.1,6.2,12.9,15.8,17.3,28.5c12.2,35.4,37.1,103.8,45.2,126.2c1.3,3.5,2.2,6.1,2.3,6.5
			l0,0v0.1c1.4,3.8,1.2,7.9-0.5,11.5c-1.7,3.7-4.7,6.5-8.5,7.8c-1.7,0.6-3.4,0.9-5.1,0.9c-6.3,0-12-4-14.2-9.9
			c-0.2-0.6-0.9-2.5-3.9-10.7c-7.4-20.4-22.9-62.9-34.9-96.9l-5-14l-4.5,14.2c-0.5,1.5-1.2,3.7-0.3,156.1c0.4,75,1.1,150.3,1.1,151
			c0,10.5-8.6,19.1-19.1,19.1s-19.1-8.6-19.1-19.1V338v-5.4l-5.4,0.5c-1.6,0.1-3.2,0.2-4.8,0.2c-1.6,0-3.2-0.1-4.8-0.2l-5.4-0.5
			v5.4v149.9c0,10.5-8.6,19.1-19.1,19.1s-19.1-8.6-19.1-19.1c0-0.8,0.6-76.1,1-151c0.9-152.4,0.2-154.6-0.2-156l-4.4-14.7
			l-5.1,14.5C57.4,225,35.3,285.5,34.4,288l0,0v0.1c-2.2,5.9-7.9,9.9-14.2,9.9c-1.8,0-3.5-0.3-5.2-0.9c-3.8-1.4-6.8-4.1-8.5-7.8
			c-1.7-3.7-1.9-7.8-0.5-11.6v-0.1l0,0c0.1-0.3,1-2.8,2.2-6.2c21.9-60.3,37.2-102.9,45.3-126.5c4.4-12.7,10.2-22.3,17.3-28.5
			c6.9-6.1,14.9-9,24.5-9h69.8 M165.1,102.5c-29.9,0-39.9,0-69.8,0c-21.5,0-37.1,13.8-46.5,40.9C34.3,185.5,1.5,275.2,1.2,276.1
			c-3.8,10.4,1.5,22,12,25.8c2.3,0.8,4.6,1.2,6.9,1.2c8.2,0,16-5.1,18.9-13.2c0.3-0.7,22.8-62.3,38.8-107.6
			c1.4,4.7-1,305.6-1,305.6c0,13.3,10.8,24.1,24.1,24.1s24.1-10.8,24.1-24.1V338c1.8,0.1,3.5,0.2,5.2,0.2c1.7,0,3.4-0.1,5.2-0.2
			v149.9c0,13.3,10.8,24.1,24.1,24.1c13.3,0,24.1-10.8,24.1-24.1c0,0-2.5-300.9-1-305.6c16,45.3,38.6,106.9,38.8,107.6
			c3,8.1,10.7,13.2,18.9,13.2c2.3,0,4.6-0.4,6.9-1.2c10.4-3.8,15.8-15.4,12-25.8c-0.3-0.9-33.1-90.7-47.6-132.7
			C202.3,116.3,186.6,102.5,165.1,102.5L165.1,102.5z"/>
	</g>
	<g>
		<path d="M130.2,5c21.4,0,38.9,17.5,38.9,38.9s-17.5,38.9-38.9,38.9S91.3,65.3,91.3,43.9S108.8,5,130.2,5 M130.2,0
			C106,0,86.3,19.7,86.3,43.9s19.7,43.9,43.9,43.9s43.9-19.7,43.9-43.9S154.4,0,130.2,0L130.2,0z"/>
	</g>
</g>
</svg>
