<?xml version="1.0" encoding="utf-8"?>
<!-- Generator: Adobe Illustrator 21.0.0, SVG Export Plug-In . SVG Version: 6.00 Build 0)  -->
<svg version="1.1" id="Layer_1" xmlns="http://www.w3.org/2000/svg" xmlns:xlink="http://www.w3.org/1999/xlink" x="0px" y="0px"
	 viewBox="0 0 260.4 512" style="enable-background:new 0 0 260.4 512;" xml:space="preserve">
<g fill="#3fa6c9">
	<g>
		<path d="M259.2,276.1c-0.3-0.9-33.1-90.7-47.6-132.7c-9.3-27.1-25-40.9-46.5-40.9c-29.9,0-39.9,0-69.8,0
			c-21.5,0-37.1,13.8-46.5,40.9C34.3,185.5,1.5,275.2,1.2,276.1c-3.8,10.4,1.5,22,12,25.8c10.4,3.8,22-1.6,25.8-12
			c0.3-0.7,22.8-62.3,38.8-107.6c1.4,4.7-1,305.6-1,305.6c0,13.3,10.8,24.1,24.1,24.1s24.1-10.8,24.1-24.1V338
			c3.5,0.3,6.9,0.3,10.4,0v149.9c0,13.3,10.8,24.1,24.1,24.1c13.3,0,24.1-10.8,24.1-24.1c0,0-2.5-300.9-1-305.6
			c16,45.3,38.6,106.9,38.8,107.6c3.8,10.4,15.4,15.8,25.8,12S263,286.5,259.2,276.1z"/>
	</g>
	<g>
		<circle cx="130.2" cy="43.9" r="43.9"/>
	</g>
</g>
</svg>
