<?xml version="1.0" encoding="iso-8859-1"?>
<!-- Generator: Adobe Illustrator 18.1.1, SVG Export Plug-In . SVG Version: 6.00 Build 0)  -->
<svg version="1.1" id="Capa_1" xmlns="http://www.w3.org/2000/svg" xmlns:xlink="http://www.w3.org/1999/xlink" x="0px" y="0px"
	 viewBox="0 0 19.382 19.382" style="enable-background:new 0 0 19.382 19.382;" xml:space="preserve">
<g>
	<path style="fill:#3fa6c9;" d="M16.908,2.051h-0.356v1.662c0,0.952-0.773,1.727-1.726,1.727s-1.728-0.775-1.728-1.727V2.051H6.624
		v1.662c0,0.952-0.775,1.727-1.727,1.727c-0.951,0-1.727-0.775-1.727-1.727V2.051H2.475c-1.253,0-2.273,1.021-2.273,2.272v12.786
		c0,1.252,1.02,2.273,2.273,2.273h14.433c1.254,0,2.272-1.021,2.272-2.273V4.323C19.181,3.071,18.162,2.051,16.908,2.051z
		 M17.422,17.277H1.962V7.338h15.459v9.939H17.422z"/>
	<path style="fill:#3fa6c9;" d="M4.909,4.662c0.524,0,0.95-0.425,0.95-0.95V0.95C5.859,0.427,5.433,0,4.909,0
		s-0.95,0.426-0.95,0.95v2.763C3.959,4.237,4.385,4.662,4.909,4.662z"/>
	<path style="fill:#3fa6c9;" d="M14.838,4.662c0.523,0,0.948-0.425,0.948-0.95V0.95c0-0.523-0.425-0.95-0.948-0.95
		c-0.524,0-0.951,0.426-0.951,0.95v2.763C13.887,4.237,14.313,4.662,14.838,4.662z"/>
</g>
</svg>
