<svg xmlns="http://www.w3.org/2000/svg" viewBox="0 0 23.83 23.83"><defs><style>.cls-1{fill:#C1C1C1;}</style></defs><title>Asset 3</title><g id="Layer_2" data-name="Layer 2"><g id="Layer_1-2" data-name="Layer 1"><path class="cls-1" d="M11.91,0A11.91,11.91,0,1,0,23.83,11.91,11.92,11.92,0,0,0,11.91,0Zm0,23A11.12,11.12,0,1,1,23,11.91,11.13,11.13,0,0,1,11.91,23Z"/><path class="cls-1" d="M12.31,10.34v-4a.4.4,0,0,0-.79,0v4a1.58,1.58,0,0,0-1.13,1.13H7.54a.4.4,0,0,0,0,.79h2.84a1.58,1.58,0,1,0,1.93-1.93Zm-.4,2.33a.79.79,0,1,1,.8-.8A.8.8,0,0,1,11.91,12.66Z"/><path class="cls-1" d="M11.91,3.92a.4.4,0,0,0,.4-.4v-.4a.4.4,0,0,0-.79,0v.4A.4.4,0,0,0,11.91,3.92Z"/><path class="cls-1" d="M11.91,19.81a.4.4,0,0,0-.4.4v.4a.4.4,0,0,0,.8,0v-.4A.4.4,0,0,0,11.91,19.81Z"/><path class="cls-1" d="M20.65,11.47h-.4a.4.4,0,0,0,0,.79h.4a.4.4,0,0,0,0-.79Z"/><path class="cls-1" d="M3.57,11.47h-.4a.4.4,0,0,0,0,.79h.4a.4.4,0,0,0,0-.79Z"/><path class="cls-1" d="M17.81,5.41l-.28.28a.4.4,0,0,0,.28.68.4.4,0,0,0,.28-.12L18.37,6a.4.4,0,1,0-.56-.56Z"/><path class="cls-1" d="M5.74,17.48l-.28.28a.4.4,0,0,0,.28.68A.4.4,0,0,0,6,18.32L6.3,18a.4.4,0,0,0-.56-.56Z"/><path class="cls-1" d="M18.09,17.48a.4.4,0,0,0-.56.56l.28.28a.4.4,0,0,0,.28.12.4.4,0,0,0,.28-.68Z"/><path class="cls-1" d="M6,5.41A.4.4,0,1,0,5.46,6l.28.28A.39.39,0,0,0,6,6.37a.4.4,0,0,0,.28-.68Z"/></g></g></svg>
