<svg xmlns="http://www.w3.org/2000/svg" viewBox="0 0 49.63 49.63"><defs><style>.cls-1{fill:#1eb7e0;}.cls-2{fill:#fff;}</style></defs><title>Asset 4</title><g id="Layer_2" data-name="Layer 2"><g id="Layer_1-2" data-name="Layer 1"><circle class="cls-1" cx="24.81" cy="24.81" r="24.81"/><g id="_Group_" data-name="&lt;Group&gt;"><path id="_Compound_Path_" data-name="&lt;Compound Path&gt;" class="cls-2" d="M24.88,39.13a.86.86,0,0,1-.66-.3c-3.51-4-6.26-8.56-7.36-12.07-1.35-4.31-1-8.34,1-11.07a8.37,8.37,0,0,1,7-3.33,8.4,8.4,0,0,1,7,3.34c2,2.73,2.39,6.76,1,11.06-1.11,3.54-3.72,7.83-7.36,12.07a.88.88,0,0,1-.66.3Zm0-25a6.6,6.6,0,0,0-5.57,2.62c-1.68,2.28-2,5.75-.78,9.52a34.56,34.56,0,0,0,6.36,10.68,34,34,0,0,0,6.37-10.68c1.17-3.76.89-7.22-.79-9.5A6.62,6.62,0,0,0,24.87,14.1Z"/></g><g id="_Group_2" data-name="&lt;Group&gt;"><path id="_Compound_Path_2" data-name="&lt;Compound Path&gt;" class="cls-2" d="M24.88,26.53a5.43,5.43,0,1,1,5.43-5.43A5.44,5.44,0,0,1,24.88,26.53Zm0-9.13a3.69,3.69,0,1,0,3.69,3.7A3.7,3.7,0,0,0,24.88,17.41Z"/></g></g></g></svg>
