<?xml version="1.0" encoding="utf-8"?>
<!-- Generator: Adobe Illustrator 21.0.0, SVG Export Plug-In . SVG Version: 6.00 Build 0)  -->
<svg version="1.1" id="Layer_1" xmlns="http://www.w3.org/2000/svg" xmlns:xlink="http://www.w3.org/1999/xlink" x="0px" y="0px"
	 viewBox="0 0 260 512.1" style="enable-background:new 0 0 260 512.1;" xml:space="preserve">
<g fill="#0B2F47">
	<g>
		<path d="M165.1,107.5c9.6,0,17.6,3,24.5,9c7.1,6.2,12.9,15.8,17.2,28.5c14.6,42.3,47.3,131.9,47.6,132.8
			c1.4,3.8,1.2,7.9-0.5,11.5c-1.7,3.7-4.7,6.4-8.5,7.8c-1.7,0.6-3.4,0.9-5.2,0.9c-6.3,0-12-4-14.2-9.9l-0.1-0.1
			c-2.4-6.5-23.5-64.4-38.8-107.5l-5.1-14.3l-4.4,14.5c-1.1,3.6-3.4,6.8-6.4,9.1l-2,1.5v2.5v29.5v1l0.4,0.9l34.6,87.2
			c0.5,1.2,0.1,2.3-0.1,2.8c-0.3,0.5-0.9,1.4-2.2,1.7c-4.8,1.2-11.4,2.8-19.4,4.8l-3.8,0.9v3.9v161.3c0,10.5-8.6,19.1-19.1,19.1
			s-19.1-8.6-19.1-19.1V338v-5.5l-5.4,0.5c-1.6,0.1-3.2,0.2-4.8,0.2c-1.6,0-3.2-0.1-4.7-0.2l-5.4-0.5v5.5v149.9
			c0,10.5-8.6,19.1-19.1,19.1S82,498.4,82,487.9V326.6v-3.9l-3.8-0.9c-8.4-2.1-14.7-3.7-19.5-4.8c-1.3-0.3-1.9-1.2-2.2-1.7
			s-0.6-1.6-0.1-2.8L91,225.3l0.4-0.9v-1v-29.5v-2.5l-2-1.5c-3.1-2.3-5.3-5.5-6.4-9.1l-4.4-14.5l-5.1,14.3
			c-15.2,43.1-36.4,101-38.8,107.5v0.1c-2.2,5.9-7.9,9.9-14.2,9.9c-1.8,0-3.5-0.3-5.2-0.9c-3.8-1.4-6.8-4.2-8.5-7.8
			c-1.7-3.7-1.9-7.8-0.5-11.5c0.3-0.8,33.1-90.5,47.6-132.8c4.4-12.7,10.2-22.3,17.2-28.5c6.9-6.1,14.9-9,24.5-9h69.5 M165.1,102.5
			c-29.9,0-39.9,0-69.8,0c-21.5,0-37.1,13.8-46.5,40.9C34.3,185.5,1.5,275.2,1.2,276.1c-3.8,10.4,1.5,22,12,25.8
			c2.3,0.8,4.6,1.2,6.9,1.2c8.2,0,15.9-5.1,18.9-13.2c0.3-0.7,22.8-62.3,38.8-107.6c1.4,4.7,4.4,8.8,8.2,11.6v29.5l-34.6,87.2
			c-1.9,4.8,0.9,10.1,5.8,11.3c5.2,1.2,12,2.9,19.4,4.8V488c0,13.3,10.8,24.1,24.1,24.1s24.1-10.8,24.1-24.1V338
			c1.7,0.2,3.4,0.2,5.2,0.2c1.7,0,3.5-0.1,5.2-0.2v149.9c0,13.3,10.8,24.1,24.1,24.1c13.3,0,24.1-10.8,24.1-24.1V326.6
			c7.4-1.9,14.2-3.5,19.4-4.8c4.9-1.2,7.7-6.5,5.8-11.3L174,223.3v-29.5c3.9-2.9,6.8-6.9,8.2-11.6c16,45.3,38.6,106.9,38.8,107.6
			c3,8.1,10.7,13.2,18.9,13.2c2.3,0,4.6-0.4,6.9-1.2c10.4-3.8,15.8-15.4,12-25.8c-0.3-0.9-33.1-90.7-47.6-132.7
			C202.2,116.2,186.6,102.5,165.1,102.5L165.1,102.5z"/>
	</g>
	<g>
		<path d="M130.2,5c21.4,0,38.9,17.4,38.9,38.9c0,21.4-17.4,38.9-38.9,38.9S91.3,65.4,91.3,43.9S108.8,5,130.2,5 M130.2,0
			C106,0,86.3,19.7,86.3,43.9s19.7,43.9,43.9,43.9s43.9-19.7,43.9-43.9S154.4,0,130.2,0L130.2,0z"/>
	</g>
</g>
</svg>
