<?xml version="1.0" encoding="utf-8"?>
<!-- Generator: Adobe Illustrator 21.0.0, SVG Export Plug-In . SVG Version: 6.00 Build 0)  -->
<svg version="1.1" id="Capa_1" xmlns="http://www.w3.org/2000/svg" xmlns:xlink="http://www.w3.org/1999/xlink" x="0px" y="0px"
	 viewBox="0 0 401.8 417.5" style="enable-background:new 0 0 401.8 417.5;" xml:space="preserve">
<style type="text/css">
	.st0{stroke:#cccccc;stroke-width:5;stroke-miterlimit:10;}
</style>
<path fill="#cccccc" d="M173.6,81.5h17.3v17.3c0,5.5,4.5,10,10,10s10-4.5,10-10V81.5h17.3c5.5,0,10-4.5,10-10c0-5.5-4.5-10-10-10h-17.3V44.2
	c0-5.5-4.5-10-10-10s-10,4.5-10,10v17.3h-17.3c-5.5,0-10,4.5-10,10C163.6,77,168.1,81.5,173.6,81.5z"/>
<path fill="#cccccc" d="M303.7,169.7h-34.1c-5.5,0-10,4.5-10,10v89.1c0,5.5,4.5,10,10,10h34.1c5.5,0,10-4.5,10-10v-89.1
	C313.7,174.1,309.2,169.7,303.7,169.7z"/>
<g>
	<path fill="#cccccc" class="st0" d="M394.3,405H356h-5v-5V71.5c0-1.3-0.5-2.6-1.5-3.5c-0.9-0.9-2.2-1.5-3.5-1.5l-71.7,0l-4.4,0l-0.6-4.3
		c-4.6-34-34-59.7-68.4-59.7c-34.4,0-63.8,25.7-68.4,59.7l-0.6,4.3h-4.4H55.9c-2.8,0-5,2.2-5,5V400v5h-5H7.5c-2.8,0-5,2.2-5,5
		c0,2.8,2.2,5,5,5h386.8c2.8,0,5-2.2,5-5C399.3,407.2,397.1,405,394.3,405z M200.9,12.5c32.5,0,59,26.5,59,59c0,32.5-26.5,59-59,59
		c-32.5,0-59-26.5-59-59C141.9,39,168.4,12.5,200.9,12.5z M195.9,328l0,72l0,5h-5h-51.6h-5v-5v-72v-5h5h51.6h5L195.9,328z
		 M267.5,328l0,72l0,5h-5h-51.6h-5l0-5l0-72l0-5h5h51.6h5L267.5,328z M341,81.5l0,318.5v5h-5h-53.5h-5v-5v-82c0-2.8-2.2-5-5-5h-71.6
		h-71.6c-2.8,0-5,2.2-5,5v82v5h-5H65.9h-5v-5V81.5v-5h5h61.7h4.4l0.6,4.3c4.6,34,34,59.7,68.4,59.7c34.4,0,63.8-25.7,68.4-59.7
		l0.6-4.3h4.4H336h5V81.5z"/>
</g>
<path fill="#cccccc" d="M218,169.7h-34.1c-5.5,0-10,4.5-10,10v89.1c0,5.5,4.5,10,10,10H218c5.5,0,10-4.5,10-10v-89.1
	C228,174.1,223.5,169.7,218,169.7z"/>
<path fill="#cccccc" d="M132.2,169.7H98.1c-5.5,0-10,4.5-10,10v89.1c0,5.5,4.5,10,10,10h34.1c5.5,0,10-4.5,10-10v-89.1
	C142.2,174.1,137.7,169.7,132.2,169.7z"/>
</svg>
