<svg height="512pt" viewBox="-66 0 512 512.00042" width="512pt" xmlns="http://www.w3.org/2000/svg"><path fill="#ffffff" d="m98.53125 64.515625c-1 3.089844-.160156 6.480469 2.167969 8.746094l37.386719 36.515625-8.828126 51.460937c-.796874 4.648438 2.324219 9.0625 6.972657 9.859375 1.851562.316406 3.753906.015625 5.417969-.859375l46.226562-24.335937 46.222656 24.292968c4.175782 2.195313 9.339844.589844 11.535156-3.582031.875-1.664062 1.175782-3.566406.859376-5.417969l-8.832032-51.417968 37.386719-36.457032c3.355469-3.3125 3.386719-8.722656.074219-12.074218-1.292969-1.308594-2.976563-2.167969-4.796875-2.441406l-51.707031-7.601563-23.058594-46.824219c-2.492188-4.230468-7.941406-5.640625-12.171875-3.148437-1.296875.765625-2.382813 1.851562-3.148438 3.148437l-23.109375 46.824219-51.679687 7.515625c-3.222657.457031-5.90625 2.707031-6.917969 5.796875zm65.472656 2.921875c2.78125-.402344 5.1875-2.152344 6.429688-4.671875l17.441406-35.3125 17.4375 35.355469c1.242188 2.519531 3.648438 4.269531 6.429688 4.671875l39 5.671875-28.179688 27.503906c-2.015625 1.960938-2.933594 4.789062-2.460938 7.558594l6.660157 38.839844-34.882813-18.335938c-2.484375-1.304688-5.457031-1.304688-7.941406 0l-34.917969 18.308594 6.660157-38.839844c.472656-2.769531-.445313-5.59375-2.460938-7.554688l-28.179688-27.507812zm0 0"/><path fill="#ffffff" d="m96.5 128.652344c2.875-3.738282 2.175781-9.101563-1.5625-11.976563-.835938-.644531-1.78125-1.125-2.792969-1.425781l-22.632812-6.667969-13.320313-19.480469c-2.667968-3.886718-7.984375-4.875-11.875-2.207031-.863281.59375-1.613281 1.34375-2.207031 2.207031l-13.347656 19.480469-22.640625 6.667969c-4.523438 1.339844-7.105469 6.089844-5.769532 10.613281.300782 1.007813.78125 1.953125 1.421876 2.789063l14.390624 18.699218-.648437 23.589844c-.128906 4.710938 3.585937 8.640625 8.300781 8.769532 1.050782.03125 2.097656-.136719 3.089844-.488282l22.203125-7.90625 22.203125 7.90625c4.445312 1.582032 9.328125-.738281 10.910156-5.179687.355469-.996094.523438-2.046875.492188-3.101563l-.582032-23.589844zm-29.78125 10.679687c-1.191406 1.5625-1.816406 3.484375-1.765625 5.449219l.382813 14.175781-13.328126-4.773437c-1.851562-.65625-3.875-.65625-5.722656 0l-13.355468 4.75.375-14.140625c.050781-1.964844-.574219-3.890625-1.769532-5.449219l-8.640625-11.222656 13.585938-4.011719c1.886719-.550781 3.523437-1.738281 4.628906-3.359375l8.019531-11.707031 8.019532 11.707031c1.109374 1.617188 2.746093 2.804688 4.628906 3.359375l13.59375 4.011719zm0 0"/><path fill="#ffffff" d="m373.980469 115.25-22.628907-6.667969-13.347656-19.480469c-2.671875-3.886718-7.984375-4.875-11.875-2.207031-.867187.59375-1.613281 1.34375-2.207031 2.207031l-13.347656 19.480469-22.640625 6.667969c-4.523438 1.339844-7.105469 6.089844-5.769532 10.613281.296876 1.007813.78125 1.953125 1.421876 2.789063l14.390624 18.699218-.648437 23.589844c-.128906 4.710938 3.585937 8.640625 8.300781 8.769532 1.050782.03125 2.097656-.136719 3.089844-.488282l22.203125-7.90625 22.203125 7.90625c4.445312 1.582032 9.328125-.738281 10.910156-5.179687.355469-.996094.519532-2.046875.492188-3.101563l-.582032-23.589844 14.363282-18.699218c2.875-3.738282 2.179687-9.101563-1.558594-11.976563-.835938-.644531-1.785156-1.125-2.796875-1.421875h.027344zm-25.421875 24.082031c-1.195313 1.5625-1.820313 3.484375-1.769532 5.449219l.386719 14.175781-13.359375-4.773437c-1.847656-.65625-3.871094-.65625-5.71875 0l-13.355468 4.75.375-14.140625c.050781-1.964844-.574219-3.890625-1.769532-5.449219l-8.640625-11.222656 13.585938-4.011719c1.886719-.550781 3.519531-1.738281 4.628906-3.359375l8.019531-11.707031 8.019532 11.707031c1.109374 1.617188 2.742187 2.804688 4.625 3.359375l13.597656 4.011719zm0 0"/><path fill="#ffffff" d="m343.410156 247.3125c-9.367187-.464844-18.519531 2.910156-25.339844 9.347656-.734374.703125-1.441406 1.4375-2.109374 2.1875-12.476563-14.148437-34.0625-15.503906-48.210938-3.023437-1.070312.941406-2.082031 1.953125-3.027344 3.023437-10.742187-12.21875-28.617187-15.152344-42.699218-7.003906v-37.285156c.398437-18.570313-13.816407-34.199219-32.339844-35.566406-18.839844-1-34.921875 13.460937-35.921875 32.300781-.03125.605469-.046875 1.210937-.046875 1.816406v63.484375l-25.96875 15.578125c-10.019532 6.039063-17.140625 15.910156-19.710938 27.324219l-12.015625 54.066406c-1.535156 6.941406-1.324219 14.152344.625 20.992188l31.785157 111.21875c1.035156 3.679687 4.386718 6.222656 8.207031 6.226562h213.492187c3.496094 0 6.636719-2.125 7.933594-5.371094l14.628906-36.585937c2.023438-5.042969 3.0625-10.429688 3.058594-15.867188v-171.296875c.394531-18.570312-13.816406-34.199218-32.339844-35.566406zm15.257813 206.863281c.003906 3.265625-.617188 6.496094-1.835938 9.523438l-12.484375 31.222656h-201.273437l-30.007813-105.039063c-1.167968-4.105468-1.296875-8.433593-.375-12.597656l11.988282-54.011718c1.542968-6.859376 5.816406-12.789063 11.835937-16.414063l17.199219-10.351563v27.617188c0 4.71875 3.824218 8.539062 8.539062 8.539062 4.71875 0 8.539063-3.820312 8.539063-8.539062v-111.015625c-.011719-9.433594 7.621093-17.089844 17.054687-17.105469.320313 0 .640625.007813.957032.023438 9.398437 1.011718 16.433593 9.085937 16.148437 18.53125v109.566406c0 4.71875 3.824219 8.539062 8.539063 8.539062 4.71875 0 8.539062-3.820312 8.539062-8.539062v-42.699219c0-9.429687 7.648438-17.078125 17.082031-17.078125 9.433594 0 17.078125 7.644532 17.078125 17.078125v42.699219c0 4.71875 3.824219 8.539062 8.539063 8.539062 4.71875 0 8.542969-3.820312 8.542969-8.539062v-42.699219c0-9.429687 7.644531-17.078125 17.078124-17.078125 9.433594 0 17.078126 7.644532 17.078126 17.078125v42.699219c0 4.71875 3.824218 8.539062 8.542968 8.539062 4.714844 0 8.539063-3.820312 8.539063-8.539062v-42.699219c-.015625-9.429687 7.621093-17.089843 17.054687-17.105469.316406 0 .636719.007813.953125.027344 9.398438 1.007813 16.4375 9.082032 16.148438 18.53125zm0 0"/></svg>
