<svg id="Layer_1" data-name="Layer 1" xmlns="http://www.w3.org/2000/svg" viewBox="0 0 24.25 25"><defs><style>.cls-1{fill:#c1c1c1;}</style></defs><title>satisfaction-sad</title><g id="Layer_2" data-name="Layer 2"><g id="Layer_1-2" data-name="Layer 1-2"><path class="cls-1" d="M12.13,0A12.34,12.34,0,0,0,0,12.52,12.34,12.34,0,0,0,12.13,25,12.34,12.34,0,0,0,24.25,12.52,12.34,12.34,0,0,0,12.13,0Zm0,23.69A10.61,10.61,0,0,1,4.5,20.44a11.2,11.2,0,0,1-2-2.74,11.38,11.38,0,0,1-1.23-5.17A11,11,0,0,1,12.09,1.35h0a10.6,10.6,0,0,1,7.34,3,11.22,11.22,0,0,1,2.42,3.38A11.4,11.4,0,0,1,23,12.55,11,11,0,0,1,12.13,23.69Z" transform="translate(0)"/><path class="cls-1" d="M8,9.74a1.28,1.28,0,0,1-1.62-.8v0l-1.23.44A2.59,2.59,0,1,0,10,7.61l-1.23.44A1.28,1.28,0,0,1,8,9.71Z" transform="translate(0)"/><path class="cls-1" d="M16.26,9.73a1.28,1.28,0,0,1-.69-1.67l0,0-1.21-.5a2.59,2.59,0,1,0,4.78,2L17.94,9a1.28,1.28,0,0,1-1.65.74Z" transform="translate(0)"/><path class="cls-1" d="M12.1,13.17a7.56,7.56,0,0,0-6.36,3.56l1.1.73a6.21,6.21,0,0,1,6-2.9,6.28,6.28,0,0,1,4.52,2.9l1.1-.73A7.59,7.59,0,0,0,13,13.22,7.31,7.31,0,0,0,12.1,13.17Z" transform="translate(0)"/></g></g></svg>