<svg xmlns="http://www.w3.org/2000/svg" viewBox="0 0 23.01 23.01"><defs><style>.cls-1{fill:none;stroke:#304454;stroke-miterlimit:10;stroke-width:0.5px;}.cls-2{fill:#304454;}</style></defs><title>Asset 2</title><g id="Layer_2" data-name="Layer 2"><g id="Layer_1-2" data-name="Layer 1"><circle class="cls-1" cx="11.5" cy="11.5" r="11.25"/><path class="cls-2" d="M19.2,12.58a1.67,1.67,0,0,0-1.41-1.41v-.43a2.1,2.1,0,0,0-2-2.17,2.11,2.11,0,0,0-2,2.1h0v4.69a2.62,2.62,0,0,1-2.5,2.72,2.62,2.62,0,0,1-2.5-2.72V15c.34,0,.71-.25.71-1v-.6a3.38,3.38,0,0,0,2.62-3.19v-.5h-.48V6.62a1.19,1.19,0,0,0-1-1.17.71.71,0,1,0,0,.49.72.72,0,0,1,.52.68v3.1h-.47v.5A1.89,1.89,0,0,1,9.27,12,2.11,2.11,0,0,1,8,12a1.89,1.89,0,0,1-1.37-1.78v-.5H5.88V6.62a.71.71,0,0,1,.53-.69A.72.72,0,1,0,6.81,5a.73.73,0,0,0-.42.45,1.19,1.19,0,0,0-1,1.17v3.1H4.92v.5a3.38,3.38,0,0,0,2.62,3.2V14c0,.7.37,1,.71,1v.41a3.1,3.1,0,0,0,3,3.2,3.1,3.1,0,0,0,3-3.2V10.69a1.55,1.55,0,1,1,3.1.05v.43a1.67,1.67,0,1,0,1.89,1.41ZM9.93,5.91a.24.24,0,1,1,.24-.24A.24.24,0,0,1,9.93,5.91ZM7.07,5.43a.24.24,0,1,1-.24.24A.24.24,0,0,1,7.07,5.43ZM5.4,10.21v0h.72v0a2.36,2.36,0,0,0,1.7,2.23,2.67,2.67,0,0,0,1.6,0,2.36,2.36,0,0,0,1.7-2.23v0h.48v0A2.92,2.92,0,0,1,9.16,13a3.39,3.39,0,0,1-1,0l-.33,0A2.92,2.92,0,0,1,5.4,10.21Zm2.86,4.27C8,14.49,8,14.15,8,14v-.5h.13l.34,0h0l.34,0H9V14c0,.14,0,.48-.24.48ZM17.55,14a1.19,1.19,0,1,1,1.19-1.19A1.19,1.19,0,0,1,17.55,14Z"/><path class="cls-2" d="M17.55,12.1a.71.71,0,1,0,.71.71A.71.71,0,0,0,17.55,12.1Zm0,1a.24.24,0,1,1,.24-.24A.24.24,0,0,1,17.55,13.06Z"/></g></g></svg>