<?xml version="1.0" encoding="UTF-8" standalone="no"?>
<svg
   xmlns:dc="http://purl.org/dc/elements/1.1/"
   xmlns:cc="http://creativecommons.org/ns#"
   xmlns:rdf="http://www.w3.org/1999/02/22-rdf-syntax-ns#"
   xmlns:svg="http://www.w3.org/2000/svg"
   xmlns="http://www.w3.org/2000/svg"
   xmlns:sodipodi="http://sodipodi.sourceforge.net/DTD/sodipodi-0.dtd"
   xmlns:inkscape="http://www.inkscape.org/namespaces/inkscape"
   inkscape:version="1.0 (4035a4f, 2020-05-01)"
   sodipodi:docname="vote_star.svg"
   id="svg12"
   version="1.1"
   width="511pt"
   viewBox="0 -10 511.99143 511"
   height="511pt">
  <metadata
     id="metadata18">
    <rdf:RDF>
      <cc:Work
         rdf:about="">
        <dc:format>image/svg+xml</dc:format>
        <dc:type
           rdf:resource="http://purl.org/dc/dcmitype/StillImage" />
      </cc:Work>
    </rdf:RDF>
  </metadata>
  <defs
     id="defs16" />
  <sodipodi:namedview
     inkscape:current-layer="svg12"
     inkscape:window-maximized="0"
     inkscape:window-y="23"
     inkscape:window-x="0"
     inkscape:cy="83.519078"
     inkscape:cx="-491.7505"
     inkscape:zoom="0.15769051"
     showgrid="false"
     id="namedview14"
     inkscape:window-height="480"
     inkscape:window-width="781"
     inkscape:pageshadow="2"
     inkscape:pageopacity="0"
     guidetolerance="10"
     gridtolerance="10"
     objecttolerance="10"
     borderopacity="1"
     bordercolor="#666666"
     pagecolor="#ffffff" />
  <path
     style="stroke-width:1;fill:#ffffff"
     id="path10"
     d="M 510.65234,185.88281 C 507.28125,175.51562 498.08594,168.17578 487.25,167.19531 L 339.45313,153.77734 281.04297,17.027344 c -4.3125,-10.0468751 -14.125,-16.53125 -25.04687,-16.53125 -10.92188,0 -20.73829,6.4843749 -25.02344,16.53125 L 172.5625,153.77734 24.742188,167.19531 c -10.835938,1 -20.011719,8.33985 -23.402344,18.6875 C -2.03125,196.25 1.082031,207.62109 9.2773439,214.80859 L 121,312.77344 88.058596,457.85937 c -2.410159,10.66797 1.730467,21.69922 10.582029,28.09766 4.757815,3.45703 10.347655,5.1836 15.957035,5.1836 4.82031,0 9.64453,-1.28125 13.95312,-3.85938 l 127.44532,-76.20312 127.42187,76.20312 c 9.34765,5.58593 21.10156,5.07421 29.93359,-1.32422 8.85157,-6.39844 12.99219,-17.42969 10.58204,-28.09766 L 390.99219,312.77344 502.71485,214.80859 c 8.1914,-7.1875 11.30859,-18.53515 7.93749,-28.92578 z M 258.44922,409.60547" />
</svg>
